SplineFontDB: 3.0
FontName: Oswald-Light
FullName: Oswald Light
FamilyName: Oswald
Weight: Light
Copyright: Copyright (c) 2011-12 by vernon adams. All rights reserved.
Version: 
ItalicAngle: 0
UnderlinePosition: -125
UnderlineWidth: 50
Ascent: 1638
Descent: 410
sfntRevision: 0x00020000
LayerCount: 2
Layer: 0 1 "Back"  1
Layer: 1 1 "Fore"  0
XUID: [1021 332 1330122705 16753529]
FSType: 0
OS2Version: 1
OS2_WeightWidthSlopeOnly: 0
OS2_UseTypoMetrics: 1
CreationTime: 1345466565
ModificationTime: 1349110638
PfmFamily: 17
TTFWeight: 300
TTFWidth: 5
LineGap: 0
VLineGap: 0
Panose: 2 0 3 3 0 0 0 0 0 0
OS2TypoAscent: 2444
OS2TypoAOffset: 0
OS2TypoDescent: -591
OS2TypoDOffset: 0
OS2TypoLinegap: 0
OS2WinAscent: 2444
OS2WinAOffset: 0
OS2WinDescent: 591
OS2WinDOffset: 0
HheadAscent: 2444
HheadAOffset: 0
HheadDescent: -591
HheadDOffset: 0
OS2SubXSize: 1331
OS2SubYSize: 1433
OS2SubXOff: 0
OS2SubYOff: 286
OS2SupXSize: 1331
OS2SupYSize: 1433
OS2SupXOff: 0
OS2SupYOff: 983
OS2StrikeYSize: 102
OS2StrikeYPos: 530
OS2Vendor: 'newt'
OS2CodePages: 00000093.00000000
OS2UnicodeRanges: a000006f.4000004b.00000000.00000000
Lookup: 258 0 0 "'kern' Horizontal Kerning in Latin lookup 0"  {"'kern' Horizontal Kerning in Latin lookup 0 per glyph data 0"  "'kern' Horizontal Kerning in Latin lookup 0 kerning class 1"  } ['kern' ('DFLT' <'dflt' > 'latn' <'dflt' > ) ]
MarkAttachClasses: 1
DEI: 91125
KernClass2: 28 21 "'kern' Horizontal Kerning in Latin lookup 0 kerning class 1" 
 81 A Agrave Aacute Acircumflex Atilde Adieresis Aring Amacron Abreve Aogonek uni0202
 1 B
 75 D O Q Eth Ograve Oacute Ocircumflex Otilde Odieresis Oslash uni020C uni020E
 1 F
 1 K
 1 L
 1 P
 44 R Racute Rcommaaccent Rcaron uni0210 uni0212
 22 T uni021A Tcommaaccent
 1 V
 1 W
 18 Y Yacute Ydieresis
 1 a
 69 b o p ograve oacute ocircumflex otilde odieresis oslash thorn uni020F
 1 c
 1 d
 1 e
 1 f
 1 g
 24 h m n ntilde hbar nacute
 27 k kcommaaccent kgreenlandic
 29 r rcommaaccent rcaron uni0213
 22 t uni021B tcommaaccent
 1 v
 1 w

StartChar: .notdef
Encoding: 65536 -1 0
Width: 748
Flags: W
LayerCount: 2
Fore
SplineSet
68 0 m 1,0,-1
 68 1365 l 1,1,-1
 612 1365 l 1,2,-1
 612 0 l 1,3,-1
 68 0 l 1,0,-1
136 68 m 1,4,-1
 544 68 l 1,5,-1
 544 1297 l 1,6,-1
 136 1297 l 1,7,-1
 136 68 l 1,4,-1
EndSplineSet
EndChar

StartChar: exclam
Encoding: 33 33 4
Width: 434
Flags: W
LayerCount: 2
Fore
SplineSet
138 0 m 1,0,-1
 138 179 l 1,1,-1
 323 179 l 1,2,-1
 323 0 l 1,3,-1
 138 0 l 1,0,-1
197 388 m 1,4,-1
 117 1719 l 1,5,-1
 311 1719 l 1,6,-1
 251 388 l 1,7,-1
 197 388 l 1,4,-1
EndSplineSet
EndChar

StartChar: quotedbl
Encoding: 34 34 5
Width: 694
Flags: W
LayerCount: 2
Fore
SplineSet
475 1408 m 1,0,-1
 425 1715 l 1,1,-1
 593 1715 l 1,2,3
 581 1644 581 1644 568.5 1566.5 c 128,-1,4
 556 1489 556 1489 542 1408 c 1,5,-1
 475 1408 l 1,0,-1
152 1408 m 1,6,-1
 102 1715 l 1,7,-1
 270 1715 l 1,8,9
 258 1644 258 1644 245.5 1566.5 c 128,-1,10
 233 1489 233 1489 219 1408 c 1,11,-1
 152 1408 l 1,6,-1
EndSplineSet
EndChar

StartChar: numbersign
Encoding: 35 35 6
Width: 1020
Flags: W
LayerCount: 2
Fore
SplineSet
382 785 m 1,0,-1
 559 785 l 1,1,-1
 626 1024 l 1,2,-1
 449 1024 l 1,3,-1
 382 785 l 1,0,-1
18 0 m 1,4,-1
 203 660 l 1,5,-1
 48 660 l 1,6,-1
 48 785 l 1,7,-1
 238 785 l 1,8,-1
 305 1024 l 1,9,-1
 98 1024 l 1,10,-1
 98 1139 l 1,11,-1
 337 1139 l 1,12,-1
 500 1721 l 1,13,-1
 645 1721 l 1,14,-1
 482 1139 l 1,15,-1
 658 1139 l 1,16,-1
 821 1721 l 1,17,-1
 966 1721 l 1,18,-1
 803 1139 l 1,19,-1
 957 1139 l 1,20,-1
 957 1024 l 1,21,-1
 770 1024 l 1,22,-1
 703 785 l 1,23,-1
 907 785 l 1,24,-1
 907 660 l 1,25,-1
 668 660 l 1,26,-1
 483 0 l 1,27,-1
 339 0 l 1,28,-1
 524 660 l 1,29,-1
 347 660 l 1,30,-1
 162 0 l 1,31,-1
 18 0 l 1,4,-1
EndSplineSet
EndChar

StartChar: dollar
Encoding: 36 36 7
Width: 948
Flags: W
LayerCount: 2
Fore
SplineSet
197 484 m 1,0,1
 212 330 212 330 289 229.5 c 128,-1,2
 366 129 366 129 500 125 c 1,3,4
 578 125 578 125 636 147 c 128,-1,5
 694 169 694 169 731.5 224 c 128,-1,6
 769 279 769 279 769 364 c 0,7,8
 769 517 769 517 534 700 c 2,9,-1
 239 930 l 1,10,11
 57 1078 57 1078 57 1234 c 0,12,13
 57 1394 57 1394 165.5 1491.5 c 128,-1,14
 274 1589 274 1589 446 1594 c 1,15,-1
 446 1747 l 1,16,-1
 534 1747 l 1,17,-1
 534 1591 l 1,18,19
 681 1573 681 1573 777.5 1472 c 128,-1,20
 874 1371 874 1371 895 1206 c 1,21,-1
 769 1167 l 1,22,23
 749 1292 749 1292 670.5 1381 c 128,-1,24
 592 1470 592 1470 482 1470 c 0,25,26
 204 1470 204 1470 204 1254 c 0,27,28
 204 1137 204 1137 345 1020 c 1,29,-1
 628 795 l 1,30,31
 693 742 693 742 735.5 702 c 128,-1,32
 778 662 778 662 823.5 607.5 c 128,-1,33
 869 553 869 553 891.5 495.5 c 128,-1,34
 914 438 914 438 914 377 c 0,35,36
 914 207 914 207 809 110 c 128,-1,37
 704 13 704 13 534 4 c 1,38,-1
 534 -138 l 1,39,-1
 446 -138 l 1,40,-1
 446 6 l 1,41,42
 337 18 337 18 254.5 82 c 128,-1,43
 172 146 172 146 126.5 238 c 128,-1,44
 81 330 81 330 63 445 c 1,45,-1
 197 484 l 1,0,1
EndSplineSet
EndChar

StartChar: percent
Encoding: 37 37 8
Width: 1257
Flags: W
LayerCount: 2
Fore
SplineSet
783 307 m 2,0,-1
 783 541 l 2,1,2
 783 865 783 865 1009 865 c 128,-1,3
 1235 865 1235 865 1235 541 c 2,4,-1
 1235 307 l 2,5,6
 1235 -27 1235 -27 1009 -27 c 128,-1,7
 783 -27 783 -27 783 307 c 2,0,-1
1118 310 m 2,8,-1
 1118 538 l 2,9,10
 1118 764 1118 764 1009 764 c 128,-1,11
 900 764 900 764 900 538 c 2,12,-1
 900 310 l 2,13,14
 900 74 900 74 1009 74 c 128,-1,15
 1118 74 1118 74 1118 310 c 2,8,-1
57 1187 m 2,16,-1
 57 1421 l 2,17,18
 57 1745 57 1745 283 1745 c 128,-1,19
 509 1745 509 1745 509 1421 c 2,20,-1
 509 1187 l 2,21,22
 509 853 509 853 283 853 c 128,-1,23
 57 853 57 853 57 1187 c 2,16,-1
392 1190 m 2,24,-1
 392 1418 l 2,25,26
 392 1644 392 1644 283 1644 c 128,-1,27
 174 1644 174 1644 174 1418 c 2,28,-1
 174 1190 l 2,29,30
 174 954 174 954 283 954 c 128,-1,31
 392 954 392 954 392 1190 c 2,24,-1
305 0 m 1,32,-1
 857 1721 l 1,33,-1
 981 1721 l 1,34,-1
 428 0 l 1,35,-1
 305 0 l 1,32,-1
EndSplineSet
EndChar

StartChar: ampersand
Encoding: 38 38 9
Width: 1116
Flags: W
LayerCount: 2
Fore
SplineSet
442 927 m 1,0,1
 556 1036 556 1036 624 1168.5 c 128,-1,2
 692 1301 692 1301 692 1416 c 0,3,4
 692 1511 692 1511 644 1567 c 128,-1,5
 596 1623 596 1623 497 1623 c 0,6,7
 441 1623 441 1623 399 1597.5 c 128,-1,8
 357 1572 357 1572 335 1531 c 128,-1,9
 313 1490 313 1490 302.5 1448 c 128,-1,10
 292 1406 292 1406 292 1364 c 0,11,12
 292 1179 292 1179 442 927 c 1,0,1
735 229 m 1,13,-1
 406 734 l 1,14,15
 321 656 321 656 264.5 537 c 128,-1,16
 208 418 208 418 208 313 c 0,17,18
 208 214 208 214 265 154 c 128,-1,19
 322 94 322 94 442 94 c 0,20,21
 590 94 590 94 735 229 c 1,13,-1
1094 122 m 1,22,-1
 1094 -14 l 1,23,24
 1017 -9 1017 -9 938 30.5 c 128,-1,25
 859 70 859 70 804 134 c 1,26,27
 634 -26 634 -26 434 -26 c 0,28,29
 251 -26 251 -26 159.5 64 c 128,-1,30
 68 154 68 154 68 298 c 0,31,32
 68 435 68 435 142.5 587.5 c 128,-1,33
 217 740 217 740 346 844 c 1,34,35
 140 1185 140 1185 140 1370 c 0,36,37
 140 1537 140 1537 236 1641 c 128,-1,38
 332 1745 332 1745 493 1745 c 128,-1,39
 654 1745 654 1745 745 1655.5 c 128,-1,40
 836 1566 836 1566 836 1420 c 0,41,42
 836 1283 836 1283 751.5 1125.5 c 128,-1,43
 667 968 667 968 498 817 c 1,44,-1
 819 324 l 1,45,46
 968 522 968 522 968 753 c 1,47,-1
 1096 753 l 1,48,49
 1096 642 1096 642 1040.5 496 c 128,-1,50
 985 350 985 350 890 228 c 1,51,52
 986 122 986 122 1094 122 c 1,22,-1
EndSplineSet
EndChar

StartChar: quotesingle
Encoding: 39 39 10
Width: 373
Flags: W
LayerCount: 2
Fore
SplineSet
153 1408 m 1,0,-1
 102 1715 l 1,1,-1
 271 1715 l 1,2,3
 257 1633 257 1633 244.5 1555 c 128,-1,4
 232 1477 232 1477 220 1408 c 1,5,-1
 153 1408 l 1,0,-1
EndSplineSet
EndChar

StartChar: parenleft
Encoding: 40 40 11
Width: 535
Flags: W
LayerCount: 2
Fore
SplineSet
541 68 m 1,0,-1
 541 -64 l 1,1,2
 472 -64 472 -64 414.5 -42.5 c 128,-1,3
 357 -21 357 -21 315.5 10.5 c 128,-1,4
 274 42 274 42 241 97.5 c 128,-1,5
 208 153 208 153 187.5 202 c 128,-1,6
 167 251 167 251 152.5 327.5 c 128,-1,7
 138 404 138 404 130.5 456.5 c 128,-1,8
 123 509 123 509 119.5 593.5 c 128,-1,9
 116 678 116 678 115.5 721 c 128,-1,10
 115 764 115 764 115 841 c 0,11,12
 115 845 115 845 115 846.5 c 128,-1,13
 115 848 115 848 115 851 c 128,-1,14
 115 854 115 854 115 856.5 c 128,-1,15
 115 859 115 859 115 861 c 0,16,17
 115 867 115 867 115 881 c 0,18,19
 115 981 115 981 116 1038.5 c 128,-1,20
 117 1096 117 1096 125 1204.5 c 128,-1,21
 133 1313 133 1313 148 1380 c 128,-1,22
 163 1447 163 1447 194.5 1533 c 128,-1,23
 226 1619 226 1619 270 1668 c 128,-1,24
 314 1717 314 1717 383.5 1752 c 128,-1,25
 453 1787 453 1787 541 1787 c 1,26,-1
 541 1655 l 1,27,28
 486 1655 486 1655 443 1631 c 128,-1,29
 400 1607 400 1607 371.5 1570.5 c 128,-1,30
 343 1534 343 1534 322.5 1471 c 128,-1,31
 302 1408 302 1408 291.5 1351.5 c 128,-1,32
 281 1295 281 1295 275 1208.5 c 128,-1,33
 269 1122 269 1122 268 1059.5 c 128,-1,34
 267 997 267 997 267 903 c 0,35,36
 267 891 267 891 267 866 c 0,37,38
 267 773 267 773 267.5 724 c 128,-1,39
 268 675 268 675 271 587.5 c 128,-1,40
 274 500 274 500 281.5 450 c 128,-1,41
 289 400 289 400 301 330.5 c 128,-1,42
 313 261 313 261 333.5 221.5 c 128,-1,43
 354 182 354 182 382 142.5 c 128,-1,44
 410 103 410 103 450.5 85.5 c 128,-1,45
 491 68 491 68 541 68 c 1,0,-1
EndSplineSet
EndChar

StartChar: parenright
Encoding: 41 41 12
Width: 545
Flags: W
LayerCount: 2
Fore
SplineSet
18 -64 m 1,0,-1
 18 68 l 1,1,2
 68 68 68 68 108.5 85.5 c 128,-1,3
 149 103 149 103 177 142.5 c 128,-1,4
 205 182 205 182 225.5 221.5 c 128,-1,5
 246 261 246 261 258 330.5 c 128,-1,6
 270 400 270 400 277.5 450 c 128,-1,7
 285 500 285 500 288 587.5 c 128,-1,8
 291 675 291 675 291.5 724 c 128,-1,9
 292 773 292 773 292 866 c 0,10,11
 292 874 292 874 292 878.5 c 128,-1,12
 292 883 292 883 292 890 c 128,-1,13
 292 897 292 897 292 903 c 0,14,15
 292 997 292 997 291 1059.5 c 128,-1,16
 290 1122 290 1122 284 1208.5 c 128,-1,17
 278 1295 278 1295 267.5 1351.5 c 128,-1,18
 257 1408 257 1408 236.5 1471 c 128,-1,19
 216 1534 216 1534 187.5 1570.5 c 128,-1,20
 159 1607 159 1607 116 1631 c 128,-1,21
 73 1655 73 1655 18 1655 c 1,22,-1
 18 1787 l 1,23,24
 106 1787 106 1787 175.5 1752 c 128,-1,25
 245 1717 245 1717 289 1668 c 128,-1,26
 333 1619 333 1619 364.5 1533 c 128,-1,27
 396 1447 396 1447 411 1380 c 128,-1,28
 426 1313 426 1313 434 1204.5 c 128,-1,29
 442 1096 442 1096 443 1038.5 c 128,-1,30
 444 981 444 981 444 881 c 0,31,32
 444 877 444 877 444 875.5 c 128,-1,33
 444 874 444 874 444 871 c 128,-1,34
 444 868 444 868 444 865.5 c 128,-1,35
 444 863 444 863 444 861 c 0,36,37
 444 855 444 855 444 841 c 0,38,39
 444 764 444 764 443.5 721 c 128,-1,40
 443 678 443 678 439.5 593.5 c 128,-1,41
 436 509 436 509 428.5 456.5 c 128,-1,42
 421 404 421 404 406.5 327.5 c 128,-1,43
 392 251 392 251 371.5 202 c 128,-1,44
 351 153 351 153 318 97.5 c 128,-1,45
 285 42 285 42 243.5 10.5 c 128,-1,46
 202 -21 202 -21 144.5 -42.5 c 128,-1,47
 87 -64 87 -64 18 -64 c 1,0,-1
EndSplineSet
EndChar

StartChar: asterisk
Encoding: 42 42 13
Width: 760
Flags: W
LayerCount: 2
Fore
SplineSet
147 963 m 1,0,-1
 320 1210 l 1,1,-1
 55 1311 l 1,2,-1
 91 1400 l 1,3,-1
 343 1281 l 1,4,-1
 325 1583 l 1,5,-1
 444 1583 l 1,6,-1
 424 1282 l 1,7,-1
 678 1402 l 1,8,-1
 713 1312 l 1,9,-1
 449 1210 l 1,10,-1
 623 960 l 1,11,-1
 534 911 l 1,12,-1
 384 1163 l 1,13,-1
 235 911 l 1,14,-1
 147 963 l 1,0,-1
EndSplineSet
EndChar

StartChar: plus
Encoding: 43 43 14
Width: 649
Flags: W
LayerCount: 2
Fore
SplineSet
274 384 m 1,0,-1
 274 576 l 1,1,-1
 82 576 l 1,2,-1
 82 691 l 1,3,-1
 274 691 l 1,4,-1
 274 883 l 1,5,-1
 395 883 l 1,6,-1
 395 691 l 1,7,-1
 587 691 l 1,8,-1
 587 576 l 1,9,-1
 395 576 l 1,10,-1
 395 384 l 1,11,-1
 274 384 l 1,0,-1
EndSplineSet
EndChar

StartChar: comma
Encoding: 44 44 15
Width: 389
Flags: W
LayerCount: 2
Fore
SplineSet
160 -256 m 1,0,-1
 133 -201 l 1,1,2
 165 -189 165 -189 188 -163 c 128,-1,3
 211 -137 211 -137 221 -105 c 128,-1,4
 231 -73 231 -73 235 -47.5 c 128,-1,5
 239 -22 239 -22 239 0 c 1,6,-1
 111 0 l 1,7,-1
 111 179 l 1,8,-1
 296 179 l 1,9,10
 296 171 296 171 296 156 c 0,11,12
 296 102 296 102 295.5 75.5 c 128,-1,13
 295 49 295 49 294 2.5 c 128,-1,14
 293 -44 293 -44 289 -67.5 c 128,-1,15
 285 -91 285 -91 279 -125.5 c 128,-1,16
 273 -160 273 -160 263 -178 c 128,-1,17
 253 -196 253 -196 239 -215.5 c 128,-1,18
 225 -235 225 -235 205 -244 c 128,-1,19
 185 -253 185 -253 160 -256 c 1,0,-1
EndSplineSet
EndChar

StartChar: hyphen
Encoding: 45 45 16
Width: 532
Flags: W
LayerCount: 2
Fore
SplineSet
117 448 m 1,0,-1
 117 563 l 1,1,-1
 430 563 l 1,2,-1
 430 448 l 1,3,-1
 117 448 l 1,0,-1
EndSplineSet
EndChar

StartChar: period
Encoding: 46 46 17
Width: 397
Flags: W
LayerCount: 2
Fore
SplineSet
115 0 m 1,0,-1
 115 179 l 1,1,-1
 299 179 l 1,2,-1
 299 0 l 1,3,-1
 115 0 l 1,0,-1
EndSplineSet
EndChar

StartChar: slash
Encoding: 47 47 18
Width: 651
Flags: W
LayerCount: 2
Fore
SplineSet
-29 0 m 1,0,-1
 523 1721 l 1,1,-1
 668 1721 l 1,2,-1
 115 0 l 1,3,-1
 -29 0 l 1,0,-1
EndSplineSet
EndChar

StartChar: zero
Encoding: 48 48 19
Width: 1047
Flags: W
LayerCount: 2
Fore
SplineSet
117 499 m 2,0,-1
 117 1220 l 2,1,2
 117 1311 117 1311 129.5 1387 c 128,-1,3
 142 1463 142 1463 172 1530.5 c 128,-1,4
 202 1598 202 1598 248 1644.5 c 128,-1,5
 294 1691 294 1691 364.5 1718 c 128,-1,6
 435 1745 435 1745 526 1745 c 128,-1,7
 617 1745 617 1745 687.5 1718 c 128,-1,8
 758 1691 758 1691 804 1644.5 c 128,-1,9
 850 1598 850 1598 880 1530.5 c 128,-1,10
 910 1463 910 1463 922.5 1387 c 128,-1,11
 935 1311 935 1311 935 1220 c 2,12,-1
 935 499 l 2,13,14
 935 -27 935 -27 526 -27 c 128,-1,15
 117 -27 117 -27 117 499 c 2,0,-1
783 465 m 2,16,-1
 783 1254 l 2,17,18
 783 1623 783 1623 526 1623 c 128,-1,19
 269 1623 269 1623 269 1254 c 2,20,-1
 269 465 l 2,21,22
 269 95 269 95 526 95 c 128,-1,23
 783 95 783 95 783 465 c 2,16,-1
EndSplineSet
EndChar

StartChar: one
Encoding: 49 49 20
Width: 532
Flags: W
LayerCount: 2
Fore
SplineSet
233 0 m 1,0,-1
 233 1478 l 1,1,2
 190 1449 190 1449 133 1423 c 128,-1,3
 76 1397 76 1397 41 1389 c 1,4,-1
 41 1533 l 1,5,6
 101 1555 101 1555 171 1603.5 c 128,-1,7
 241 1652 241 1652 282 1721 c 1,8,-1
 385 1721 l 1,9,-1
 385 0 l 1,10,-1
 233 0 l 1,0,-1
EndSplineSet
EndChar

StartChar: two
Encoding: 50 50 21
Width: 931
Flags: W
LayerCount: 2
Fore
SplineSet
63 0 m 1,0,-1
 63 128 l 1,1,-1
 525 825 l 2,2,3
 565 886 565 886 590.5 927.5 c 128,-1,4
 616 969 616 969 649.5 1033.5 c 128,-1,5
 683 1098 683 1098 700 1158 c 128,-1,6
 717 1218 717 1218 717 1272 c 0,7,8
 717 1434 717 1434 662.5 1528.5 c 128,-1,9
 608 1623 608 1623 489 1623 c 0,10,11
 421 1623 421 1623 370.5 1600 c 128,-1,12
 320 1577 320 1577 291.5 1541 c 128,-1,13
 263 1505 263 1505 246 1449 c 128,-1,14
 229 1393 229 1393 223.5 1339.5 c 128,-1,15
 218 1286 218 1286 218 1216 c 1,16,-1
 66 1216 l 1,17,-1
 66 1239 l 1,18,19
 76 1745 76 1745 487 1745 c 0,20,21
 677 1745 677 1745 773 1619.5 c 128,-1,22
 869 1494 869 1494 869 1273 c 0,23,24
 869 1168 869 1168 810.5 1036.5 c 128,-1,25
 752 905 752 905 675 793 c 1,26,-1
 242 122 l 1,27,-1
 848 122 l 1,28,-1
 848 0 l 1,29,-1
 63 0 l 1,0,-1
EndSplineSet
EndChar

StartChar: three
Encoding: 51 51 22
Width: 932
Flags: W
LayerCount: 2
Fore
SplineSet
74 395 m 2,0,-1
 74 421 l 1,1,-1
 216 421 l 1,2,3
 218 320 218 320 234.5 255 c 128,-1,4
 251 190 251 190 285 155 c 128,-1,5
 319 120 319 120 361.5 107.5 c 128,-1,6
 404 95 404 95 468 95 c 0,7,8
 526 95 526 95 566.5 111 c 128,-1,9
 607 127 607 127 638.5 166.5 c 128,-1,10
 670 206 670 206 685 278.5 c 128,-1,11
 700 351 700 351 700 459 c 0,12,13
 700 544 700 544 687.5 609.5 c 128,-1,14
 675 675 675 675 646.5 728 c 128,-1,15
 618 781 618 781 567 811.5 c 128,-1,16
 516 842 516 842 444 848 c 1,17,-1
 444 977 l 1,18,19
 588 983 588 983 644 1058.5 c 128,-1,20
 700 1134 700 1134 700 1317 c 0,21,22
 700 1484 700 1484 643 1553.5 c 128,-1,23
 586 1623 586 1623 469 1623 c 0,24,25
 351 1623 351 1623 287.5 1545 c 128,-1,26
 224 1467 224 1467 216 1292 c 1,27,-1
 73 1292 l 1,28,-1
 73 1317 l 2,29,30
 73 1403 73 1403 94 1477 c 128,-1,31
 115 1551 115 1551 160 1612.5 c 128,-1,32
 205 1674 205 1674 284.5 1709.5 c 128,-1,33
 364 1745 364 1745 472 1745 c 0,34,35
 553 1745 553 1745 618 1721.5 c 128,-1,36
 683 1698 683 1698 726 1658 c 128,-1,37
 769 1618 769 1618 798 1562.5 c 128,-1,38
 827 1507 827 1507 839.5 1446 c 128,-1,39
 852 1385 852 1385 852 1316 c 0,40,41
 852 1150 852 1150 786 1045 c 128,-1,42
 720 940 720 940 617 910 c 1,43,44
 852 816 852 816 852 462 c 0,45,46
 852 -27 852 -27 454 -27 c 0,47,48
 372 -27 372 -27 306.5 -3.5 c 128,-1,49
 241 20 241 20 198 59.5 c 128,-1,50
 155 99 155 99 126.5 154 c 128,-1,51
 98 209 98 209 86 268.5 c 128,-1,52
 74 328 74 328 74 395 c 2,0,-1
EndSplineSet
EndChar

StartChar: four
Encoding: 52 52 23
Width: 848
Flags: W
LayerCount: 2
Fore
SplineSet
186 622 m 1,0,-1
 505 622 l 1,1,-1
 504 1596 l 1,2,-1
 186 622 l 1,0,-1
505 0 m 1,3,-1
 505 509 l 1,4,-1
 27 509 l 1,5,-1
 27 614 l 1,6,-1
 424 1723 l 1,7,-1
 657 1723 l 1,8,-1
 657 622 l 1,9,-1
 828 622 l 1,10,-1
 828 509 l 1,11,-1
 657 509 l 1,12,-1
 657 0 l 1,13,-1
 505 0 l 1,3,-1
EndSplineSet
EndChar

StartChar: five
Encoding: 53 53 24
Width: 948
Flags: W
LayerCount: 2
Fore
SplineSet
123 430 m 1,0,-1
 275 441 l 1,1,2
 275 335 275 335 288.5 266.5 c 128,-1,3
 302 198 302 198 332 160.5 c 128,-1,4
 362 123 362 123 401.5 109 c 128,-1,5
 441 95 441 95 501 95 c 0,6,7
 623 95 623 95 680 195.5 c 128,-1,8
 737 296 737 296 737 535 c 0,9,10
 737 764 737 764 683.5 859 c 128,-1,11
 630 954 630 954 510 954 c 0,12,13
 445 954 445 954 377.5 919 c 128,-1,14
 310 884 310 884 264 814 c 1,15,-1
 142 814 l 1,16,-1
 142 1721 l 1,17,-1
 801 1721 l 1,18,-1
 787 1599 l 1,19,-1
 294 1599 l 1,20,-1
 273 966 l 1,21,22
 320 1016 320 1016 391.5 1046 c 128,-1,23
 463 1076 463 1076 540 1076 c 0,24,25
 634 1076 634 1076 703 1034.5 c 128,-1,26
 772 993 772 993 812 917 c 128,-1,27
 852 841 852 841 870.5 746.5 c 128,-1,28
 889 652 889 652 889 536 c 0,29,30
 889 415 889 415 867 315.5 c 128,-1,31
 845 216 845 216 800.5 138 c 128,-1,32
 756 60 756 60 679.5 16.5 c 128,-1,33
 603 -27 603 -27 501 -27 c 0,34,35
 303 -27 303 -27 213 89 c 128,-1,36
 123 205 123 205 123 430 c 1,0,-1
EndSplineSet
EndChar

StartChar: six
Encoding: 54 54 25
Width: 979
Flags: W
LayerCount: 2
Fore
SplineSet
266 811 m 1,0,-1
 266 501 l 2,1,2
 266 402 266 402 275.5 331 c 128,-1,3
 285 260 285 260 303 214 c 128,-1,4
 321 168 321 168 351 142 c 128,-1,5
 381 116 381 116 416.5 105.5 c 128,-1,6
 452 95 452 95 502 95 c 0,7,8
 636 95 636 95 697 181 c 128,-1,9
 758 267 758 267 758 481 c 0,10,11
 758 689 758 689 699 773 c 128,-1,12
 640 857 640 857 512 857 c 0,13,14
 442 857 442 857 369.5 844.5 c 128,-1,15
 297 832 297 832 266 811 c 1,0,-1
114 490 m 2,16,-1
 114 1256 l 2,17,18
 114 1745 114 1745 502 1745 c 0,19,20
 601 1745 601 1745 675 1710 c 128,-1,21
 749 1675 749 1675 790.5 1613.5 c 128,-1,22
 832 1552 832 1552 852 1479.5 c 128,-1,23
 872 1407 872 1407 872 1323 c 2,24,-1
 872 1297 l 1,25,-1
 730 1297 l 1,26,27
 728 1398 728 1398 712 1463 c 128,-1,28
 696 1528 696 1528 663.5 1563 c 128,-1,29
 631 1598 631 1598 590.5 1610.5 c 128,-1,30
 550 1623 550 1623 488 1623 c 0,31,32
 432 1623 432 1623 393.5 1607 c 128,-1,33
 355 1591 355 1591 325 1551.5 c 128,-1,34
 295 1512 295 1512 280.5 1439.5 c 128,-1,35
 266 1367 266 1367 266 1259 c 2,36,-1
 266 934 l 1,37,38
 361 979 361 979 512 979 c 0,39,40
 617 979 617 979 695 941.5 c 128,-1,41
 773 904 773 904 819 835 c 128,-1,42
 865 766 865 766 887.5 678 c 128,-1,43
 910 590 910 590 910 482 c 0,44,45
 910 371 910 371 887 280.5 c 128,-1,46
 864 190 864 190 816.5 120 c 128,-1,47
 769 50 769 50 689 11.5 c 128,-1,48
 609 -27 609 -27 502 -27 c 0,49,50
 299 -27 299 -27 206.5 105 c 128,-1,51
 114 237 114 237 114 490 c 2,16,-1
EndSplineSet
EndChar

StartChar: seven
Encoding: 55 55 26
Width: 691
Flags: W
LayerCount: 2
Fore
SplineSet
156 0 m 1,0,-1
 484 1585 l 1,1,-1
 1 1585 l 1,2,-1
 1 1721 l 1,3,-1
 647 1721 l 1,4,-1
 647 1645 l 1,5,6
 572 1260 572 1260 479 813.5 c 128,-1,7
 386 367 386 367 314 0 c 1,8,-1
 156 0 l 1,0,-1
EndSplineSet
EndChar

StartChar: eight
Encoding: 56 56 27
Width: 954
Flags: W
LayerCount: 2
Fore
SplineSet
477 977 m 1,0,1
 615 985 615 985 669 1061 c 128,-1,2
 723 1137 723 1137 723 1317 c 0,3,4
 723 1485 723 1485 664 1554 c 128,-1,5
 605 1623 605 1623 477 1623 c 128,-1,6
 349 1623 349 1623 290 1554 c 128,-1,7
 231 1485 231 1485 231 1317 c 0,8,9
 231 1137 231 1137 285 1061 c 128,-1,10
 339 985 339 985 477 977 c 1,0,1
477 847 m 1,11,12
 343 832 343 832 287 732 c 128,-1,13
 231 632 231 632 231 459 c 0,14,15
 231 350 231 350 246.5 278 c 128,-1,16
 262 206 262 206 294.5 166.5 c 128,-1,17
 327 127 327 127 370.5 111 c 128,-1,18
 414 95 414 95 477 95 c 128,-1,19
 540 95 540 95 583.5 111 c 128,-1,20
 627 127 627 127 659.5 166.5 c 128,-1,21
 692 206 692 206 707.5 278 c 128,-1,22
 723 350 723 350 723 459 c 0,23,24
 723 632 723 632 667 732 c 128,-1,25
 611 832 611 832 477 847 c 1,11,12
314 910 m 1,26,27
 211 940 211 940 145 1045 c 128,-1,28
 79 1150 79 1150 79 1316 c 0,29,30
 79 1409 79 1409 101.5 1485 c 128,-1,31
 124 1561 124 1561 170 1620 c 128,-1,32
 216 1679 216 1679 294 1712 c 128,-1,33
 372 1745 372 1745 477 1745 c 128,-1,34
 582 1745 582 1745 660 1712 c 128,-1,35
 738 1679 738 1679 784 1620 c 128,-1,36
 830 1561 830 1561 852.5 1485 c 128,-1,37
 875 1409 875 1409 875 1316 c 0,38,39
 875 1150 875 1150 809 1045 c 128,-1,40
 743 940 743 940 640 910 c 1,41,42
 875 816 875 816 875 462 c 0,43,44
 875 -27 875 -27 477 -27 c 128,-1,45
 79 -27 79 -27 79 462 c 0,46,47
 79 816 79 816 314 910 c 1,26,27
EndSplineSet
EndChar

StartChar: nine
Encoding: 57 57 28
Width: 990
Flags: W
LayerCount: 2
Fore
SplineSet
724 907 m 1,0,-1
 724 1217 l 2,1,2
 724 1316 724 1316 714.5 1387 c 128,-1,3
 705 1458 705 1458 687 1504 c 128,-1,4
 669 1550 669 1550 639 1576 c 128,-1,5
 609 1602 609 1602 573.5 1612.5 c 128,-1,6
 538 1623 538 1623 488 1623 c 0,7,8
 354 1623 354 1623 293 1537 c 128,-1,9
 232 1451 232 1451 232 1237 c 0,10,11
 232 1029 232 1029 291 945 c 128,-1,12
 350 861 350 861 478 861 c 0,13,14
 548 861 548 861 620.5 873.5 c 128,-1,15
 693 886 693 886 724 907 c 1,0,-1
118 395 m 2,16,-1
 118 421 l 1,17,-1
 260 421 l 1,18,19
 262 320 262 320 278 255 c 128,-1,20
 294 190 294 190 326.5 155 c 128,-1,21
 359 120 359 120 399.5 107.5 c 128,-1,22
 440 95 440 95 502 95 c 0,23,24
 558 95 558 95 596.5 111 c 128,-1,25
 635 127 635 127 665 166.5 c 128,-1,26
 695 206 695 206 709.5 278.5 c 128,-1,27
 724 351 724 351 724 459 c 2,28,-1
 724 784 l 1,29,30
 629 739 629 739 478 739 c 0,31,32
 373 739 373 739 295 776.5 c 128,-1,33
 217 814 217 814 171 883 c 128,-1,34
 125 952 125 952 102.5 1040 c 128,-1,35
 80 1128 80 1128 80 1236 c 0,36,37
 80 1347 80 1347 103 1437.5 c 128,-1,38
 126 1528 126 1528 173.5 1598 c 128,-1,39
 221 1668 221 1668 301 1706.5 c 128,-1,40
 381 1745 381 1745 488 1745 c 0,41,42
 691 1745 691 1745 783.5 1613 c 128,-1,43
 876 1481 876 1481 876 1228 c 2,44,-1
 876 462 l 2,45,46
 876 -27 876 -27 488 -27 c 0,47,48
 389 -27 389 -27 315 8 c 128,-1,49
 241 43 241 43 199.5 104.5 c 128,-1,50
 158 166 158 166 138 238.5 c 128,-1,51
 118 311 118 311 118 395 c 2,16,-1
EndSplineSet
EndChar

StartChar: colon
Encoding: 58 58 29
Width: 426
Flags: W
LayerCount: 2
Fore
SplineSet
125 275 m 1,0,-1
 125 454 l 1,1,-1
 310 454 l 1,2,-1
 310 275 l 1,3,-1
 125 275 l 1,0,-1
125 813 m 1,4,-1
 125 992 l 1,5,-1
 310 992 l 1,6,-1
 310 813 l 1,7,-1
 125 813 l 1,4,-1
EndSplineSet
EndChar

StartChar: semicolon
Encoding: 59 59 30
Width: 422
Flags: W
LayerCount: 2
Fore
SplineSet
173 0 m 1,0,-1
 147 55 l 1,1,2
 206 77 206 77 229.5 138.5 c 128,-1,3
 253 200 253 200 253 256 c 1,4,-1
 125 256 l 1,5,-1
 125 435 l 1,6,-1
 309 435 l 1,7,8
 309 415 309 415 308 376 c 0,9,10
 307 324 307 324 306.5 299 c 128,-1,11
 306 274 306 274 304 231 c 128,-1,12
 302 188 302 188 298 167 c 128,-1,13
 294 146 294 146 287.5 115 c 128,-1,14
 281 84 281 84 271.5 68.5 c 128,-1,15
 262 53 262 53 248.5 36 c 128,-1,16
 235 19 235 19 216 11 c 128,-1,17
 197 3 197 3 173 0 c 1,0,-1
125 813 m 1,18,-1
 125 992 l 1,19,-1
 309 992 l 1,20,-1
 309 813 l 1,21,-1
 125 813 l 1,18,-1
EndSplineSet
EndChar

StartChar: less
Encoding: 60 60 31
Width: 727
Flags: W
LayerCount: 2
Fore
SplineSet
76 494 m 1,0,-1
 76 709 l 1,1,-1
 645 1107 l 1,2,-1
 645 942 l 1,3,-1
 168 603 l 1,4,5
 264 534 264 534 402 435.5 c 128,-1,6
 540 337 540 337 645 261 c 1,7,-1
 645 94 l 1,8,9
 219 392 219 392 76 494 c 1,0,-1
EndSplineSet
EndChar

StartChar: equal
Encoding: 61 61 32
Width: 750
Flags: W
LayerCount: 2
Fore
SplineSet
127 255 m 1,0,-1
 127 370 l 1,1,-1
 632 370 l 1,2,-1
 632 255 l 1,3,-1
 127 255 l 1,0,-1
127 576 m 1,4,-1
 127 691 l 1,5,-1
 632 691 l 1,6,-1
 632 576 l 1,7,-1
 127 576 l 1,4,-1
EndSplineSet
EndChar

StartChar: greater
Encoding: 62 62 33
Width: 727
Flags: W
LayerCount: 2
Fore
SplineSet
102 94 m 1,0,-1
 102 261 l 1,1,-1
 579 603 l 1,2,3
 474 677 474 677 102 942 c 1,4,-1
 102 1109 l 1,5,6
 526 809 526 809 671 709 c 1,7,-1
 671 494 l 1,8,-1
 102 94 l 1,0,-1
EndSplineSet
EndChar

StartChar: question
Encoding: 63 63 34
Width: 868
Flags: W
LayerCount: 2
Fore
SplineSet
275 1 m 1,0,-1
 275 180 l 1,1,-1
 459 180 l 1,2,-1
 459 1 l 1,3,-1
 275 1 l 1,0,-1
300 452 m 1,4,-1
 300 793 l 1,5,6
 401 851 401 851 476 916 c 128,-1,7
 551 981 551 981 591 1035 c 128,-1,8
 631 1089 631 1089 655 1146 c 128,-1,9
 679 1203 679 1203 685.5 1241 c 128,-1,10
 692 1279 692 1279 692 1317 c 0,11,12
 692 1398 692 1398 671 1459 c 128,-1,13
 650 1520 650 1520 613.5 1555 c 128,-1,14
 577 1590 577 1590 533 1607 c 128,-1,15
 489 1624 489 1624 439 1624 c 0,16,17
 321 1624 321 1624 245 1544.5 c 128,-1,18
 169 1465 169 1465 168 1321 c 2,19,-1
 167 1179 l 1,20,-1
 33 1179 l 1,21,-1
 33 1325 l 2,22,23
 33 1424 33 1424 68 1506 c 128,-1,24
 103 1588 103 1588 160.5 1639.5 c 128,-1,25
 218 1691 218 1691 290 1718.5 c 128,-1,26
 362 1746 362 1746 439 1746 c 0,27,28
 514 1746 514 1746 583 1719.5 c 128,-1,29
 652 1693 652 1693 707.5 1642 c 128,-1,30
 763 1591 763 1591 796 1507.5 c 128,-1,31
 829 1424 829 1424 829 1319 c 0,32,33
 829 1139 829 1139 730.5 999 c 128,-1,34
 632 859 632 859 434 736 c 1,35,-1
 434 452 l 1,36,-1
 300 452 l 1,4,-1
EndSplineSet
EndChar

StartChar: at
Encoding: 64 64 35
Width: 1434
Flags: W
LayerCount: 2
Fore
SplineSet
834 644 m 1,0,-1
 834 1121 l 1,1,2
 758 1174 758 1174 702 1174 c 0,3,4
 655 1174 655 1174 625 1126.5 c 128,-1,5
 595 1079 595 1079 583.5 1007.5 c 128,-1,6
 572 936 572 936 572 840 c 0,7,8
 572 694 572 694 600.5 627.5 c 128,-1,9
 629 561 629 561 687 561 c 0,10,11
 739 561 739 561 770.5 582 c 128,-1,12
 802 603 802 603 834 644 c 1,0,-1
1091 198 m 2,13,-1
 1116 80 l 1,14,15
 930 40 930 40 785 40 c 0,16,17
 656 40 656 40 550.5 66 c 128,-1,18
 445 92 445 92 354.5 153 c 128,-1,19
 264 214 264 214 202.5 308 c 128,-1,20
 141 402 141 402 106.5 543.5 c 128,-1,21
 72 685 72 685 72 868 c 0,22,23
 72 1059 72 1059 124 1213 c 128,-1,24
 176 1367 176 1367 266.5 1465 c 128,-1,25
 357 1563 357 1563 474.5 1615 c 128,-1,26
 592 1667 592 1667 726 1667 c 0,27,28
 1032 1667 1032 1667 1201.5 1464.5 c 128,-1,29
 1371 1262 1371 1262 1371 888 c 0,30,31
 1371 794 1371 794 1355 718 c 128,-1,32
 1339 642 1339 642 1312.5 592 c 128,-1,33
 1286 542 1286 542 1250 508.5 c 128,-1,34
 1214 475 1214 475 1175 460.5 c 128,-1,35
 1136 446 1136 446 1094 446 c 0,36,37
 1018 446 1018 446 952.5 490 c 128,-1,38
 887 534 887 534 864 603 c 1,39,40
 852 547 852 547 818 511 c 128,-1,41
 784 475 784 475 742.5 461 c 128,-1,42
 701 447 701 447 651 447 c 0,43,44
 596 447 596 447 553 477 c 128,-1,45
 510 507 510 507 486 550.5 c 128,-1,46
 462 594 462 594 446.5 651 c 128,-1,47
 431 708 431 708 426 753 c 128,-1,48
 421 798 421 798 421 839 c 0,49,50
 421 1056 421 1056 487 1168 c 128,-1,51
 553 1280 553 1280 653 1280 c 0,52,53
 747 1280 747 1280 834 1204 c 1,54,-1
 834 1274 l 1,55,-1
 986 1274 l 1,56,-1
 986 714 l 2,57,58
 986 561 986 561 1090 561 c 0,59,60
 1219 561 1219 561 1219 881 c 0,61,62
 1219 1037 1219 1037 1195 1154.5 c 128,-1,63
 1171 1272 1171 1272 1130 1346 c 128,-1,64
 1089 1420 1089 1420 1025.5 1465.5 c 128,-1,65
 962 1511 962 1511 891.5 1528.5 c 128,-1,66
 821 1546 821 1546 730 1546 c 0,67,68
 695 1546 695 1546 661.5 1542.5 c 128,-1,69
 628 1539 628 1539 575 1523 c 128,-1,70
 522 1507 522 1507 477 1480.5 c 128,-1,71
 432 1454 432 1454 383.5 1402.5 c 128,-1,72
 335 1351 335 1351 301.5 1281.5 c 128,-1,73
 268 1212 268 1212 246 1104.5 c 128,-1,74
 224 997 224 997 224 864 c 0,75,76
 224 693 224 693 257.5 564 c 128,-1,77
 291 435 291 435 343.5 359.5 c 128,-1,78
 396 284 396 284 471.5 237.5 c 128,-1,79
 547 191 547 191 620 175 c 128,-1,80
 693 159 693 159 780 159 c 0,81,82
 814 159 814 159 848 161 c 128,-1,83
 882 163 882 163 922 169 c 128,-1,84
 962 175 962 175 979.5 177.5 c 128,-1,85
 997 180 997 180 1043.5 189 c 128,-1,86
 1090 198 1090 198 1091 198 c 2,13,-1
EndSplineSet
EndChar

StartChar: A
Encoding: 65 65 36
Width: 972
Flags: W
LayerCount: 2
Fore
SplineSet
306 549 m 1,0,-1
 666 549 l 1,1,-1
 485 1563 l 1,2,-1
 306 549 l 1,0,-1
200 0 m 1,3,-1
 47 0 l 1,4,-1
 387 1721 l 1,5,-1
 585 1721 l 1,6,-1
 925 0 l 1,7,-1
 771 0 l 1,8,-1
 685 448 l 1,9,-1
 288 448 l 1,10,-1
 200 0 l 1,3,-1
EndSplineSet
EndChar

StartChar: B
Encoding: 66 66 37
Width: 1012
Flags: W
LayerCount: 2
Fore
SplineSet
298 982 m 1,0,-1
 542 982 l 2,1,2
 598 982 598 982 638 1006.5 c 128,-1,3
 678 1031 678 1031 700 1074.5 c 128,-1,4
 722 1118 722 1118 732 1169 c 128,-1,5
 742 1220 742 1220 742 1281 c 0,6,7
 742 1605 742 1605 496 1605 c 2,8,-1
 298 1605 l 1,9,-1
 298 982 l 1,0,-1
298 116 m 1,10,-1
 570 116 l 2,11,12
 622 116 622 116 661 137.5 c 128,-1,13
 700 159 700 159 724 194 c 128,-1,14
 748 229 748 229 762.5 282 c 128,-1,15
 777 335 777 335 782.5 390 c 128,-1,16
 788 445 788 445 788 513 c 0,17,18
 788 574 788 574 783 622 c 128,-1,19
 778 670 778 670 763.5 717 c 128,-1,20
 749 764 749 764 725.5 795.5 c 128,-1,21
 702 827 702 827 662.5 846 c 128,-1,22
 623 865 623 865 570 865 c 2,23,-1
 298 865 l 1,24,-1
 298 116 l 1,10,-1
146 0 m 1,25,-1
 146 1721 l 1,26,-1
 516 1721 l 2,27,28
 605 1721 605 1721 674 1696 c 128,-1,29
 743 1671 743 1671 786 1630 c 128,-1,30
 829 1589 829 1589 856.5 1531 c 128,-1,31
 884 1473 884 1473 894.5 1413 c 128,-1,32
 905 1353 905 1353 905 1284 c 0,33,34
 905 1177 905 1177 855.5 1075 c 128,-1,35
 806 973 806 973 719 933 c 1,36,37
 780 908 780 908 825 859.5 c 128,-1,38
 870 811 870 811 894 751 c 128,-1,39
 918 691 918 691 929 631.5 c 128,-1,40
 940 572 940 572 940 513 c 0,41,42
 940 423 940 423 931.5 354 c 128,-1,43
 923 285 923 285 897.5 215.5 c 128,-1,44
 872 146 872 146 830 101 c 128,-1,45
 788 56 788 56 716 28 c 128,-1,46
 644 0 644 0 546 0 c 2,47,-1
 146 0 l 1,25,-1
EndSplineSet
EndChar

StartChar: C
Encoding: 67 67 38
Width: 1032
Flags: W
LayerCount: 2
Fore
SplineSet
114 499 m 2,0,-1
 114 1220 l 2,1,2
 114 1312 114 1312 126 1387 c 128,-1,3
 138 1462 138 1462 168.5 1530 c 128,-1,4
 199 1598 199 1598 247 1644.5 c 128,-1,5
 295 1691 295 1691 369.5 1718 c 128,-1,6
 444 1745 444 1745 542 1745 c 0,7,8
 946 1745 946 1745 946 1220 c 2,9,-1
 946 1150 l 1,10,-1
 801 1150 l 1,11,-1
 801 1254 l 2,12,13
 801 1337 801 1337 788.5 1401 c 128,-1,14
 776 1465 776 1465 747 1516.5 c 128,-1,15
 718 1568 718 1568 666.5 1595.5 c 128,-1,16
 615 1623 615 1623 542 1623 c 0,17,18
 476 1623 476 1623 427 1604.5 c 128,-1,19
 378 1586 378 1586 347.5 1554 c 128,-1,20
 317 1522 317 1522 298.5 1474 c 128,-1,21
 280 1426 280 1426 273 1373.5 c 128,-1,22
 266 1321 266 1321 266 1254 c 2,23,-1
 266 465 l 2,24,25
 266 380 266 380 278 317.5 c 128,-1,26
 290 255 290 255 319.5 202.5 c 128,-1,27
 349 150 349 150 405 122.5 c 128,-1,28
 461 95 461 95 542 95 c 0,29,30
 615 95 615 95 666.5 122.5 c 128,-1,31
 718 150 718 150 747 202 c 128,-1,32
 776 254 776 254 788.5 318 c 128,-1,33
 801 382 801 382 801 465 c 2,34,-1
 801 583 l 1,35,-1
 946 583 l 1,36,-1
 946 499 l 2,37,38
 946 408 946 408 935 333 c 128,-1,39
 924 258 924 258 895.5 189.5 c 128,-1,40
 867 121 867 121 822 74.5 c 128,-1,41
 777 28 777 28 706 0.5 c 128,-1,42
 635 -27 635 -27 542 -27 c 0,43,44
 442 -27 442 -27 366.5 0.5 c 128,-1,45
 291 28 291 28 243.5 74.5 c 128,-1,46
 196 121 196 121 166.5 189.5 c 128,-1,47
 137 258 137 258 125.5 332.5 c 128,-1,48
 114 407 114 407 114 499 c 2,0,-1
EndSplineSet
EndChar

StartChar: D
Encoding: 68 68 39
Width: 1086
Flags: W
LayerCount: 2
Fore
SplineSet
146 0 m 1,0,-1
 146 1721 l 1,1,-1
 533 1721 l 2,2,3
 631 1721 631 1721 707 1694.5 c 128,-1,4
 783 1668 783 1668 832.5 1622.5 c 128,-1,5
 882 1577 882 1577 913.5 1511 c 128,-1,6
 945 1445 945 1445 958.5 1371 c 128,-1,7
 972 1297 972 1297 972 1208 c 2,8,-1
 972 508 l 2,9,10
 972 0 972 0 533 0 c 2,11,-1
 146 0 l 1,0,-1
298 122 m 1,12,-1
 533 122 l 2,13,14
 820 122 820 122 820 474 c 2,15,-1
 820 1242 l 2,16,17
 820 1599 820 1599 533 1599 c 2,18,-1
 298 1599 l 1,19,-1
 298 122 l 1,12,-1
EndSplineSet
EndChar

StartChar: E
Encoding: 69 69 40
Width: 795
Flags: W
LayerCount: 2
Fore
SplineSet
146 0 m 1,0,-1
 146 1721 l 1,1,-1
 746 1721 l 1,2,-1
 746 1599 l 1,3,-1
 298 1599 l 1,4,-1
 298 947 l 1,5,-1
 618 947 l 1,6,-1
 618 832 l 1,7,-1
 298 832 l 1,8,-1
 298 122 l 1,9,-1
 746 122 l 1,10,-1
 746 0 l 1,11,-1
 146 0 l 1,0,-1
EndSplineSet
EndChar

StartChar: F
Encoding: 70 70 41
Width: 736
Flags: W
LayerCount: 2
Fore
SplineSet
146 0 m 1,0,-1
 146 1721 l 1,1,-1
 751 1721 l 1,2,-1
 751 1599 l 1,3,-1
 298 1599 l 1,4,-1
 298 947 l 1,5,-1
 654 947 l 1,6,-1
 654 832 l 1,7,-1
 298 832 l 1,8,-1
 298 0 l 1,9,-1
 146 0 l 1,0,-1
EndSplineSet
EndChar

StartChar: G
Encoding: 71 71 42
Width: 1088
Flags: W
LayerCount: 2
Fore
SplineSet
114 481 m 2,0,-1
 114 1211 l 2,1,2
 114 1745 114 1745 567 1745 c 0,3,4
 639 1745 639 1745 697.5 1729 c 128,-1,5
 756 1713 756 1713 796.5 1685.5 c 128,-1,6
 837 1658 837 1658 867.5 1615 c 128,-1,7
 898 1572 898 1572 916 1526 c 128,-1,8
 934 1480 934 1480 945 1418.5 c 128,-1,9
 956 1357 956 1357 960 1299.5 c 128,-1,10
 964 1242 964 1242 964 1171 c 2,11,-1
 964 1159 l 1,12,-1
 812 1159 l 1,13,-1
 812 1172 l 2,14,15
 812 1176 812 1176 812 1185 c 0,16,17
 812 1258 812 1258 810.5 1295.5 c 128,-1,18
 809 1333 809 1333 803 1394.5 c 128,-1,19
 797 1456 797 1456 781 1488.5 c 128,-1,20
 765 1521 765 1521 739 1556.5 c 128,-1,21
 713 1592 713 1592 669 1607.5 c 128,-1,22
 625 1623 625 1623 565 1623 c 0,23,24
 481 1623 481 1623 421 1594.5 c 128,-1,25
 361 1566 361 1566 328 1515 c 128,-1,26
 295 1464 295 1464 280.5 1405 c 128,-1,27
 266 1346 266 1346 266 1275 c 2,28,-1
 266 415 l 2,29,30
 266 349 266 349 278 296.5 c 128,-1,31
 290 244 290 244 319.5 196 c 128,-1,32
 349 148 349 148 408 121.5 c 128,-1,33
 467 95 467 95 553 95 c 0,34,35
 632 95 632 95 688 123 c 128,-1,36
 744 151 744 151 772 199.5 c 128,-1,37
 800 248 800 248 811.5 300 c 128,-1,38
 823 352 823 352 823 415 c 2,39,-1
 823 706 l 1,40,-1
 612 706 l 1,41,-1
 612 821 l 1,42,-1
 975 821 l 1,43,-1
 975 0 l 1,44,-1
 908 0 l 1,45,-1
 863 168 l 1,46,47
 829 79 829 79 742.5 26 c 128,-1,48
 656 -27 656 -27 551 -27 c 0,49,50
 482 -27 482 -27 424.5 -14.5 c 128,-1,51
 367 -2 367 -2 325 18 c 128,-1,52
 283 38 283 38 249.5 69.5 c 128,-1,53
 216 101 216 101 194.5 132 c 128,-1,54
 173 163 173 163 157 204 c 128,-1,55
 141 245 141 245 133 278 c 128,-1,56
 125 311 125 311 120.5 353 c 128,-1,57
 116 395 116 395 115 421 c 128,-1,58
 114 447 114 447 114 481 c 2,0,-1
EndSplineSet
EndChar

StartChar: H
Encoding: 72 72 43
Width: 1126
Flags: W
LayerCount: 2
Fore
SplineSet
146 0 m 1,0,-1
 146 1721 l 1,1,-1
 298 1721 l 1,2,-1
 298 942 l 1,3,-1
 828 942 l 1,4,-1
 828 1721 l 1,5,-1
 980 1721 l 1,6,-1
 980 0 l 1,7,-1
 828 0 l 1,8,-1
 828 836 l 1,9,-1
 298 836 l 1,10,-1
 298 0 l 1,11,-1
 146 0 l 1,0,-1
EndSplineSet
EndChar

StartChar: I
Encoding: 73 73 44
Width: 444
Flags: W
LayerCount: 2
Fore
SplineSet
145 0 m 1,0,-1
 145 1721 l 1,1,-1
 297 1721 l 1,2,-1
 297 0 l 1,3,-1
 145 0 l 1,0,-1
EndSplineSet
EndChar

StartChar: J
Encoding: 74 74 45
Width: 566
Flags: W
LayerCount: 2
Fore
SplineSet
12 0 m 1,0,-1
 12 115 l 1,1,2
 63 115 63 115 91 115.5 c 128,-1,3
 119 116 119 116 150.5 121 c 128,-1,4
 182 126 182 126 196.5 132.5 c 128,-1,5
 211 139 211 139 227.5 156 c 128,-1,6
 244 173 244 173 249.5 191.5 c 128,-1,7
 255 210 255 210 260.5 244.5 c 128,-1,8
 266 279 266 279 267 315.5 c 128,-1,9
 268 352 268 352 268 410 c 2,10,-1
 268 1721 l 1,11,-1
 420 1721 l 1,12,-1
 420 410 l 2,13,14
 420 332 420 332 416.5 281 c 128,-1,15
 413 230 413 230 401.5 179 c 128,-1,16
 390 128 390 128 368 98.5 c 128,-1,17
 346 69 346 69 309.5 44.5 c 128,-1,18
 273 20 273 20 219 10 c 128,-1,19
 165 0 165 0 91 0 c 2,20,-1
 12 0 l 1,0,-1
EndSplineSet
EndChar

StartChar: K
Encoding: 75 75 46
Width: 981
Flags: W
LayerCount: 2
Fore
SplineSet
146 0 m 1,0,-1
 146 1721 l 1,1,-1
 298 1721 l 1,2,-1
 298 816 l 1,3,-1
 757 1721 l 1,4,-1
 914 1721 l 1,5,-1
 558 1011 l 1,6,-1
 995 0 l 1,7,-1
 834 0 l 1,8,-1
 466 909 l 1,9,-1
 298 607 l 1,10,-1
 298 0 l 1,11,-1
 146 0 l 1,0,-1
EndSplineSet
EndChar

StartChar: L
Encoding: 76 76 47
Width: 772
Flags: W
LayerCount: 2
Fore
SplineSet
146 0 m 1,0,-1
 146 1721 l 1,1,-1
 298 1721 l 1,2,-1
 298 122 l 1,3,-1
 779 122 l 1,4,-1
 779 0 l 1,5,-1
 146 0 l 1,0,-1
EndSplineSet
EndChar

StartChar: M
Encoding: 77 77 48
Width: 1330
Flags: W
LayerCount: 2
Fore
SplineSet
146 0 m 1,0,-1
 146 1721 l 1,1,-1
 333 1721 l 1,2,-1
 665 235 l 1,3,4
 726 527 726 527 827 949.5 c 128,-1,5
 928 1372 928 1372 997 1721 c 1,6,-1
 1184 1721 l 1,7,-1
 1184 0 l 1,8,-1
 1049 0 l 1,9,-1
 1049 1377 l 1,10,-1
 731 0 l 1,11,-1
 599 0 l 1,12,-1
 281 1376 l 1,13,-1
 281 0 l 1,14,-1
 146 0 l 1,0,-1
EndSplineSet
EndChar

StartChar: N
Encoding: 78 78 49
Width: 1083
Flags: W
LayerCount: 2
Fore
SplineSet
146 0 m 1,0,-1
 146 1721 l 1,1,-1
 263 1721 l 1,2,-1
 808 358 l 1,3,-1
 808 1721 l 1,4,-1
 937 1721 l 1,5,-1
 937 0 l 1,6,-1
 823 0 l 1,7,-1
 277 1334 l 1,8,-1
 277 0 l 1,9,-1
 146 0 l 1,0,-1
EndSplineSet
EndChar

StartChar: O
Encoding: 79 79 50
Width: 1106
Flags: W
LayerCount: 2
Fore
SplineSet
114 499 m 2,0,-1
 114 1220 l 2,1,2
 114 1311 114 1311 127.5 1387 c 128,-1,3
 141 1463 141 1463 173 1530.5 c 128,-1,4
 205 1598 205 1598 254 1644.5 c 128,-1,5
 303 1691 303 1691 379 1718 c 128,-1,6
 455 1745 455 1745 553 1745 c 128,-1,7
 651 1745 651 1745 727 1718 c 128,-1,8
 803 1691 803 1691 852 1644.5 c 128,-1,9
 901 1598 901 1598 933 1530.5 c 128,-1,10
 965 1463 965 1463 978.5 1387 c 128,-1,11
 992 1311 992 1311 992 1220 c 2,12,-1
 992 499 l 2,13,14
 992 -27 992 -27 553 -27 c 128,-1,15
 114 -27 114 -27 114 499 c 2,0,-1
840 465 m 2,16,-1
 840 1254 l 2,17,18
 840 1623 840 1623 553 1623 c 128,-1,19
 266 1623 266 1623 266 1254 c 2,20,-1
 266 465 l 2,21,22
 266 95 266 95 553 95 c 128,-1,23
 840 95 840 95 840 465 c 2,16,-1
EndSplineSet
EndChar

StartChar: P
Encoding: 80 80 51
Width: 1004
Flags: W
LayerCount: 2
Fore
SplineSet
298 887 m 1,0,-1
 584 886 l 2,1,2
 712 885 712 885 767 974.5 c 128,-1,3
 822 1064 822 1064 822 1255 c 0,4,5
 822 1433 822 1433 763 1516 c 128,-1,6
 704 1599 704 1599 584 1599 c 2,7,-1
 298 1599 l 1,8,-1
 298 887 l 1,0,-1
146 0 m 1,9,-1
 146 1721 l 1,10,-1
 567 1721 l 2,11,12
 657 1721 657 1721 727 1696.5 c 128,-1,13
 797 1672 797 1672 843 1630 c 128,-1,14
 889 1588 889 1588 919 1528 c 128,-1,15
 949 1468 949 1468 961.5 1401.5 c 128,-1,16
 974 1335 974 1335 974 1258 c 0,17,18
 974 1179 974 1179 963.5 1112 c 128,-1,19
 953 1045 953 1045 924.5 979 c 128,-1,20
 896 913 896 913 851.5 867.5 c 128,-1,21
 807 822 807 822 734 793.5 c 128,-1,22
 661 765 661 765 566 765 c 2,23,-1
 298 765 l 1,24,-1
 298 0 l 1,25,-1
 146 0 l 1,9,-1
EndSplineSet
EndChar

StartChar: Q
Encoding: 81 81 52
Width: 1113
Flags: W
LayerCount: 2
Fore
SplineSet
840 465 m 2,0,-1
 840 1254 l 2,1,2
 840 1623 840 1623 553 1623 c 128,-1,3
 266 1623 266 1623 266 1254 c 2,4,-1
 266 465 l 2,5,6
 266 95 266 95 553 95 c 128,-1,7
 840 95 840 95 840 465 c 2,0,-1
114 499 m 2,8,-1
 114 1220 l 2,9,10
 114 1311 114 1311 127.5 1387 c 128,-1,11
 141 1463 141 1463 173 1530.5 c 128,-1,12
 205 1598 205 1598 254 1644.5 c 128,-1,13
 303 1691 303 1691 379 1718 c 128,-1,14
 455 1745 455 1745 553 1745 c 128,-1,15
 651 1745 651 1745 727 1718 c 128,-1,16
 803 1691 803 1691 852 1644.5 c 128,-1,17
 901 1598 901 1598 933 1530.5 c 128,-1,18
 965 1463 965 1463 978.5 1387 c 128,-1,19
 992 1311 992 1311 992 1220 c 2,20,-1
 992 499 l 2,21,22
 992 139 992 139 787 25 c 1,23,24
 825 -9 825 -9 850 -29 c 128,-1,25
 875 -49 875 -49 916.5 -70.5 c 128,-1,26
 958 -92 958 -92 999 -98 c 1,27,-1
 999 -212 l 1,28,29
 916 -200 916 -200 842.5 -149 c 128,-1,30
 769 -98 769 -98 691 -11 c 1,31,32
 625 -27 625 -27 553 -27 c 0,33,34
 114 -27 114 -27 114 499 c 2,8,-1
EndSplineSet
EndChar

StartChar: R
Encoding: 82 82 53
Width: 1067
Flags: W
LayerCount: 2
Fore
SplineSet
298 962 m 1,0,-1
 604 962 l 2,1,2
 669 962 669 962 714 988 c 128,-1,3
 759 1014 759 1014 781.5 1062 c 128,-1,4
 804 1110 804 1110 813 1162 c 128,-1,5
 822 1214 822 1214 822 1281 c 0,6,7
 822 1336 822 1336 816.5 1380 c 128,-1,8
 811 1424 811 1424 796.5 1466 c 128,-1,9
 782 1508 782 1508 758 1536.5 c 128,-1,10
 734 1565 734 1565 695 1582 c 128,-1,11
 656 1599 656 1599 604 1599 c 2,12,-1
 298 1599 l 1,13,-1
 298 962 l 1,0,-1
146 0 m 1,14,-1
 146 1721 l 1,15,-1
 605 1721 l 2,16,17
 692 1721 692 1721 758 1697 c 128,-1,18
 824 1673 824 1673 864.5 1633.5 c 128,-1,19
 905 1594 905 1594 930 1535.5 c 128,-1,20
 955 1477 955 1477 964.5 1414.5 c 128,-1,21
 974 1352 974 1352 974 1276 c 0,22,23
 974 947 974 947 734 859 c 1,24,-1
 1000 0 l 1,25,-1
 838 0 l 1,26,-1
 587 840 l 1,27,-1
 298 840 l 1,28,-1
 298 0 l 1,29,-1
 146 0 l 1,14,-1
EndSplineSet
EndChar

StartChar: S
Encoding: 83 83 54
Width: 948
Flags: W
LayerCount: 2
Fore
SplineSet
68 415 m 1,0,-1
 202 454 l 1,1,2
 210 382 210 382 230.5 321 c 128,-1,3
 251 260 251 260 286 207.5 c 128,-1,4
 321 155 321 155 378.5 125 c 128,-1,5
 436 95 436 95 509 95 c 0,6,7
 626 95 626 95 690 160 c 128,-1,8
 754 225 754 225 754 344 c 0,9,10
 754 443 754 443 695.5 535 c 128,-1,11
 637 627 637 627 523 747 c 2,12,-1
 254 1030 l 2,13,14
 166 1123 166 1123 119 1204 c 128,-1,15
 72 1285 72 1285 72 1374 c 0,16,17
 72 1543 72 1543 183 1644 c 128,-1,18
 294 1745 294 1745 468 1745 c 0,19,20
 637 1745 637 1745 740 1649.5 c 128,-1,21
 843 1554 843 1554 877 1372 c 2,22,-1
 880 1356 l 1,23,-1
 752 1316 l 1,24,-1
 750 1330 l 1,25,26
 730 1459 730 1459 657.5 1541 c 128,-1,27
 585 1623 585 1623 468 1623 c 0,28,29
 354 1623 354 1623 286.5 1565 c 128,-1,30
 219 1507 219 1507 219 1394 c 0,31,32
 219 1326 219 1326 255.5 1260 c 128,-1,33
 292 1194 292 1194 360 1120 c 2,34,-1
 613 845 l 2,35,36
 623 834 623 834 663 790.5 c 128,-1,37
 703 747 703 747 715.5 733 c 128,-1,38
 728 719 728 719 761.5 679 c 128,-1,39
 795 639 795 639 807.5 618.5 c 128,-1,40
 820 598 820 598 843 560.5 c 128,-1,41
 866 523 866 523 874.5 495 c 128,-1,42
 883 467 883 467 891 430 c 128,-1,43
 899 393 899 393 899 357 c 0,44,45
 899 173 899 173 785.5 73 c 128,-1,46
 672 -27 672 -27 492 -27 c 0,47,48
 400 -27 400 -27 325 8.5 c 128,-1,49
 250 44 250 44 198.5 106 c 128,-1,50
 147 168 147 168 114.5 246 c 128,-1,51
 82 324 82 324 68 415 c 1,0,-1
EndSplineSet
EndChar

StartChar: T
Encoding: 84 84 55
Width: 753
Flags: W
LayerCount: 2
Fore
SplineSet
299 0 m 1,0,-1
 299 1599 l 1,1,-1
 -36 1599 l 1,2,-1
 -36 1721 l 1,3,-1
 789 1721 l 1,4,-1
 789 1599 l 1,5,-1
 451 1599 l 1,6,-1
 451 0 l 1,7,-1
 299 0 l 1,0,-1
EndSplineSet
EndChar

StartChar: U
Encoding: 85 85 56
Width: 1132
Flags: W
LayerCount: 2
Fore
SplineSet
120 423 m 2,0,-1
 120 1721 l 1,1,-1
 272 1721 l 1,2,-1
 272 388 l 2,3,4
 272 240 272 240 339 167.5 c 128,-1,5
 406 95 406 95 565 95 c 0,6,7
 715 95 715 95 779 168 c 128,-1,8
 843 241 843 241 843 388 c 2,9,-1
 843 1721 l 1,10,-1
 994 1721 l 1,11,-1
 994 423 l 2,12,13
 994 -27 994 -27 565 -27 c 0,14,15
 462 -27 462 -27 383.5 -3 c 128,-1,16
 305 21 305 21 255.5 61.5 c 128,-1,17
 206 102 206 102 175 160.5 c 128,-1,18
 144 219 144 219 132 282.5 c 128,-1,19
 120 346 120 346 120 423 c 2,0,-1
EndSplineSet
EndChar

StartChar: V
Encoding: 86 86 57
Width: 949
Flags: W
LayerCount: 2
Fore
SplineSet
382 0 m 1,0,-1
 12 1721 l 1,1,-1
 176 1721 l 1,2,-1
 481 180 l 1,3,-1
 773 1721 l 1,4,-1
 937 1721 l 1,5,-1
 581 0 l 1,6,-1
 382 0 l 1,0,-1
EndSplineSet
EndChar

StartChar: W
Encoding: 87 87 58
Width: 1416
Flags: W
LayerCount: 2
Fore
SplineSet
311 0 m 1,0,-1
 23 1721 l 1,1,-1
 165 1721 l 1,2,-1
 400 249 l 1,3,-1
 622 1721 l 1,4,-1
 815 1721 l 1,5,-1
 1018 249 l 1,6,-1
 1252 1721 l 1,7,-1
 1393 1721 l 1,8,-1
 1107 0 l 1,9,-1
 932 0 l 1,10,-1
 717 1520 l 1,11,-1
 485 0 l 1,12,-1
 311 0 l 1,0,-1
EndSplineSet
EndChar

StartChar: X
Encoding: 88 88 59
Width: 951
Flags: W
LayerCount: 2
Fore
SplineSet
30 0 m 1,0,-1
 397 866 l 1,1,-1
 30 1722 l 1,2,-1
 173 1722 l 1,3,-1
 475 998 l 1,4,-1
 768 1722 l 1,5,-1
 924 1722 l 1,6,-1
 557 850 l 1,7,-1
 924 0 l 1,8,-1
 778 0 l 1,9,-1
 480 717 l 1,10,-1
 187 0 l 1,11,-1
 30 0 l 1,0,-1
EndSplineSet
EndChar

StartChar: Y
Encoding: 89 89 60
Width: 888
Flags: W
LayerCount: 2
Fore
SplineSet
374 0 m 1,0,-1
 374 534 l 1,1,-1
 -2 1721 l 1,2,-1
 152 1721 l 1,3,4
 172 1649 172 1649 210 1518 c 128,-1,5
 248 1387 248 1387 288 1252 c 128,-1,6
 328 1117 328 1117 365.5 992.5 c 128,-1,7
 403 868 403 868 427 788 c 2,8,-1
 451 709 l 1,9,10
 515 944 515 944 599 1228.5 c 128,-1,11
 683 1513 683 1513 741 1721 c 1,12,-1
 890 1721 l 1,13,-1
 526 534 l 1,14,-1
 526 0 l 1,15,-1
 374 0 l 1,0,-1
EndSplineSet
EndChar

StartChar: Z
Encoding: 90 90 61
Width: 866
Flags: W
LayerCount: 2
Fore
SplineSet
60 0 m 1,0,-1
 60 141 l 1,1,-1
 665 1599 l 1,2,-1
 124 1599 l 1,3,-1
 124 1721 l 1,4,-1
 821 1721 l 1,5,-1
 821 1580 l 1,6,-1
 216 122 l 1,7,-1
 821 122 l 1,8,-1
 821 0 l 1,9,-1
 60 0 l 1,0,-1
EndSplineSet
EndChar

StartChar: bracketleft
Encoding: 91 91 62
Width: 494
Flags: W
LayerCount: 2
Fore
SplineSet
150 -64 m 1,0,-1
 150 1779 l 1,1,-1
 481 1779 l 1,2,-1
 481 1698 l 1,3,-1
 302 1698 l 1,4,-1
 302 17 l 1,5,-1
 481 17 l 1,6,-1
 481 -64 l 1,7,-1
 150 -64 l 1,0,-1
EndSplineSet
EndChar

StartChar: backslash
Encoding: 92 92 63
Width: 639
Flags: W
LayerCount: 2
Fore
SplineSet
541 0 m 1,0,-1
 -12 1721 l 1,1,-1
 133 1721 l 1,2,-1
 685 0 l 1,3,-1
 541 0 l 1,0,-1
EndSplineSet
EndChar

StartChar: bracketright
Encoding: 93 93 64
Width: 504
Flags: W
LayerCount: 2
Fore
SplineSet
25 -64 m 1,0,-1
 25 17 l 1,1,-1
 204 17 l 1,2,-1
 204 1698 l 1,3,-1
 25 1698 l 1,4,-1
 25 1779 l 1,5,-1
 356 1779 l 1,6,-1
 356 -64 l 1,7,-1
 25 -64 l 1,0,-1
EndSplineSet
EndChar

StartChar: asciicircum
Encoding: 94 94 65
Width: 739
Flags: W
LayerCount: 2
Fore
SplineSet
220 896 m 1,0,-1
 43 896 l 1,1,2
 270 1459 l 1,3,-1
 477 1459 l 1,4,-1
 703 896 l 1,5,-1
 528 896 l 1,6,-1
 373 1436 l 1,7,-1
 220 896 l 1,0,-1
EndSplineSet
EndChar

StartChar: underscore
Encoding: 95 95 66
Width: 913
Flags: W
LayerCount: 2
Fore
SplineSet
115 0 m 1,0,-1
 115 115 l 1,1,-1
 811 115 l 1,2,-1
 811 0 l 1,3,-1
 115 0 l 1,0,-1
EndSplineSet
EndChar

StartChar: grave
Encoding: 96 96 67
Width: 451
Flags: W
LayerCount: 2
Fore
SplineSet
299 1324 m 1,0,-1
 70 1722 l 1,1,-1
 232 1722 l 1,2,-1
 355 1324 l 1,3,-1
 299 1324 l 1,0,-1
EndSplineSet
EndChar

StartChar: a
Encoding: 97 97 68
Width: 808
Flags: W
LayerCount: 2
Fore
SplineSet
554 244 m 1,0,-1
 554 666 l 1,1,2
 481 615 481 615 439 584 c 128,-1,3
 397 553 397 553 350.5 511.5 c 128,-1,4
 304 470 304 470 280.5 436 c 128,-1,5
 257 402 257 402 241.5 358.5 c 128,-1,6
 226 315 226 315 226 267 c 0,7,8
 226 181 226 181 262 139.5 c 128,-1,9
 298 98 298 98 347 98 c 0,10,11
 404 98 404 98 462.5 139 c 128,-1,12
 521 180 521 180 554 244 c 1,0,-1
584 0 m 1,13,-1
 565 145 l 1,14,15
 517 61 517 61 446.5 17 c 128,-1,16
 376 -27 376 -27 312 -27 c 0,17,18
 219 -27 219 -27 147 46.5 c 128,-1,19
 75 120 75 120 75 239 c 0,20,21
 75 271 75 271 76 290.5 c 128,-1,22
 77 310 77 310 81.5 341 c 128,-1,23
 86 372 86 372 94.5 393 c 128,-1,24
 103 414 103 414 119.5 444.5 c 128,-1,25
 136 475 136 475 160 498.5 c 128,-1,26
 184 522 184 522 220 552.5 c 128,-1,27
 256 583 256 583 303 610.5 c 128,-1,28
 350 638 350 638 413.5 669.5 c 128,-1,29
 477 701 477 701 554 733 c 1,30,-1
 554 743 l 2,31,32
 554 845 554 845 545 917.5 c 128,-1,33
 536 990 536 990 523 1029.5 c 128,-1,34
 510 1069 510 1069 489.5 1091 c 128,-1,35
 469 1113 469 1113 451 1118.5 c 128,-1,36
 433 1124 433 1124 407 1124 c 0,37,38
 380 1124 380 1124 359 1116.5 c 128,-1,39
 338 1109 338 1109 314 1087.5 c 128,-1,40
 290 1066 290 1066 274 1017.5 c 128,-1,41
 258 969 258 969 254 896 c 1,42,-1
 254 889 l 1,43,-1
 98 889 l 1,44,45
 110 1046 110 1046 190.5 1135.5 c 128,-1,46
 271 1225 271 1225 402 1225 c 0,47,48
 475 1225 475 1225 531 1201.5 c 128,-1,49
 587 1178 587 1178 619.5 1141.5 c 128,-1,50
 652 1105 652 1105 672 1054 c 128,-1,51
 692 1003 692 1003 699 955 c 128,-1,52
 706 907 706 907 706 852 c 2,53,-1
 706 276 l 2,54,55
 706 213 706 213 710.5 144 c 128,-1,56
 715 75 715 75 720 38 c 1,57,-1
 724 0 l 1,58,-1
 584 0 l 1,13,-1
EndSplineSet
EndChar

StartChar: b
Encoding: 98 98 69
Width: 871
Flags: W
LayerCount: 2
Fore
SplineSet
615 545 m 2,0,-1
 615 640 l 2,1,2
 615 750 615 750 610 832 c 128,-1,3
 605 914 605 914 593.5 964.5 c 128,-1,4
 582 1015 582 1015 570.5 1046.5 c 128,-1,5
 559 1078 559 1078 540.5 1092 c 128,-1,6
 522 1106 522 1106 507.5 1110 c 128,-1,7
 493 1114 493 1114 471 1114 c 0,8,9
 377 1114 377 1114 270 995 c 1,10,-1
 270 205 l 1,11,12
 315 151 315 151 368 117.5 c 128,-1,13
 421 84 421 84 466 84 c 0,14,15
 486 84 486 84 498.5 86 c 128,-1,16
 511 88 511 88 528.5 97 c 128,-1,17
 546 106 546 106 557 124 c 128,-1,18
 568 142 568 142 580 175.5 c 128,-1,19
 592 209 592 209 599 257 c 128,-1,20
 606 305 606 305 610.5 378 c 128,-1,21
 615 451 615 451 615 545 c 2,0,-1
120 0 m 1,22,-1
 120 1721 l 1,23,-1
 270 1721 l 1,24,-1
 270 1085 l 1,25,26
 317 1154 317 1154 377.5 1189.5 c 128,-1,27
 438 1225 438 1225 501 1225 c 0,28,29
 544 1225 544 1225 576 1216.5 c 128,-1,30
 608 1208 608 1208 646 1173.5 c 128,-1,31
 684 1139 684 1139 708 1079 c 128,-1,32
 732 1019 732 1019 748.5 907.5 c 128,-1,33
 765 796 765 796 765 641 c 2,34,-1
 765 546 l 2,35,36
 765 438 765 438 756.5 351 c 128,-1,37
 748 264 748 264 734.5 205.5 c 128,-1,38
 721 147 721 147 700 103.5 c 128,-1,39
 679 60 679 60 658 35.5 c 128,-1,40
 637 11 637 11 610 -3.5 c 128,-1,41
 583 -18 583 -18 561 -22.5 c 128,-1,42
 539 -27 539 -27 512 -27 c 0,43,44
 360 -27 360 -27 270 113 c 1,45,-1
 270 0 l 1,46,-1
 120 0 l 1,22,-1
EndSplineSet
EndChar

StartChar: c
Encoding: 99 99 70
Width: 816
Flags: W
LayerCount: 2
Fore
SplineSet
106 568 m 2,0,-1
 106 630 l 2,1,2
 106 710 106 710 107 752.5 c 128,-1,3
 108 795 108 795 114 868.5 c 128,-1,4
 120 942 120 942 131.5 983 c 128,-1,5
 143 1024 143 1024 167 1077 c 128,-1,6
 191 1130 191 1130 225 1157.5 c 128,-1,7
 259 1185 259 1185 312 1205 c 128,-1,8
 365 1225 365 1225 433 1225 c 0,9,10
 502 1225 502 1225 554.5 1202.5 c 128,-1,11
 607 1180 607 1180 639.5 1144 c 128,-1,12
 672 1108 672 1108 693 1053 c 128,-1,13
 714 998 714 998 723 943 c 128,-1,14
 732 888 732 888 736 817 c 0,15,16
 736 815 736 815 736.5 811.5 c 128,-1,17
 737 808 737 808 737 806 c 1,18,-1
 587 806 l 1,19,-1
 587 815 l 1,20,21
 581 984 581 984 547.5 1054 c 128,-1,22
 514 1124 514 1124 433 1124 c 0,23,24
 394 1124 394 1124 365.5 1113 c 128,-1,25
 337 1102 337 1102 317.5 1074 c 128,-1,26
 298 1046 298 1046 286 1010.5 c 128,-1,27
 274 975 274 975 267 914.5 c 128,-1,28
 260 854 260 854 258 790 c 128,-1,29
 256 726 256 726 256 630 c 2,30,-1
 256 568 l 2,31,32
 256 287 256 287 291 180.5 c 128,-1,33
 326 74 326 74 433 74 c 0,34,35
 512 74 512 74 545.5 146 c 128,-1,36
 579 218 579 218 587 393 c 1,37,-1
 587 403 l 1,38,-1
 738 403 l 1,39,-1
 738 396 l 1,40,41
 735 320 735 320 726.5 262.5 c 128,-1,42
 718 205 718 205 697.5 148 c 128,-1,43
 677 91 677 91 644.5 54.5 c 128,-1,44
 612 18 612 18 558.5 -4.5 c 128,-1,45
 505 -27 505 -27 433 -27 c 0,46,47
 373 -27 373 -27 325 -15 c 128,-1,48
 277 -3 277 -3 243.5 25 c 128,-1,49
 210 53 210 53 185.5 80.5 c 128,-1,50
 161 108 161 108 146.5 159 c 128,-1,51
 132 210 132 210 123.5 246 c 128,-1,52
 115 282 115 282 111 349 c 128,-1,53
 107 416 107 416 106.5 454.5 c 128,-1,54
 106 493 106 493 106 568 c 2,0,-1
EndSplineSet
EndChar

StartChar: d
Encoding: 100 100 71
Width: 866
Flags: W
LayerCount: 2
Fore
SplineSet
596 205 m 1,0,-1
 596 995 l 1,1,2
 489 1114 489 1114 395 1114 c 0,3,4
 373 1114 373 1114 358.5 1110 c 128,-1,5
 344 1106 344 1106 325.5 1092 c 128,-1,6
 307 1078 307 1078 295.5 1046.5 c 128,-1,7
 284 1015 284 1015 272.5 964.5 c 128,-1,8
 261 914 261 914 256 832 c 128,-1,9
 251 750 251 750 251 640 c 2,10,-1
 251 545 l 2,11,12
 251 451 251 451 255.5 378 c 128,-1,13
 260 305 260 305 267 257 c 128,-1,14
 274 209 274 209 286 175.5 c 128,-1,15
 298 142 298 142 309 124 c 128,-1,16
 320 106 320 106 337.5 97 c 128,-1,17
 355 88 355 88 367.5 86 c 128,-1,18
 380 84 380 84 400 84 c 0,19,20
 445 84 445 84 498 117.5 c 128,-1,21
 551 151 551 151 596 205 c 1,0,-1
596 0 m 1,22,-1
 596 113 l 1,23,24
 506 -27 506 -27 354 -27 c 0,25,26
 327 -27 327 -27 305 -22.5 c 128,-1,27
 283 -18 283 -18 256 -3.5 c 128,-1,28
 229 11 229 11 208 35.5 c 128,-1,29
 187 60 187 60 166 103.5 c 128,-1,30
 145 147 145 147 131.5 205.5 c 128,-1,31
 118 264 118 264 109.5 351 c 128,-1,32
 101 438 101 438 101 546 c 2,33,-1
 101 641 l 2,34,35
 101 796 101 796 117.5 907.5 c 128,-1,36
 134 1019 134 1019 158 1079 c 128,-1,37
 182 1139 182 1139 220 1173.5 c 128,-1,38
 258 1208 258 1208 290 1216.5 c 128,-1,39
 322 1225 322 1225 365 1225 c 0,40,41
 428 1225 428 1225 488.5 1189.5 c 128,-1,42
 549 1154 549 1154 596 1085 c 1,43,-1
 596 1721 l 1,44,-1
 746 1721 l 1,45,-1
 746 0 l 1,46,-1
 596 0 l 1,22,-1
EndSplineSet
EndChar

StartChar: e
Encoding: 101 101 72
Width: 829
Flags: W
LayerCount: 2
Fore
SplineSet
258 702 m 1,0,-1
 590 702 l 1,1,2
 589 742 589 742 590 783 c 128,-1,3
 591 824 591 824 589 865.5 c 128,-1,4
 587 907 587 907 583.5 945 c 128,-1,5
 580 983 580 983 570 1015.5 c 128,-1,6
 560 1048 560 1048 545 1072 c 128,-1,7
 530 1096 530 1096 504 1110 c 128,-1,8
 478 1124 478 1124 444 1124 c 0,9,10
 389 1124 389 1124 353.5 1104 c 128,-1,11
 318 1084 318 1084 298.5 1057 c 128,-1,12
 279 1030 279 1030 270 966 c 128,-1,13
 261 902 261 902 259.5 853.5 c 128,-1,14
 258 805 258 805 258 702 c 1,0,-1
106 552 m 1,15,-1
 106 719 l 1,16,17
 107 844 107 844 124 935.5 c 128,-1,18
 141 1027 141 1027 168.5 1082 c 128,-1,19
 196 1137 196 1137 239.5 1169.5 c 128,-1,20
 283 1202 283 1202 329 1213.5 c 128,-1,21
 375 1225 375 1225 437 1225 c 0,22,23
 598 1225 598 1225 668.5 1111 c 128,-1,24
 739 997 739 997 739 751 c 0,25,26
 739 676 739 676 737 628 c 1,27,-1
 257 628 l 1,28,-1
 257 445 l 2,29,30
 257 327 257 327 268.5 251.5 c 128,-1,31
 280 176 280 176 305 138 c 128,-1,32
 330 100 330 100 360 87 c 128,-1,33
 390 74 390 74 436 74 c 0,34,35
 503 74 503 74 548.5 141.5 c 128,-1,36
 594 209 594 209 595 367 c 1,37,-1
 735 367 l 1,38,39
 729 299 729 299 719 246 c 128,-1,40
 709 193 709 193 687.5 140 c 128,-1,41
 666 87 666 87 634.5 52 c 128,-1,42
 603 17 603 17 553 -5 c 128,-1,43
 503 -27 503 -27 438 -27 c 0,44,45
 311 -27 311 -27 240.5 23.5 c 128,-1,46
 170 74 170 74 137 199.5 c 128,-1,47
 104 325 104 325 106 552 c 1,15,-1
EndSplineSet
EndChar

StartChar: f
Encoding: 102 102 73
Width: 532
Flags: W
LayerCount: 2
Fore
SplineSet
177 0 m 1,0,-1
 177 1114 l 1,1,-1
 10 1114 l 1,2,-1
 10 1198 l 1,3,-1
 177 1198 l 1,4,-1
 177 1327 l 2,5,6
 177 1333 177 1333 177 1345 c 0,7,8
 177 1377 177 1377 177 1396 c 128,-1,9
 177 1415 177 1415 181 1451 c 128,-1,10
 185 1487 185 1487 192.5 1510.5 c 128,-1,11
 200 1534 200 1534 216 1563.5 c 128,-1,12
 232 1593 232 1593 254.5 1610.5 c 128,-1,13
 277 1628 277 1628 313 1640 c 128,-1,14
 349 1652 349 1652 394 1652 c 0,15,16
 463 1652 463 1652 516 1639 c 1,17,-1
 516 1530 l 1,18,19
 492 1536 492 1536 442 1536 c 0,20,21
 409 1536 409 1536 386 1526 c 128,-1,22
 363 1516 363 1516 351.5 1504 c 128,-1,23
 340 1492 340 1492 334 1468 c 128,-1,24
 328 1444 328 1444 327.5 1429 c 128,-1,25
 327 1414 327 1414 327 1386 c 0,26,27
 327 1381 327 1381 327 1378 c 2,28,-1
 327 1198 l 1,29,-1
 519 1198 l 1,30,-1
 519 1114 l 1,31,-1
 327 1114 l 1,32,-1
 327 0 l 1,33,-1
 177 0 l 1,0,-1
EndSplineSet
EndChar

StartChar: g
Encoding: 103 103 74
Width: 881
Flags: W
LayerCount: 2
Fore
SplineSet
428 468 m 128,-1,1
 478 468 478 468 515 491 c 128,-1,2
 552 514 552 514 572 547 c 128,-1,3
 592 580 592 580 604 625 c 128,-1,4
 616 670 616 670 619.5 705 c 128,-1,5
 623 740 623 740 623 776 c 0,6,7
 623 811 623 811 620 846.5 c 128,-1,8
 617 882 617 882 604.5 930.5 c 128,-1,9
 592 979 592 979 572.5 1015 c 128,-1,10
 553 1051 553 1051 515.5 1077 c 128,-1,11
 478 1103 478 1103 428 1103 c 0,12,13
 386 1103 386 1103 352.5 1085.5 c 128,-1,14
 319 1068 319 1068 298.5 1038 c 128,-1,15
 278 1008 278 1008 264 974.5 c 128,-1,16
 250 941 250 941 243.5 901.5 c 128,-1,17
 237 862 237 862 234.5 833 c 128,-1,18
 232 804 232 804 232 776 c 0,19,20
 232 739 232 739 235 704.5 c 128,-1,21
 238 670 238 670 250.5 624.5 c 128,-1,22
 263 579 263 579 283 546.5 c 128,-1,23
 303 514 303 514 340.5 491 c 128,-1,0
 378 468 378 468 428 468 c 128,-1,1
524 3 m 1,24,-1
 310 49 l 1,25,26
 260 12 260 12 209.5 -63 c 128,-1,27
 159 -138 159 -138 159 -191 c 0,28,29
 159 -214 159 -214 169.5 -231 c 128,-1,30
 180 -248 180 -248 202.5 -258 c 128,-1,31
 225 -268 225 -268 244.5 -274 c 128,-1,32
 264 -280 264 -280 299 -282.5 c 128,-1,33
 334 -285 334 -285 352 -285.5 c 128,-1,34
 370 -286 370 -286 405 -286 c 0,35,36
 414 -286 414 -286 418 -286 c 0,37,38
 683 -286 683 -286 683 -157 c 0,39,40
 683 -86 683 -86 646 -49.5 c 128,-1,41
 609 -13 609 -13 524 3 c 1,24,-1
214 210 m 0,42,43
 209 187 209 187 241 176 c 128,-1,44
 273 165 273 165 405 138 c 0,45,46
 446 130 446 130 469 125 c 0,47,48
 551 108 551 108 610 88.5 c 128,-1,49
 669 69 669 69 720.5 39.5 c 128,-1,50
 772 10 772 10 798 -32.5 c 128,-1,51
 824 -75 824 -75 824 -130 c 0,52,53
 824 -180 824 -180 807.5 -220.5 c 128,-1,54
 791 -261 791 -261 765 -288 c 128,-1,55
 739 -315 739 -315 701.5 -335 c 128,-1,56
 664 -355 664 -355 628 -366 c 128,-1,57
 592 -377 592 -377 549.5 -383.5 c 128,-1,58
 507 -390 507 -390 477 -391.5 c 128,-1,59
 447 -393 447 -393 416 -393 c 0,60,61
 17 -393 17 -393 17 -236 c 0,62,63
 17 -135 17 -135 82 -57 c 128,-1,64
 147 21 147 21 241 69 c 1,65,66
 226 72 226 72 192.5 81.5 c 128,-1,67
 159 91 159 91 117.5 111 c 128,-1,68
 76 131 76 131 76 150 c 0,69,70
 76 163 76 163 79.5 178.5 c 128,-1,71
 83 194 83 194 90.5 211.5 c 128,-1,72
 98 229 98 229 106 245.5 c 128,-1,73
 114 262 114 262 126 281.5 c 128,-1,74
 138 301 138 301 147 315.5 c 128,-1,75
 156 330 156 330 169 349 c 128,-1,76
 182 368 182 368 189 377 c 128,-1,77
 196 386 196 386 207 401 c 128,-1,78
 218 416 218 416 219 418 c 1,79,80
 148 482 148 482 113.5 583 c 128,-1,81
 79 684 79 684 79 793 c 0,82,83
 79 851 79 851 90 909 c 128,-1,84
 101 967 101 967 127.5 1024.5 c 128,-1,85
 154 1082 154 1082 192.5 1126 c 128,-1,86
 231 1170 231 1170 290.5 1197 c 128,-1,87
 350 1224 350 1224 423 1224 c 0,88,89
 519 1224 519 1224 582.5 1177.5 c 128,-1,90
 646 1131 646 1131 706 1038 c 1,91,92
 725 1071 725 1071 739.5 1093 c 128,-1,93
 754 1115 754 1115 778 1145 c 128,-1,94
 802 1175 802 1175 830 1194.5 c 128,-1,95
 858 1214 858 1214 888 1221 c 1,96,-1
 888 1076 l 1,97,98
 850 1069 850 1069 809 1042.5 c 128,-1,99
 768 1016 768 1016 737 981 c 1,100,101
 775 875 775 875 775 800 c 0,102,103
 775 728 775 728 763 664 c 128,-1,104
 751 600 751 600 724.5 543.5 c 128,-1,105
 698 487 698 487 658 446 c 128,-1,106
 618 405 618 405 559 381.5 c 128,-1,107
 500 358 500 358 427 358 c 0,108,109
 341 358 341 358 283 382 c 1,110,111
 228 278 228 278 214 210 c 0,42,43
EndSplineSet
EndChar

StartChar: h
Encoding: 104 104 75
Width: 860
Flags: W
LayerCount: 2
Fore
SplineSet
120 0 m 1,0,-1
 120 1721 l 1,1,-1
 270 1721 l 1,2,-1
 270 1085 l 1,3,4
 315 1155 315 1155 383 1190 c 128,-1,5
 451 1225 451 1225 522 1225 c 0,6,7
 614 1225 614 1225 681 1151 c 128,-1,8
 748 1077 748 1077 748 942 c 2,9,-1
 748 0 l 1,10,-1
 596 0 l 1,11,-1
 596 934 l 2,12,13
 596 1114 596 1114 470 1114 c 0,14,15
 421 1114 421 1114 365 1079.5 c 128,-1,16
 309 1045 309 1045 270 992 c 1,17,-1
 270 0 l 1,18,-1
 120 0 l 1,0,-1
EndSplineSet
EndChar

StartChar: i
Encoding: 105 105 76
Width: 405
Flags: W
LayerCount: 2
Fore
SplineSet
132 1472 m 1,0,-1
 132 1651 l 1,1,-1
 282 1651 l 1,2,-1
 282 1472 l 1,3,-1
 132 1472 l 1,0,-1
132 0 m 1,4,-1
 132 1198 l 1,5,-1
 282 1198 l 1,6,-1
 282 0 l 1,7,-1
 132 0 l 1,4,-1
EndSplineSet
EndChar

StartChar: j
Encoding: 106 106 77
Width: 428
Flags: W
LayerCount: 2
Fore
SplineSet
148 1473 m 1,0,-1
 148 1652 l 1,1,-1
 298 1652 l 1,2,-1
 298 1473 l 1,3,-1
 148 1473 l 1,0,-1
-44 -312 m 1,4,-1
 -44 -204 l 1,5,6
 2 -206 2 -206 12 -206 c 0,7,8
 45 -206 45 -206 69.5 -197 c 128,-1,9
 94 -188 94 -188 108 -170.5 c 128,-1,10
 122 -153 122 -153 131 -136 c 128,-1,11
 140 -119 140 -119 143 -93.5 c 128,-1,12
 146 -68 146 -68 147 -54 c 128,-1,13
 148 -40 148 -40 148 -18 c 2,14,-1
 148 1198 l 1,15,-1
 298 1198 l 1,16,-1
 298 -46 l 2,17,18
 298 -320 298 -320 37 -320 c 0,19,20
 -3 -320 -3 -320 -44 -312 c 1,4,-1
EndSplineSet
EndChar

StartChar: k
Encoding: 107 107 78
Width: 830
Flags: W
LayerCount: 2
Fore
SplineSet
120 0 m 1,0,-1
 120 1721 l 1,1,-1
 270 1721 l 1,2,-1
 270 630 l 1,3,-1
 644 1198 l 1,4,-1
 813 1198 l 1,5,-1
 526 744 l 1,6,-1
 811 0 l 1,7,-1
 654 0 l 1,8,-1
 419 653 l 1,9,-1
 270 470 l 1,10,-1
 270 0 l 1,11,-1
 120 0 l 1,0,-1
EndSplineSet
EndChar

StartChar: l
Encoding: 108 108 79
Width: 442
Flags: W
LayerCount: 2
Fore
SplineSet
146 0 m 1,0,-1
 146 1721 l 1,1,-1
 296 1721 l 1,2,-1
 296 0 l 1,3,-1
 146 0 l 1,0,-1
EndSplineSet
EndChar

StartChar: m
Encoding: 109 109 80
Width: 1335
Flags: W
LayerCount: 2
Fore
SplineSet
120 0 m 1,0,-1
 120 1198 l 1,1,-1
 271 1198 l 1,2,-1
 271 1087 l 1,3,4
 388 1225 388 1225 537 1225 c 0,5,6
 598 1225 598 1225 655 1187 c 128,-1,7
 712 1149 712 1149 737 1089 c 1,8,9
 796 1156 796 1156 866 1190.5 c 128,-1,10
 936 1225 936 1225 994 1225 c 0,11,12
 1086 1225 1086 1225 1154.5 1161 c 128,-1,13
 1223 1097 1223 1097 1223 1001 c 2,14,-1
 1223 0 l 1,15,-1
 1073 0 l 1,16,-1
 1073 970 l 2,17,18
 1073 1045 1073 1045 1039.5 1079.5 c 128,-1,19
 1006 1114 1006 1114 950 1114 c 0,20,21
 857 1114 857 1114 760 1017 c 1,22,-1
 760 0 l 1,23,-1
 610 0 l 1,24,-1
 610 971 l 2,25,26
 610 1114 610 1114 483 1114 c 0,27,28
 432 1114 432 1114 375.5 1082 c 128,-1,29
 319 1050 319 1050 270 995 c 1,30,-1
 270 0 l 1,31,-1
 120 0 l 1,0,-1
EndSplineSet
EndChar

StartChar: n
Encoding: 110 110 81
Width: 860
Flags: W
LayerCount: 2
Fore
SplineSet
120 0 m 1,0,-1
 120 1198 l 1,1,-1
 270 1198 l 1,2,-1
 270 1085 l 1,3,4
 318 1155 318 1155 385 1190 c 128,-1,5
 452 1225 452 1225 524 1225 c 0,6,7
 613 1225 613 1225 680.5 1150.5 c 128,-1,8
 748 1076 748 1076 748 941 c 2,9,-1
 748 0 l 1,10,-1
 596 0 l 1,11,-1
 596 944 l 2,12,13
 596 1033 596 1033 561 1073.5 c 128,-1,14
 526 1114 526 1114 469 1114 c 0,15,16
 422 1114 422 1114 368.5 1081.5 c 128,-1,17
 315 1049 315 1049 270 993 c 1,18,-1
 270 0 l 1,19,-1
 120 0 l 1,0,-1
EndSplineSet
EndChar

StartChar: o
Encoding: 111 111 82
Width: 846
Flags: W
LayerCount: 2
Fore
SplineSet
106 568 m 2,0,-1
 106 630 l 2,1,2
 106 710 106 710 107 752.5 c 128,-1,3
 108 795 108 795 113.5 868.5 c 128,-1,4
 119 942 119 942 130.5 983 c 128,-1,5
 142 1024 142 1024 165 1077 c 128,-1,6
 188 1130 188 1130 221.5 1157.5 c 128,-1,7
 255 1185 255 1185 306 1205 c 128,-1,8
 357 1225 357 1225 423 1225 c 128,-1,9
 489 1225 489 1225 540 1205 c 128,-1,10
 591 1185 591 1185 624.5 1157.5 c 128,-1,11
 658 1130 658 1130 681 1077 c 128,-1,12
 704 1024 704 1024 715.5 983 c 128,-1,13
 727 942 727 942 732.5 868.5 c 128,-1,14
 738 795 738 795 739 752.5 c 128,-1,15
 740 710 740 710 740 630 c 2,16,-1
 740 568 l 2,17,18
 740 501 740 501 739.5 467 c 128,-1,19
 739 433 739 433 736.5 372.5 c 128,-1,20
 734 312 734 312 728.5 279 c 128,-1,21
 723 246 723 246 712 197 c 128,-1,22
 701 148 701 148 685.5 121 c 128,-1,23
 670 94 670 94 646 61.5 c 128,-1,24
 622 29 622 29 591 12.5 c 128,-1,25
 560 -4 560 -4 517.5 -15.5 c 128,-1,26
 475 -27 475 -27 423 -27 c 128,-1,27
 371 -27 371 -27 328.5 -15.5 c 128,-1,28
 286 -4 286 -4 255 12.5 c 128,-1,29
 224 29 224 29 200 61.5 c 128,-1,30
 176 94 176 94 160.5 121 c 128,-1,31
 145 148 145 148 134 197 c 128,-1,32
 123 246 123 246 117.5 279 c 128,-1,33
 112 312 112 312 109.5 372.5 c 128,-1,34
 107 433 107 433 106.5 467 c 128,-1,35
 106 501 106 501 106 568 c 2,0,-1
256 630 m 2,36,-1
 256 568 l 2,37,38
 256 286 256 286 289 180 c 128,-1,39
 322 74 322 74 423 74 c 128,-1,40
 524 74 524 74 557 180 c 128,-1,41
 590 286 590 286 590 568 c 2,42,-1
 590 630 l 2,43,44
 590 725 590 725 588 790 c 128,-1,45
 586 855 586 855 579.5 914.5 c 128,-1,46
 573 974 573 974 561.5 1010 c 128,-1,47
 550 1046 550 1046 531.5 1073.5 c 128,-1,48
 513 1101 513 1101 486.5 1112.5 c 128,-1,49
 460 1124 460 1124 423 1124 c 128,-1,50
 386 1124 386 1124 359.5 1112.5 c 128,-1,51
 333 1101 333 1101 314 1073.5 c 128,-1,52
 295 1046 295 1046 284 1010.5 c 128,-1,53
 273 975 273 975 266.5 914.5 c 128,-1,54
 260 854 260 854 258 790 c 128,-1,55
 256 726 256 726 256 630 c 2,36,-1
EndSplineSet
EndChar

StartChar: p
Encoding: 112 112 83
Width: 871
Flags: W
LayerCount: 2
Fore
SplineSet
615 558 m 2,0,-1
 615 653 l 2,1,2
 615 747 615 747 610.5 820 c 128,-1,3
 606 893 606 893 599 941 c 128,-1,4
 592 989 592 989 580 1022.5 c 128,-1,5
 568 1056 568 1056 557 1074 c 128,-1,6
 546 1092 546 1092 528.5 1101 c 128,-1,7
 511 1110 511 1110 498.5 1112 c 128,-1,8
 486 1114 486 1114 466 1114 c 0,9,10
 421 1114 421 1114 368 1080.5 c 128,-1,11
 315 1047 315 1047 270 993 c 1,12,-1
 270 203 l 1,13,14
 377 84 377 84 471 84 c 0,15,16
 493 84 493 84 507.5 88 c 128,-1,17
 522 92 522 92 540.5 106 c 128,-1,18
 559 120 559 120 570.5 151.5 c 128,-1,19
 582 183 582 183 593.5 233.5 c 128,-1,20
 605 284 605 284 610 366 c 128,-1,21
 615 448 615 448 615 558 c 2,0,-1
120 -385 m 1,22,-1
 120 1198 l 1,23,-1
 270 1198 l 1,24,-1
 270 1085 l 1,25,26
 360 1225 360 1225 512 1225 c 0,27,28
 539 1225 539 1225 561 1220.5 c 128,-1,29
 583 1216 583 1216 610 1201.5 c 128,-1,30
 637 1187 637 1187 658 1162.5 c 128,-1,31
 679 1138 679 1138 700 1094.5 c 128,-1,32
 721 1051 721 1051 734.5 992.5 c 128,-1,33
 748 934 748 934 756.5 847 c 128,-1,34
 765 760 765 760 765 652 c 2,35,-1
 765 557 l 2,36,37
 765 402 765 402 748.5 290.5 c 128,-1,38
 732 179 732 179 708 119 c 128,-1,39
 684 59 684 59 646 24.5 c 128,-1,40
 608 -10 608 -10 576 -18.5 c 128,-1,41
 544 -27 544 -27 501 -27 c 0,42,43
 438 -27 438 -27 377.5 8.5 c 128,-1,44
 317 44 317 44 270 113 c 1,45,-1
 270 -385 l 1,46,-1
 120 -385 l 1,22,-1
EndSplineSet
EndChar

StartChar: q
Encoding: 113 113 84
Width: 871
Flags: W
LayerCount: 2
Fore
SplineSet
601 203 m 1,0,-1
 601 993 l 1,1,2
 556 1047 556 1047 503 1080.5 c 128,-1,3
 450 1114 450 1114 405 1114 c 0,4,5
 385 1114 385 1114 372.5 1112 c 128,-1,6
 360 1110 360 1110 342.5 1101 c 128,-1,7
 325 1092 325 1092 314 1074 c 128,-1,8
 303 1056 303 1056 291 1022.5 c 128,-1,9
 279 989 279 989 272 941 c 128,-1,10
 265 893 265 893 260.5 820 c 128,-1,11
 256 747 256 747 256 653 c 2,12,-1
 256 558 l 2,13,14
 256 448 256 448 261 366 c 128,-1,15
 266 284 266 284 277.5 233.5 c 128,-1,16
 289 183 289 183 300.5 151.5 c 128,-1,17
 312 120 312 120 330.5 106 c 128,-1,18
 349 92 349 92 363.5 88 c 128,-1,19
 378 84 378 84 400 84 c 0,20,21
 494 84 494 84 601 203 c 1,0,-1
601 -385 m 1,22,-1
 601 113 l 1,23,24
 554 44 554 44 493.5 8.5 c 128,-1,25
 433 -27 433 -27 370 -27 c 0,26,27
 327 -27 327 -27 295 -18.5 c 128,-1,28
 263 -10 263 -10 225 24.5 c 128,-1,29
 187 59 187 59 163 119 c 128,-1,30
 139 179 139 179 122.5 290.5 c 128,-1,31
 106 402 106 402 106 557 c 2,32,-1
 106 652 l 2,33,34
 106 760 106 760 114.5 847 c 128,-1,35
 123 934 123 934 136.5 992.5 c 128,-1,36
 150 1051 150 1051 171 1094.5 c 128,-1,37
 192 1138 192 1138 213 1162.5 c 128,-1,38
 234 1187 234 1187 261 1201.5 c 128,-1,39
 288 1216 288 1216 310 1220.5 c 128,-1,40
 332 1225 332 1225 359 1225 c 0,41,42
 511 1225 511 1225 601 1085 c 1,43,-1
 601 1198 l 1,44,-1
 751 1198 l 1,45,-1
 751 -385 l 1,46,-1
 601 -385 l 1,22,-1
EndSplineSet
EndChar

StartChar: r
Encoding: 114 114 85
Width: 534
Flags: W
LayerCount: 2
Fore
SplineSet
120 0 m 1,0,-1
 120 1198 l 1,1,-1
 270 1198 l 1,2,-1
 270 1029 l 1,3,4
 298 1122 298 1122 371 1168.5 c 128,-1,5
 444 1215 444 1215 522 1217 c 1,6,-1
 522 1066 l 1,7,8
 511 1070 511 1070 499 1070 c 0,9,10
 270 1070 270 1070 270 894 c 2,11,-1
 270 0 l 1,12,-1
 120 0 l 1,0,-1
EndSplineSet
EndChar

StartChar: s
Encoding: 115 115 86
Width: 749
Flags: W
LayerCount: 2
Fore
SplineSet
57 300 m 1,0,-1
 172 339 l 1,1,2
 186 295 186 295 206.5 254 c 128,-1,3
 227 213 227 213 256 172 c 128,-1,4
 285 131 285 131 324.5 106 c 128,-1,5
 364 81 364 81 407 81 c 0,6,7
 486 81 486 81 525.5 129 c 128,-1,8
 565 177 565 177 565 259 c 0,9,10
 565 374 565 374 360 554 c 2,11,-1
 273 630 l 2,12,13
 174 717 174 717 123.5 785.5 c 128,-1,14
 73 854 73 854 73 939 c 0,15,16
 73 1074 73 1074 155 1148.5 c 128,-1,17
 237 1223 237 1223 374 1223 c 0,18,19
 439 1223 439 1223 492 1198 c 128,-1,20
 545 1173 545 1173 581 1128.5 c 128,-1,21
 617 1084 617 1084 641.5 1032.5 c 128,-1,22
 666 981 666 981 681 919 c 1,23,-1
 548 878 l 1,24,25
 539 934 539 934 519.5 984 c 128,-1,26
 500 1034 500 1034 459.5 1074.5 c 128,-1,27
 419 1115 419 1115 367 1115 c 0,28,29
 300 1115 300 1115 260.5 1069.5 c 128,-1,30
 221 1024 221 1024 221 952 c 0,31,32
 221 892 221 892 259.5 838 c 128,-1,33
 298 784 298 784 371 722 c 2,34,-1
 466 640 l 2,35,36
 512 600 512 600 536.5 577.5 c 128,-1,37
 561 555 561 555 598.5 513.5 c 128,-1,38
 636 472 636 472 655 438.5 c 128,-1,39
 674 405 674 405 689.5 358 c 128,-1,40
 705 311 705 311 706 262 c 1,41,42
 706 128 706 128 621.5 50.5 c 128,-1,43
 537 -27 537 -27 401 -27 c 0,44,45
 269 -27 269 -27 180.5 65.5 c 128,-1,46
 92 158 92 158 57 300 c 1,0,-1
EndSplineSet
EndChar

StartChar: t
Encoding: 116 116 87
Width: 550
Flags: W
LayerCount: 2
Fore
SplineSet
167 283 m 2,0,-1
 167 1114 l 1,1,-1
 4 1114 l 1,2,-1
 4 1198 l 1,3,-1
 167 1198 l 1,4,-1
 167 1623 l 1,5,-1
 317 1623 l 1,6,-1
 317 1198 l 1,7,-1
 509 1198 l 1,8,-1
 509 1114 l 1,9,-1
 317 1114 l 1,10,-1
 317 290 l 2,11,12
 317 247 317 247 318 222.5 c 128,-1,13
 319 198 319 198 324.5 169.5 c 128,-1,14
 330 141 330 141 340.5 127 c 128,-1,15
 351 113 351 113 370.5 103.5 c 128,-1,16
 390 94 390 94 419 94 c 0,17,18
 468 94 468 94 507 102 c 1,19,-1
 507 -1 l 1,20,21
 440 -18 440 -18 377 -18 c 0,22,23
 321 -18 321 -18 281 -0.5 c 128,-1,24
 241 17 241 17 219.5 43 c 128,-1,25
 198 69 198 69 185.5 112 c 128,-1,26
 173 155 173 155 170 192.5 c 128,-1,27
 167 230 167 230 167 283 c 2,0,-1
EndSplineSet
EndChar

StartChar: u
Encoding: 117 117 88
Width: 892
Flags: W
LayerCount: 2
Fore
SplineSet
112 257 m 2,0,-1
 112 1198 l 1,1,-1
 264 1198 l 1,2,-1
 264 254 l 2,3,4
 264 165 264 165 299 124.5 c 128,-1,5
 334 84 334 84 391 84 c 0,6,7
 438 84 438 84 491.5 116.5 c 128,-1,8
 545 149 545 149 590 205 c 1,9,-1
 590 1198 l 1,10,-1
 740 1198 l 1,11,-1
 740 0 l 1,12,-1
 590 0 l 1,13,-1
 590 113 l 1,14,15
 542 43 542 43 475 8 c 128,-1,16
 408 -27 408 -27 336 -27 c 0,17,18
 247 -27 247 -27 179.5 47.5 c 128,-1,19
 112 122 112 122 112 257 c 2,0,-1
EndSplineSet
EndChar

StartChar: v
Encoding: 118 118 89
Width: 747
Flags: W
LayerCount: 2
Fore
SplineSet
297 0 m 1,0,-1
 25 1198 l 1,1,-1
 171 1198 l 1,2,-1
 385 136 l 1,3,-1
 579 1198 l 1,4,-1
 722 1198 l 1,5,-1
 472 0 l 1,6,-1
 297 0 l 1,0,-1
EndSplineSet
EndChar

StartChar: w
Encoding: 119 119 90
Width: 1161
Flags: W
LayerCount: 2
Fore
SplineSet
240 0 m 1,0,-1
 42 1198 l 1,1,-1
 173 1198 l 1,2,-1
 331 176 l 1,3,-1
 502 1198 l 1,4,-1
 662 1198 l 1,5,-1
 846 176 l 1,6,-1
 990 1198 l 1,7,-1
 1119 1198 l 1,8,-1
 923 0 l 1,9,-1
 778 0 l 1,10,-1
 585 988 l 1,11,-1
 399 0 l 1,12,-1
 240 0 l 1,0,-1
EndSplineSet
EndChar

StartChar: x
Encoding: 120 120 91
Width: 783
Flags: W
LayerCount: 2
Fore
SplineSet
39 0 m 1,0,-1
 297 626 l 1,1,-1
 41 1198 l 1,2,-1
 196 1198 l 1,3,-1
 392 699 l 1,4,-1
 588 1198 l 1,5,-1
 743 1198 l 1,6,-1
 486 626 l 1,7,-1
 744 0 l 1,8,-1
 598 0 l 1,9,-1
 392 534 l 1,10,-1
 186 0 l 1,11,-1
 39 0 l 1,0,-1
EndSplineSet
EndChar

StartChar: y
Encoding: 121 121 92
Width: 777
Flags: W
LayerCount: 2
Fore
SplineSet
77 -299 m 1,0,-1
 77 -176 l 1,1,2
 197 -168 197 -168 252.5 -136 c 128,-1,3
 308 -104 308 -104 308 -46 c 0,4,5
 308 27 308 27 297 96 c 1,6,-1
 37 1198 l 1,7,-1
 189 1198 l 1,8,-1
 397 197 l 1,9,-1
 601 1198 l 1,10,-1
 753 1198 l 1,11,-1
 453 -83 l 1,12,13
 423 -199 423 -199 333.5 -246.5 c 128,-1,14
 244 -294 244 -294 80 -299 c 1,15,-1
 77 -299 l 1,0,-1
EndSplineSet
EndChar

StartChar: z
Encoding: 122 122 93
Width: 695
Flags: W
LayerCount: 2
Fore
SplineSet
47 0 m 1,0,-1
 47 144 l 1,1,-1
 519 1084 l 1,2,-1
 111 1084 l 1,3,-1
 111 1198 l 1,4,-1
 660 1198 l 1,5,-1
 660 1055 l 1,6,-1
 199 115 l 1,7,-1
 654 115 l 1,8,-1
 654 0 l 1,9,-1
 47 0 l 1,0,-1
EndSplineSet
EndChar

StartChar: braceleft
Encoding: 123 123 94
Width: 520
Flags: W
LayerCount: 2
Fore
SplineSet
511 56 m 1,0,-1
 511 -57 l 1,1,2
 455 -57 455 -57 409 -45 c 128,-1,3
 363 -33 363 -33 329 -15.5 c 128,-1,4
 295 2 295 2 269 37 c 128,-1,5
 243 72 243 72 226 102 c 128,-1,6
 209 132 209 132 197 185.5 c 128,-1,7
 185 239 185 239 179 276.5 c 128,-1,8
 173 314 173 314 170 382 c 128,-1,9
 167 450 167 450 166.5 491 c 128,-1,10
 166 532 166 532 166 609 c 0,11,12
 166 687 166 687 140 727.5 c 128,-1,13
 114 768 114 768 35 768 c 1,14,-1
 35 956 l 1,15,16
 114 956 114 956 140 996.5 c 128,-1,17
 166 1037 166 1037 166 1115 c 0,18,19
 166 1192 166 1192 166.5 1233 c 128,-1,20
 167 1274 167 1274 170 1342 c 128,-1,21
 173 1410 173 1410 179 1447.5 c 128,-1,22
 185 1485 185 1485 197 1538.5 c 128,-1,23
 209 1592 209 1592 226 1622 c 128,-1,24
 243 1652 243 1652 269 1687 c 128,-1,25
 295 1722 295 1722 329 1739.5 c 128,-1,26
 363 1757 363 1757 409 1769 c 128,-1,27
 455 1781 455 1781 511 1781 c 1,28,-1
 511 1668 l 1,29,30
 459 1668 459 1668 423 1656 c 128,-1,31
 387 1644 387 1644 364 1609 c 128,-1,32
 341 1574 341 1574 328 1543.5 c 128,-1,33
 315 1513 315 1513 309.5 1442 c 128,-1,34
 304 1371 304 1371 303 1324 c 128,-1,35
 302 1277 302 1277 302 1174 c 0,36,37
 302 1117 302 1117 296.5 1073.5 c 128,-1,38
 291 1030 291 1030 275 985 c 128,-1,39
 259 940 259 940 224.5 908.5 c 128,-1,40
 190 877 190 877 139 862 c 1,41,42
 190 847 190 847 224.5 815.5 c 128,-1,43
 259 784 259 784 275 739 c 128,-1,44
 291 694 291 694 296.5 650.5 c 128,-1,45
 302 607 302 607 302 550 c 0,46,47
 302 447 302 447 303 400 c 128,-1,48
 304 353 304 353 309.5 282 c 128,-1,49
 315 211 315 211 328 180.5 c 128,-1,50
 341 150 341 150 364 115 c 128,-1,51
 387 80 387 80 423 68 c 128,-1,52
 459 56 459 56 511 56 c 1,0,-1
EndSplineSet
EndChar

StartChar: bar
Encoding: 124 124 95
Width: 416
Flags: W
LayerCount: 2
Fore
SplineSet
150 -128 m 1,0,-1
 150 1746 l 1,1,-1
 268 1746 l 1,2,-1
 268 -128 l 1,3,-1
 150 -128 l 1,0,-1
EndSplineSet
EndChar

StartChar: braceright
Encoding: 125 125 96
Width: 530
Flags: W
LayerCount: 2
Fore
SplineSet
25 -57 m 1,0,-1
 25 56 l 1,1,2
 77 56 77 56 113 68 c 128,-1,3
 149 80 149 80 172 115 c 128,-1,4
 195 150 195 150 208 180.5 c 128,-1,5
 221 211 221 211 226.5 282 c 128,-1,6
 232 353 232 353 233 400 c 128,-1,7
 234 447 234 447 234 550 c 0,8,9
 234 607 234 607 239.5 650.5 c 128,-1,10
 245 694 245 694 261 739 c 128,-1,11
 277 784 277 784 311.5 815.5 c 128,-1,12
 346 847 346 847 397 862 c 1,13,14
 346 877 346 877 311.5 908.5 c 128,-1,15
 277 940 277 940 261 985 c 128,-1,16
 245 1030 245 1030 239.5 1073.5 c 128,-1,17
 234 1117 234 1117 234 1174 c 0,18,19
 234 1277 234 1277 233 1324 c 128,-1,20
 232 1371 232 1371 226.5 1442 c 128,-1,21
 221 1513 221 1513 208 1543.5 c 128,-1,22
 195 1574 195 1574 172 1609 c 128,-1,23
 149 1644 149 1644 113 1656 c 128,-1,24
 77 1668 77 1668 25 1668 c 1,25,-1
 25 1781 l 1,26,27
 81 1781 81 1781 127 1769 c 128,-1,28
 173 1757 173 1757 207 1739.5 c 128,-1,29
 241 1722 241 1722 267 1687 c 128,-1,30
 293 1652 293 1652 310 1622 c 128,-1,31
 327 1592 327 1592 339 1538.5 c 128,-1,32
 351 1485 351 1485 357 1447.5 c 128,-1,33
 363 1410 363 1410 366 1342 c 128,-1,34
 369 1274 369 1274 369.5 1233 c 128,-1,35
 370 1192 370 1192 370 1115 c 0,36,37
 370 1037 370 1037 396 996.5 c 128,-1,38
 422 956 422 956 501 956 c 1,39,-1
 501 768 l 1,40,41
 422 768 422 768 396 727.5 c 128,-1,42
 370 687 370 687 370 609 c 0,43,44
 370 532 370 532 369.5 491 c 128,-1,45
 369 450 369 450 366 382 c 128,-1,46
 363 314 363 314 357 276.5 c 128,-1,47
 351 239 351 239 339 185.5 c 128,-1,48
 327 132 327 132 310 102 c 128,-1,49
 293 72 293 72 267 37 c 128,-1,50
 241 2 241 2 207 -15.5 c 128,-1,51
 173 -33 173 -33 127 -45 c 128,-1,52
 81 -57 81 -57 25 -57 c 1,0,-1
EndSplineSet
EndChar

StartChar: asciitilde
Encoding: 126 126 97
Width: 815
Flags: W
LayerCount: 2
Fore
SplineSet
213 959 m 1,0,-1
 98 959 l 1,1,2
 99 978 99 978 101.5 996 c 128,-1,3
 104 1014 104 1014 115 1043.5 c 128,-1,4
 126 1073 126 1073 143.5 1093.5 c 128,-1,5
 161 1114 161 1114 195 1130 c 128,-1,6
 229 1146 229 1146 275 1146 c 0,7,8
 317 1146 317 1146 414.5 1108 c 128,-1,9
 512 1070 512 1070 550 1070 c 0,10,11
 579 1070 579 1070 595 1084.5 c 128,-1,12
 611 1099 611 1099 616 1137 c 1,13,-1
 732 1137 l 1,14,15
 732 1136 732 1136 731 1123.5 c 128,-1,16
 730 1111 730 1111 726.5 1095 c 128,-1,17
 723 1079 723 1079 717 1058 c 128,-1,18
 711 1037 711 1037 698.5 1018.5 c 128,-1,19
 686 1000 686 1000 668.5 983.5 c 128,-1,20
 651 967 651 967 622.5 957 c 128,-1,21
 594 947 594 947 558 947 c 0,22,23
 501 947 501 947 406.5 986 c 128,-1,24
 312 1025 312 1025 275 1025 c 0,25,26
 247 1025 247 1025 232.5 1011 c 128,-1,27
 218 997 218 997 213 959 c 1,0,-1
EndSplineSet
EndChar

StartChar: exclamdown
Encoding: 161 161 99
Width: 434
Flags: W
LayerCount: 2
Fore
SplineSet
304 1377 m 1,0,-1
 304 1198 l 1,1,-1
 119 1198 l 1,2,-1
 119 1377 l 1,3,-1
 304 1377 l 1,0,-1
245 989 m 1,4,-1
 325 -343 l 1,5,-1
 131 -343 l 1,6,-1
 191 989 l 1,7,-1
 245 989 l 1,4,-1
EndSplineSet
EndChar

StartChar: cent
Encoding: 162 162 100
Width: 760
Flags: W
LayerCount: 2
Fore
SplineSet
370 87 m 1,0,-1
 370 240 l 1,1,2
 309 244 309 244 261.5 264 c 128,-1,3
 214 284 214 284 183 309 c 128,-1,4
 152 334 152 334 131 382 c 128,-1,5
 110 430 110 430 99 466.5 c 128,-1,6
 88 503 88 503 83 570.5 c 128,-1,7
 78 638 78 638 77 677.5 c 128,-1,8
 76 717 76 717 76 794 c 2,9,-1
 76 856 l 2,10,11
 76 928 76 928 76.5 965.5 c 128,-1,12
 77 1003 77 1003 82.5 1069.5 c 128,-1,13
 88 1136 88 1136 98.5 1173.5 c 128,-1,14
 109 1211 109 1211 130.5 1260.5 c 128,-1,15
 152 1310 152 1310 182.5 1336.5 c 128,-1,16
 213 1363 213 1363 260.5 1384.5 c 128,-1,17
 308 1406 308 1406 369 1410 c 1,18,-1
 369 1543 l 1,19,-1
 434 1543 l 1,20,-1
 434 1409 l 1,21,22
 510 1403 510 1403 563 1369.5 c 128,-1,23
 616 1336 616 1336 645 1277 c 128,-1,24
 674 1218 674 1218 687.5 1154.5 c 128,-1,25
 701 1091 701 1091 706 1006 c 0,26,27
 706 1004 706 1004 706.5 999 c 128,-1,28
 707 994 707 994 707 992 c 1,29,-1
 557 992 l 1,30,-1
 557 1006 l 1,31,32
 556 1038 556 1038 555 1051 c 128,-1,33
 554 1064 554 1064 551.5 1098.5 c 128,-1,34
 549 1133 549 1133 544.5 1151 c 128,-1,35
 540 1169 540 1169 533 1198 c 128,-1,36
 526 1227 526 1227 514.5 1243 c 128,-1,37
 503 1259 503 1259 487.5 1276.5 c 128,-1,38
 472 1294 472 1294 450 1301.5 c 128,-1,39
 428 1309 428 1309 401 1309 c 0,40,41
 366 1309 366 1309 340 1299.5 c 128,-1,42
 314 1290 314 1290 295.5 1275.5 c 128,-1,43
 277 1261 277 1261 264.5 1229 c 128,-1,44
 252 1197 252 1197 245 1168 c 128,-1,45
 238 1139 238 1139 234 1083 c 128,-1,46
 230 1027 230 1027 228.5 982 c 128,-1,47
 227 937 227 937 226 856 c 1,48,-1
 226 794 l 2,49,50
 226 708 226 708 228.5 649 c 128,-1,51
 231 590 231 590 237.5 535 c 128,-1,52
 244 480 244 480 256 446.5 c 128,-1,53
 268 413 268 413 287.5 387 c 128,-1,54
 307 361 307 361 334.5 350 c 128,-1,55
 362 339 362 339 400 339 c 0,56,57
 421 339 421 339 439 344 c 128,-1,58
 457 349 457 349 471 360.5 c 128,-1,59
 485 372 485 372 496 382.5 c 128,-1,60
 507 393 507 393 515.5 414 c 128,-1,61
 524 435 524 435 530 448 c 128,-1,62
 536 461 536 461 540 488.5 c 128,-1,63
 544 516 544 516 546.5 529 c 128,-1,64
 549 542 549 542 551 572.5 c 128,-1,65
 553 603 553 603 554 612.5 c 128,-1,66
 555 622 555 622 556 652 c 0,67,68
 556 655 556 655 556.5 661 c 128,-1,69
 557 667 557 667 557 669 c 1,70,-1
 708 669 l 1,71,72
 708 667 708 667 707.5 663 c 128,-1,73
 707 659 707 659 707 657 c 0,74,75
 704 585 704 585 696 530 c 128,-1,76
 688 475 688 475 669.5 420.5 c 128,-1,77
 651 366 651 366 622 330 c 128,-1,78
 593 294 593 294 546 269.5 c 128,-1,79
 499 245 499 245 435 240 c 1,80,-1
 435 87 l 1,81,-1
 370 87 l 1,0,-1
EndSplineSet
EndChar

StartChar: sterling
Encoding: 163 163 101
Width: 836
Flags: W
LayerCount: 2
Fore
SplineSet
55 0 m 1,0,-1
 55 65 l 1,1,-1
 183 115 l 1,2,-1
 183 768 l 1,3,-1
 55 768 l 1,4,-1
 55 877 l 1,5,-1
 183 877 l 1,6,-1
 183 1204 l 2,7,8
 183 1247 183 1247 184.5 1284 c 128,-1,9
 186 1321 186 1321 193 1379 c 128,-1,10
 200 1437 200 1437 212.5 1483 c 128,-1,11
 225 1529 225 1529 249.5 1580.5 c 128,-1,12
 274 1632 274 1632 307.5 1666 c 128,-1,13
 341 1700 341 1700 392.5 1722.5 c 128,-1,14
 444 1745 444 1745 508 1745 c 0,15,16
 565 1745 565 1745 610.5 1727.5 c 128,-1,17
 656 1710 656 1710 684 1685 c 128,-1,18
 712 1660 712 1660 732.5 1620 c 128,-1,19
 753 1580 753 1580 762.5 1548 c 128,-1,20
 772 1516 772 1516 777.5 1471 c 128,-1,21
 783 1426 783 1426 783.5 1404.5 c 128,-1,22
 784 1383 784 1383 784 1350 c 0,23,24
 784 1345 784 1345 784 1343 c 1,25,-1
 664 1343 l 1,26,27
 664 1383 664 1383 663.5 1403 c 128,-1,28
 663 1423 663 1423 660 1458.5 c 128,-1,29
 657 1494 657 1494 651 1512.5 c 128,-1,30
 645 1531 645 1531 633.5 1555.5 c 128,-1,31
 622 1580 622 1580 605 1591.5 c 128,-1,32
 588 1603 588 1603 562 1611 c 128,-1,33
 536 1619 536 1619 502 1617 c 0,34,35
 477 1616 477 1616 457 1609.5 c 128,-1,36
 437 1603 437 1603 421 1590 c 128,-1,37
 405 1577 405 1577 392.5 1563.5 c 128,-1,38
 380 1550 380 1550 371.5 1525.5 c 128,-1,39
 363 1501 363 1501 356.5 1482 c 128,-1,40
 350 1463 350 1463 346 1429 c 128,-1,41
 342 1395 342 1395 339.5 1372 c 128,-1,42
 337 1349 337 1349 336 1306.5 c 128,-1,43
 335 1264 335 1264 335 1238.5 c 128,-1,44
 335 1213 335 1213 335 1164 c 2,45,-1
 335 883 l 1,46,-1
 624 883 l 1,47,-1
 624 768 l 1,48,-1
 335 768 l 1,49,-1
 335 115 l 1,50,-1
 783 115 l 1,51,-1
 783 0 l 1,52,-1
 55 0 l 1,0,-1
EndSplineSet
EndChar

StartChar: currency
Encoding: 164 164 102
Width: 1028
Flags: W
LayerCount: 2
Fore
SplineSet
516 311 m 1,0,1
 613 313 613 313 684 361 c 128,-1,2
 755 409 755 409 788 480.5 c 128,-1,3
 821 552 821 552 821 635 c 0,4,5
 821 764 821 764 740.5 859.5 c 128,-1,6
 660 955 660 955 516 959 c 1,7,8
 371 955 371 955 291 860 c 128,-1,9
 211 765 211 765 211 635 c 0,10,11
 211 552 211 552 243.5 481 c 128,-1,12
 276 410 276 410 347 361.5 c 128,-1,13
 418 313 418 313 516 311 c 1,0,1
168 189 m 1,14,-1
 246 313 l 1,15,16
 178 372 178 372 142 457 c 128,-1,17
 106 542 106 542 106 635 c 0,18,19
 106 726 106 726 140.5 810.5 c 128,-1,20
 175 895 175 895 241 953 c 1,21,-1
 168 1070 l 1,22,-1
 222 1108 l 1,23,-1
 294 992 l 1,24,25
 390 1051 390 1051 516 1051 c 0,26,27
 653 1051 653 1051 752 982 c 1,28,-1
 831 1108 l 1,29,-1
 885 1070 l 1,30,-1
 803 941 l 1,31,32
 863 882 863 882 894.5 801.5 c 128,-1,33
 926 721 926 721 926 635 c 0,34,35
 926 547 926 547 893.5 465.5 c 128,-1,36
 861 384 861 384 799 325 c 1,37,-1
 885 189 l 1,38,-1
 831 151 l 1,39,-1
 747 284 l 1,40,41
 648 219 648 219 516 219 c 0,42,43
 393 219 393 219 299 275 c 1,44,-1
 222 151 l 1,45,-1
 168 189 l 1,14,-1
EndSplineSet
EndChar

StartChar: yen
Encoding: 165 165 103
Width: 909
Flags: W
LayerCount: 2
Fore
SplineSet
386 0 m 1,0,-1
 386 226 l 1,1,-1
 174 226 l 1,2,-1
 174 317 l 1,3,-1
 386 317 l 1,4,-1
 386 523 l 1,5,-1
 174 523 l 1,6,-1
 174 612 l 1,7,-1
 361 612 l 1,8,-1
 10 1721 l 1,9,-1
 179 1721 l 1,10,-1
 461 689 l 1,11,12
 506 853 506 853 556 1037 c 128,-1,13
 606 1221 606 1221 647 1372.5 c 128,-1,14
 688 1524 688 1524 743 1721 c 1,15,-1
 902 1721 l 1,16,-1
 562 612 l 1,17,-1
 743 612 l 1,18,-1
 743 523 l 1,19,-1
 538 523 l 1,20,-1
 538 317 l 1,21,-1
 743 317 l 1,22,-1
 743 226 l 1,23,-1
 538 226 l 1,24,-1
 538 0 l 1,25,-1
 386 0 l 1,0,-1
EndSplineSet
EndChar

StartChar: brokenbar
Encoding: 166 166 104
Width: 403
Flags: W
LayerCount: 2
Fore
SplineSet
137 889 m 1,0,-1
 137 1441 l 1,1,-1
 269 1441 l 1,2,-1
 269 889 l 1,3,-1
 137 889 l 1,0,-1
137 -14 m 1,4,-1
 137 537 l 1,5,-1
 269 537 l 1,6,-1
 269 -14 l 1,7,-1
 137 -14 l 1,4,-1
EndSplineSet
EndChar

StartChar: section
Encoding: 167 167 105
Width: 834
Flags: W
LayerCount: 2
Fore
SplineSet
392 722 m 2,0,-1
 538 595 l 1,1,2
 622 633 622 633 622 758 c 0,3,4
 622 875 622 875 417 1053 c 2,5,-1
 348 1113 l 1,6,7
 292 1104 292 1104 260 1060 c 128,-1,8
 228 1016 228 1016 228 952 c 0,9,10
 228 921 228 921 240 891 c 128,-1,11
 252 861 252 861 280.5 829.5 c 128,-1,12
 309 798 309 798 329.5 778.5 c 128,-1,13
 350 759 350 759 392 722 c 2,0,-1
78 300 m 1,14,-1
 193 339 l 1,15,16
 207 295 207 295 227.5 254 c 128,-1,17
 248 213 248 213 277 172 c 128,-1,18
 306 131 306 131 345.5 106 c 128,-1,19
 385 81 385 81 428 81 c 0,20,21
 507 81 507 81 546.5 129 c 128,-1,22
 586 177 586 177 586 259 c 0,23,24
 586 374 586 374 381 554 c 2,25,-1
 294 630 l 2,26,27
 253 666 253 666 239.5 678.5 c 128,-1,28
 226 691 226 691 192.5 723 c 128,-1,29
 159 755 159 755 145.5 774 c 128,-1,30
 132 793 132 793 113 822.5 c 128,-1,31
 94 852 94 852 87 880.5 c 128,-1,32
 80 909 80 909 80 939 c 0,33,34
 80 1037 80 1037 124.5 1104 c 128,-1,35
 169 1171 169 1171 249 1201 c 1,36,37
 185 1261 185 1261 150.5 1317.5 c 128,-1,38
 116 1374 116 1374 116 1438 c 0,39,40
 116 1573 116 1573 198 1647.5 c 128,-1,41
 280 1722 280 1722 417 1722 c 0,42,43
 482 1722 482 1722 535 1697 c 128,-1,44
 588 1672 588 1672 624 1627.5 c 128,-1,45
 660 1583 660 1583 684.5 1531.5 c 128,-1,46
 709 1480 709 1480 724 1418 c 1,47,-1
 591 1377 l 1,48,49
 582 1433 582 1433 562.5 1483 c 128,-1,50
 543 1533 543 1533 502.5 1573.5 c 128,-1,51
 462 1614 462 1614 410 1614 c 0,52,53
 343 1614 343 1614 303.5 1568.5 c 128,-1,54
 264 1523 264 1523 264 1451 c 0,55,56
 264 1410 264 1410 290.5 1366.5 c 128,-1,57
 317 1323 317 1323 345.5 1295 c 128,-1,58
 374 1267 374 1267 428 1221 c 2,59,-1
 523 1139 l 2,60,61
 576 1093 576 1093 610.5 1058 c 128,-1,62
 645 1023 645 1023 683.5 974 c 128,-1,63
 722 925 722 925 742 871.5 c 128,-1,64
 762 818 762 818 763 761 c 1,65,66
 763 674 763 674 726 609.5 c 128,-1,67
 689 545 689 545 623 510 c 1,68,69
 724 393 724 393 727 262 c 1,70,71
 727 128 727 128 642.5 50.5 c 128,-1,72
 558 -27 558 -27 422 -27 c 0,73,74
 290 -27 290 -27 201.5 65.5 c 128,-1,75
 113 158 113 158 78 300 c 1,14,-1
EndSplineSet
EndChar

StartChar: dieresis
Encoding: 168 168 106
Width: 795
Flags: W
LayerCount: 2
Fore
SplineSet
497 1386 m 1,0,-1
 497 1565 l 1,1,-1
 681 1565 l 1,2,-1
 681 1386 l 1,3,-1
 497 1386 l 1,0,-1
113 1386 m 1,4,-1
 113 1565 l 1,5,-1
 297 1565 l 1,6,-1
 297 1386 l 1,7,-1
 113 1386 l 1,4,-1
EndSplineSet
EndChar

StartChar: copyright
Encoding: 169 169 107
Width: 1378
Flags: W
LayerCount: 2
Fore
SplineSet
696 67 m 128,-1,1
 801 67 801 67 890 100 c 128,-1,2
 979 133 979 133 1041.5 189.5 c 128,-1,3
 1104 246 1104 246 1148.5 321.5 c 128,-1,4
 1193 397 1193 397 1214.5 482 c 128,-1,5
 1236 567 1236 567 1236 657 c 128,-1,6
 1236 747 1236 747 1214.5 832 c 128,-1,7
 1193 917 1193 917 1148.5 992.5 c 128,-1,8
 1104 1068 1104 1068 1041.5 1124.5 c 128,-1,9
 979 1181 979 1181 890 1214 c 128,-1,10
 801 1247 801 1247 696 1247 c 128,-1,11
 591 1247 591 1247 502 1214 c 128,-1,12
 413 1181 413 1181 350.5 1124.5 c 128,-1,13
 288 1068 288 1068 243.5 992.5 c 128,-1,14
 199 917 199 917 177.5 832 c 128,-1,15
 156 747 156 747 156 657 c 128,-1,16
 156 567 156 567 177.5 482 c 128,-1,17
 199 397 199 397 243.5 321.5 c 128,-1,18
 288 246 288 246 350.5 189.5 c 128,-1,19
 413 133 413 133 502 100 c 128,-1,0
 591 67 591 67 696 67 c 128,-1,1
696 -2 m 128,-1,21
 574 -2 574 -2 470.5 35 c 128,-1,22
 367 72 367 72 293.5 135 c 128,-1,23
 220 198 220 198 168 282.5 c 128,-1,24
 116 367 116 367 91 462 c 128,-1,25
 66 557 66 557 66 657 c 128,-1,26
 66 757 66 757 91 852 c 128,-1,27
 116 947 116 947 168 1031.5 c 128,-1,28
 220 1116 220 1116 293.5 1179 c 128,-1,29
 367 1242 367 1242 470.5 1279 c 128,-1,30
 574 1316 574 1316 696 1316 c 128,-1,31
 818 1316 818 1316 921.5 1279 c 128,-1,32
 1025 1242 1025 1242 1098.5 1179 c 128,-1,33
 1172 1116 1172 1116 1224 1031.5 c 128,-1,34
 1276 947 1276 947 1301 852 c 128,-1,35
 1326 757 1326 757 1326 657 c 128,-1,36
 1326 557 1326 557 1301 462 c 128,-1,37
 1276 367 1276 367 1224 282.5 c 128,-1,38
 1172 198 1172 198 1098.5 135 c 128,-1,39
 1025 72 1025 72 921.5 35 c 128,-1,20
 818 -2 818 -2 696 -2 c 128,-1,21
830 505 m 1,40,-1
 917 505 l 1,41,42
 917 499 917 499 916.5 488.5 c 128,-1,43
 916 478 916 478 912 448.5 c 128,-1,44
 908 419 908 419 900.5 392.5 c 128,-1,45
 893 366 893 366 877 333.5 c 128,-1,46
 861 301 861 301 839 277.5 c 128,-1,47
 817 254 817 254 781.5 238 c 128,-1,48
 746 222 746 222 702 222 c 0,49,50
 663 222 663 222 631 231 c 128,-1,51
 599 240 599 240 576 253.5 c 128,-1,52
 553 267 553 267 534.5 291 c 128,-1,53
 516 315 516 315 504 337.5 c 128,-1,54
 492 360 492 360 484 395.5 c 128,-1,55
 476 431 476 431 471.5 457.5 c 128,-1,56
 467 484 467 484 465 526.5 c 128,-1,57
 463 569 463 569 462.5 595.5 c 128,-1,58
 462 622 462 622 462 667 c 128,-1,59
 462 712 462 712 462.5 738.5 c 128,-1,60
 463 765 463 765 465 807.5 c 128,-1,61
 467 850 467 850 471.5 876.5 c 128,-1,62
 476 903 476 903 484 938.5 c 128,-1,63
 492 974 492 974 504 996.5 c 128,-1,64
 516 1019 516 1019 534.5 1043 c 128,-1,65
 553 1067 553 1067 576 1080.5 c 128,-1,66
 599 1094 599 1094 631 1103 c 128,-1,67
 663 1112 663 1112 702 1112 c 0,68,69
 748 1112 748 1112 784.5 1095.5 c 128,-1,70
 821 1079 821 1079 843 1057 c 128,-1,71
 865 1035 865 1035 880.5 1000.5 c 128,-1,72
 896 966 896 966 903 942.5 c 128,-1,73
 910 919 910 919 913.5 885.5 c 128,-1,74
 917 852 917 852 917 846.5 c 128,-1,75
 917 841 917 841 917 829 c 1,76,-1
 830 829 l 1,77,78
 829 876 829 876 823.5 909.5 c 128,-1,79
 818 943 818 943 805 975 c 128,-1,80
 792 1007 792 1007 766 1023.5 c 128,-1,81
 740 1040 740 1040 701 1040 c 0,82,83
 667 1040 667 1040 643.5 1032 c 128,-1,84
 620 1024 620 1024 603.5 1003 c 128,-1,85
 587 982 587 982 577.5 956.5 c 128,-1,86
 568 931 568 931 563 884 c 128,-1,87
 558 837 558 837 556.5 790 c 128,-1,88
 555 743 555 743 555 667 c 128,-1,89
 555 591 555 591 556.5 544 c 128,-1,90
 558 497 558 497 563 450 c 128,-1,91
 568 403 568 403 577.5 377.5 c 128,-1,92
 587 352 587 352 603.5 331 c 128,-1,93
 620 310 620 310 643.5 302 c 128,-1,94
 667 294 667 294 701 294 c 0,95,96
 740 294 740 294 766 310.5 c 128,-1,97
 792 327 792 327 805 359 c 128,-1,98
 818 391 818 391 823.5 424.5 c 128,-1,99
 829 458 829 458 830 505 c 1,40,-1
EndSplineSet
EndChar

StartChar: ordfeminine
Encoding: 170 170 108
Width: 745
Flags: W
LayerCount: 2
Fore
SplineSet
493 193 m 1,0,-1
 493 524 l 1,1,2
 417 475 417 475 376 445 c 128,-1,3
 335 415 335 415 294 376 c 128,-1,4
 253 337 253 337 236.5 298 c 128,-1,5
 220 259 220 259 220 212 c 0,6,7
 220 145 220 145 250 113 c 128,-1,8
 280 81 280 81 321 81 c 0,9,10
 368 81 368 81 416.5 112.5 c 128,-1,11
 465 144 465 144 493 193 c 1,0,-1
518 0 m 1,12,-1
 502 120 l 1,13,14
 462 50 462 50 403 13.5 c 128,-1,15
 344 -23 344 -23 291 -23 c 0,16,17
 214 -23 214 -23 154 35.5 c 128,-1,18
 94 94 94 94 94 189 c 0,19,20
 94 222 94 222 95.5 241.5 c 128,-1,21
 97 261 97 261 104.5 293 c 128,-1,22
 112 325 112 325 127 347 c 128,-1,23
 142 369 142 369 171 400 c 128,-1,24
 200 431 200 431 242 457.5 c 128,-1,25
 284 484 284 484 347.5 516 c 128,-1,26
 411 548 411 548 493 580 c 1,27,28
 493 675 493 675 483.5 736 c 128,-1,29
 474 797 474 797 454.5 823.5 c 128,-1,30
 435 850 435 850 416.5 858 c 128,-1,31
 398 866 398 866 371 866 c 0,32,33
 348 866 348 866 330.5 859.5 c 128,-1,34
 313 853 313 853 292.5 834.5 c 128,-1,35
 272 816 272 816 259 774 c 128,-1,36
 246 732 246 732 243 670 c 1,37,-1
 113 670 l 1,38,39
 123 801 123 801 190 875.5 c 128,-1,40
 257 950 257 950 366 950 c 0,41,42
 427 950 427 950 473.5 930.5 c 128,-1,43
 520 911 520 911 547 880.5 c 128,-1,44
 574 850 574 850 591 807.5 c 128,-1,45
 608 765 608 765 614 725 c 128,-1,46
 620 685 620 685 620 639 c 2,47,-1
 620 220 l 2,48,49
 620 170 620 170 624 115 c 128,-1,50
 628 60 628 60 632 30 c 2,51,-1
 635 0 l 1,52,-1
 518 0 l 1,12,-1
EndSplineSet
EndChar

StartChar: guillemotleft
Encoding: 171 171 109
Width: 874
Flags: W
LayerCount: 2
Fore
SplineSet
778 124 m 1,0,-1
 390 576 l 1,1,-1
 390 704 l 1,2,-1
 778 1156 l 1,3,-1
 778 956 l 1,4,-1
 502 641 l 1,5,-1
 778 324 l 1,6,-1
 778 124 l 1,0,-1
466 124 m 1,7,-1
 78 576 l 1,8,-1
 78 704 l 1,9,-1
 466 1156 l 1,10,-1
 466 956 l 1,11,-1
 190 641 l 1,12,-1
 466 324 l 1,13,-1
 466 124 l 1,7,-1
EndSplineSet
EndChar

StartChar: logicalnot
Encoding: 172 172 110
Width: 657
Flags: W
LayerCount: 2
Fore
SplineSet
100 448 m 1,0,-1
 100 563 l 1,1,-1
 540 563 l 1,2,-1
 540 256 l 1,3,-1
 484 256 l 1,4,-1
 484 448 l 1,5,-1
 100 448 l 1,0,-1
EndSplineSet
EndChar

StartChar: uni00AD
Encoding: 173 173 111
Width: 659
Flags: W
LayerCount: 2
Fore
SplineSet
117 448 m 1,0,-1
 117 563 l 1,1,-1
 558 563 l 1,2,-1
 558 448 l 1,3,-1
 117 448 l 1,0,-1
EndSplineSet
EndChar

StartChar: registered
Encoding: 174 174 112
Width: 1378
Flags: W
LayerCount: 2
Fore
SplineSet
696 67 m 128,-1,1
 801 67 801 67 890 100 c 128,-1,2
 979 133 979 133 1041.5 189.5 c 128,-1,3
 1104 246 1104 246 1148.5 321.5 c 128,-1,4
 1193 397 1193 397 1214.5 482 c 128,-1,5
 1236 567 1236 567 1236 657 c 128,-1,6
 1236 747 1236 747 1214.5 832 c 128,-1,7
 1193 917 1193 917 1148.5 992.5 c 128,-1,8
 1104 1068 1104 1068 1041.5 1124.5 c 128,-1,9
 979 1181 979 1181 890 1214 c 128,-1,10
 801 1247 801 1247 696 1247 c 128,-1,11
 591 1247 591 1247 502 1214 c 128,-1,12
 413 1181 413 1181 350.5 1124.5 c 128,-1,13
 288 1068 288 1068 243.5 992.5 c 128,-1,14
 199 917 199 917 177.5 832 c 128,-1,15
 156 747 156 747 156 657 c 128,-1,16
 156 567 156 567 177.5 482 c 128,-1,17
 199 397 199 397 243.5 321.5 c 128,-1,18
 288 246 288 246 350.5 189.5 c 128,-1,19
 413 133 413 133 502 100 c 128,-1,0
 591 67 591 67 696 67 c 128,-1,1
696 -2 m 128,-1,21
 574 -2 574 -2 470.5 35 c 128,-1,22
 367 72 367 72 293.5 135 c 128,-1,23
 220 198 220 198 168 282.5 c 128,-1,24
 116 367 116 367 91 462 c 128,-1,25
 66 557 66 557 66 657 c 128,-1,26
 66 757 66 757 91 852 c 128,-1,27
 116 947 116 947 168 1031.5 c 128,-1,28
 220 1116 220 1116 293.5 1179 c 128,-1,29
 367 1242 367 1242 470.5 1279 c 128,-1,30
 574 1316 574 1316 696 1316 c 128,-1,31
 818 1316 818 1316 921.5 1279 c 128,-1,32
 1025 1242 1025 1242 1098.5 1179 c 128,-1,33
 1172 1116 1172 1116 1224 1031.5 c 128,-1,34
 1276 947 1276 947 1301 852 c 128,-1,35
 1326 757 1326 757 1326 657 c 128,-1,36
 1326 557 1326 557 1301 462 c 128,-1,37
 1276 367 1276 367 1224 282.5 c 128,-1,38
 1172 198 1172 198 1098.5 135 c 128,-1,39
 1025 72 1025 72 921.5 35 c 128,-1,20
 818 -2 818 -2 696 -2 c 128,-1,21
576 695 m 1,40,-1
 643 695 l 2,41,42
 678 695 678 695 690 695 c 128,-1,43
 702 695 702 695 731.5 697.5 c 128,-1,44
 761 700 761 700 772 705 c 128,-1,45
 783 710 783 710 802.5 721 c 128,-1,46
 822 732 822 732 830 747.5 c 128,-1,47
 838 763 838 763 844.5 787 c 128,-1,48
 851 811 851 811 851 843 c 0,49,50
 851 940 851 940 810 986 c 128,-1,51
 769 1032 769 1032 682 1032 c 2,52,-1
 576 1032 l 1,53,-1
 576 695 l 1,40,-1
504 241 m 1,54,-1
 504 1083 l 1,55,-1
 695 1083 l 2,56,57
 931 1083 931 1083 931 843 c 0,58,59
 931 773 931 773 884 720.5 c 128,-1,60
 837 668 837 668 783 657 c 1,61,62
 797 628 797 628 937 244 c 1,63,-1
 851 244 l 1,64,-1
 718 646 l 1,65,-1
 576 646 l 1,66,-1
 576 241 l 1,67,-1
 504 241 l 1,54,-1
EndSplineSet
EndChar

StartChar: macron
Encoding: 175 175 113
Width: 702
Flags: W
LayerCount: 2
Fore
SplineSet
131 1383 m 1,0,-1
 131 1498 l 1,1,-1
 572 1498 l 1,2,-1
 572 1383 l 1,3,-1
 131 1383 l 1,0,-1
EndSplineSet
EndChar

StartChar: degree
Encoding: 176 176 114
Width: 637
Flags: W
LayerCount: 2
Fore
SplineSet
317 1722 m 128,-1,1
 424 1722 424 1722 480 1657 c 128,-1,2
 536 1592 536 1592 536 1504 c 128,-1,3
 536 1416 536 1416 480 1351 c 128,-1,4
 424 1286 424 1286 317 1286 c 128,-1,5
 210 1286 210 1286 154 1351 c 128,-1,6
 98 1416 98 1416 98 1504 c 128,-1,7
 98 1592 98 1592 154 1657 c 128,-1,0
 210 1722 210 1722 317 1722 c 128,-1,1
176 1504 m 128,-1,9
 176 1445 176 1445 210 1401 c 128,-1,10
 244 1357 244 1357 317 1357 c 128,-1,11
 390 1357 390 1357 424 1401 c 128,-1,12
 458 1445 458 1445 458 1504 c 128,-1,13
 458 1563 458 1563 424 1607 c 128,-1,14
 390 1651 390 1651 317 1651 c 128,-1,15
 244 1651 244 1651 210 1607 c 128,-1,8
 176 1563 176 1563 176 1504 c 128,-1,9
EndSplineSet
EndChar

StartChar: plusminus
Encoding: 177 177 115
Width: 702
Flags: W
LayerCount: 2
Fore
SplineSet
298 384 m 1,0,-1
 298 576 l 1,1,-1
 106 576 l 1,2,-1
 106 691 l 1,3,-1
 298 691 l 1,4,-1
 298 883 l 1,5,-1
 418 883 l 1,6,-1
 418 691 l 1,7,-1
 610 691 l 1,8,-1
 610 576 l 1,9,-1
 418 576 l 1,10,-1
 418 384 l 1,11,-1
 298 384 l 1,0,-1
106 0 m 1,12,-1
 106 115 l 1,13,-1
 610 115 l 1,14,-1
 610 0 l 1,15,-1
 106 0 l 1,12,-1
EndSplineSet
EndChar

StartChar: acute
Encoding: 180 180 116
Width: 444
Flags: W
LayerCount: 2
Fore
SplineSet
96 1324 m 1,0,-1
 219 1722 l 1,1,-1
 381 1722 l 1,2,-1
 152 1324 l 1,3,-1
 96 1324 l 1,0,-1
EndSplineSet
EndChar

StartChar: paragraph
Encoding: 182 182 117
Width: 969
Flags: W
LayerCount: 2
Fore
SplineSet
389 0 m 1,0,-1
 389 876 l 1,1,2
 219 876 219 876 121 951.5 c 128,-1,3
 23 1027 23 1027 23 1165 c 0,4,5
 23 1304 23 1304 116 1381.5 c 128,-1,6
 209 1459 209 1459 394 1459 c 2,7,-1
 831 1459 l 1,8,-1
 831 0 l 1,9,-1
 725 0 l 1,10,-1
 725 876 l 1,11,-1
 514 876 l 1,12,-1
 514 0 l 1,13,-1
 389 0 l 1,0,-1
EndSplineSet
EndChar

StartChar: periodcentered
Encoding: 183 183 118
Width: 446
Flags: W
LayerCount: 2
Fore
SplineSet
131 704 m 1,0,-1
 131 883 l 1,1,-1
 316 883 l 1,2,-1
 316 704 l 1,3,-1
 131 704 l 1,0,-1
EndSplineSet
EndChar

StartChar: cedilla
Encoding: 184 184 119
Width: 449
Flags: W
LayerCount: 2
Fore
SplineSet
111 -394 m 1,0,-1
 111 -335 l 1,1,2
 258 -335 258 -335 258 -268 c 0,3,4
 258 -237 258 -237 229 -200.5 c 128,-1,5
 200 -164 200 -164 155 -134 c 1,6,-1
 155 0 l 1,7,-1
 219 0 l 1,8,-1
 219 -115 l 1,9,10
 361 -198 361 -198 361 -277 c 0,11,12
 361 -329 361 -329 294.5 -361.5 c 128,-1,13
 228 -394 228 -394 111 -394 c 1,0,-1
EndSplineSet
EndChar

StartChar: ordmasculine
Encoding: 186 186 120
Width: 715
Flags: W
LayerCount: 2
Fore
SplineSet
111 1234 m 2,0,-1
 111 1283 l 2,1,2
 111 1332 111 1332 111.5 1357 c 128,-1,3
 112 1382 112 1382 114 1428.5 c 128,-1,4
 116 1475 116 1475 120 1500.5 c 128,-1,5
 124 1526 124 1526 132.5 1565 c 128,-1,6
 141 1604 141 1604 153 1626 c 128,-1,7
 165 1648 165 1648 184 1674 c 128,-1,8
 203 1700 203 1700 227 1714 c 128,-1,9
 251 1728 251 1728 284.5 1737.5 c 128,-1,10
 318 1747 318 1747 358 1747 c 128,-1,11
 398 1747 398 1747 431.5 1737.5 c 128,-1,12
 465 1728 465 1728 489.5 1714 c 128,-1,13
 514 1700 514 1700 532.5 1674 c 128,-1,14
 551 1648 551 1648 563.5 1626 c 128,-1,15
 576 1604 576 1604 584.5 1565 c 128,-1,16
 593 1526 593 1526 597 1500.5 c 128,-1,17
 601 1475 601 1475 603 1428.5 c 128,-1,18
 605 1382 605 1382 605.5 1357 c 128,-1,19
 606 1332 606 1332 606 1283 c 2,20,-1
 606 1234 l 2,21,22
 606 1167 606 1167 605.5 1133 c 128,-1,23
 605 1099 605 1099 600.5 1040.5 c 128,-1,24
 596 982 596 982 587 951 c 128,-1,25
 578 920 578 920 560 880 c 128,-1,26
 542 840 542 840 516 819.5 c 128,-1,27
 490 799 490 799 450 784.5 c 128,-1,28
 410 770 410 770 358 770 c 0,29,30
 298 770 298 770 254 786 c 128,-1,31
 210 802 210 802 184 840 c 128,-1,32
 158 878 158 878 142 912 c 128,-1,33
 126 946 126 946 120 1011 c 128,-1,34
 114 1076 114 1076 112.5 1116 c 128,-1,35
 111 1156 111 1156 111 1234 c 2,0,-1
228 1283 m 2,36,-1
 228 1234 l 2,37,38
 228 1014 228 1014 253.5 931.5 c 128,-1,39
 279 849 279 849 358 849 c 0,40,41
 438 849 438 849 463.5 931.5 c 128,-1,42
 489 1014 489 1014 489 1234 c 2,43,-1
 489 1283 l 2,44,45
 489 1372 489 1372 486.5 1429.5 c 128,-1,46
 484 1487 484 1487 476 1536.5 c 128,-1,47
 468 1586 468 1586 453.5 1612.5 c 128,-1,48
 439 1639 439 1639 415.5 1653.5 c 128,-1,49
 392 1668 392 1668 358 1668 c 0,50,51
 276 1668 276 1668 252 1586 c 128,-1,52
 228 1504 228 1504 228 1283 c 2,36,-1
EndSplineSet
EndChar

StartChar: guillemotright
Encoding: 187 187 121
Width: 872
Flags: W
LayerCount: 2
Fore
SplineSet
423 124 m 1,0,-1
 423 324 l 1,1,-1
 699 641 l 1,2,-1
 423 956 l 1,3,-1
 423 1156 l 1,4,-1
 811 704 l 1,5,-1
 811 576 l 1,6,-1
 423 124 l 1,0,-1
111 124 m 1,7,-1
 111 324 l 1,8,-1
 387 641 l 1,9,-1
 111 956 l 1,10,-1
 111 1156 l 1,11,-1
 499 704 l 1,12,-1
 499 576 l 1,13,-1
 111 124 l 1,7,-1
EndSplineSet
EndChar

StartChar: onequarter
Encoding: 188 188 122
Width: 1499
Flags: W
LayerCount: 2
Fore
SplineSet
192 588 m 1,0,-1
 192 1497 l 1,1,2
 150 1468 150 1468 93 1442 c 128,-1,3
 36 1416 36 1416 0 1408 c 1,4,-1
 0 1533 l 1,5,6
 60 1555 60 1555 130 1603.5 c 128,-1,7
 200 1652 200 1652 241 1721 c 1,8,-1
 328 1721 l 1,9,-1
 328 588 l 1,10,-1
 192 588 l 1,0,-1
348 0 m 1,11,-1
 900 1721 l 1,12,-1
 1045 1721 l 1,13,-1
 492 0 l 1,14,-1
 348 0 l 1,11,-1
1028 378 m 1,15,-1
 1258 378 l 1,16,-1
 1257 1016 l 1,17,-1
 1028 378 l 1,15,-1
883 276 m 1,18,-1
 883 371 l 1,19,-1
 1184 1132 l 1,20,-1
 1394 1132 l 1,21,-1
 1394 378 l 1,22,-1
 1528 378 l 1,23,-1
 1528 276 l 1,24,-1
 1394 276 l 1,25,-1
 1394 -1 l 1,26,-1
 1258 -1 l 1,27,-1
 1258 276 l 1,28,-1
 883 276 l 1,18,-1
EndSplineSet
EndChar

StartChar: onehalf
Encoding: 189 189 123
Width: 1716
Flags: W
LayerCount: 2
Fore
SplineSet
1126 -1 m 1,0,-1
 1126 99 l 1,1,-1
 1431 558 l 1,2,3
 1548 746 1548 746 1548 836 c 0,4,5
 1548 1048 1548 1048 1424 1048 c 0,6,7
 1376 1048 1376 1048 1343.5 1027 c 128,-1,8
 1311 1006 1311 1006 1296 966 c 128,-1,9
 1281 926 1281 926 1275.5 884 c 128,-1,10
 1270 842 1270 842 1270 784 c 1,11,-1
 1128 784 l 1,12,13
 1128 962 1128 962 1200 1059 c 128,-1,14
 1272 1156 1272 1156 1423 1156 c 0,15,16
 1556 1156 1556 1156 1623 1071 c 128,-1,17
 1690 986 1690 986 1690 837 c 0,18,19
 1690 721 1690 721 1560 519 c 2,20,-1
 1295 110 l 1,21,-1
 1676 110 l 1,22,-1
 1676 -1 l 1,23,-1
 1126 -1 l 1,0,-1
468 0 m 1,24,-1
 1020 1721 l 1,25,-1
 1165 1721 l 1,26,-1
 612 0 l 1,27,-1
 468 0 l 1,24,-1
192 588 m 1,28,-1
 192 1497 l 1,29,30
 150 1468 150 1468 93 1442 c 128,-1,31
 36 1416 36 1416 0 1408 c 1,32,-1
 0 1533 l 1,33,34
 60 1555 60 1555 130 1603.5 c 128,-1,35
 200 1652 200 1652 241 1721 c 1,36,-1
 328 1721 l 1,37,-1
 328 588 l 1,38,-1
 192 588 l 1,28,-1
EndSplineSet
EndChar

StartChar: threequarters
Encoding: 190 190 124
Width: 1890
Flags: W
LayerCount: 2
Fore
SplineSet
1418 378 m 1,0,-1
 1648 378 l 1,1,-1
 1647 1016 l 1,2,-1
 1418 378 l 1,0,-1
1273 276 m 1,3,-1
 1273 371 l 1,4,-1
 1574 1132 l 1,5,-1
 1784 1132 l 1,6,-1
 1784 378 l 1,7,-1
 1918 378 l 1,8,-1
 1918 276 l 1,9,-1
 1784 276 l 1,10,-1
 1784 -1 l 1,11,-1
 1648 -1 l 1,12,-1
 1648 276 l 1,13,-1
 1273 276 l 1,3,-1
645 0 m 1,14,-1
 1197 1721 l 1,15,-1
 1342 1721 l 1,16,-1
 789 0 l 1,17,-1
 645 0 l 1,14,-1
59 955 m 1,18,-1
 189 955 l 1,19,20
 189 898 189 898 194.5 856 c 128,-1,21
 200 814 200 814 215 774 c 128,-1,22
 230 734 230 734 261 713.5 c 128,-1,23
 292 693 292 693 338 693 c 0,24,25
 414 693 414 693 447 748.5 c 128,-1,26
 480 804 480 804 480 914 c 0,27,28
 480 980 480 980 433.5 1056 c 128,-1,29
 387 1132 387 1132 319 1146 c 1,30,-1
 319 1230 l 1,31,32
 397 1252 397 1252 438.5 1307.5 c 128,-1,33
 480 1363 480 1363 480 1425 c 0,34,35
 480 1638 480 1638 348 1638 c 0,36,37
 308 1638 308 1638 278.5 1623 c 128,-1,38
 249 1608 249 1608 232 1584.5 c 128,-1,39
 215 1561 215 1561 205 1525 c 128,-1,40
 195 1489 195 1489 192 1454 c 128,-1,41
 189 1419 189 1419 189 1374 c 1,42,-1
 59 1374 l 1,43,44
 59 1551 59 1551 130 1647.5 c 128,-1,45
 201 1744 201 1744 347 1744 c 0,46,47
 475 1744 475 1744 542.5 1656 c 128,-1,48
 610 1568 610 1568 610 1436 c 0,49,50
 610 1362 610 1362 565 1291 c 128,-1,51
 520 1220 520 1220 452 1188 c 1,52,53
 518 1149 518 1149 564 1066 c 128,-1,54
 610 983 610 983 610 913 c 0,55,56
 610 764 610 764 541 675.5 c 128,-1,57
 472 587 472 587 337 587 c 0,58,59
 196 587 196 587 127.5 683.5 c 128,-1,60
 59 780 59 780 59 955 c 1,18,-1
EndSplineSet
EndChar

StartChar: questiondown
Encoding: 191 191 125
Width: 811
Flags: W
LayerCount: 2
Fore
SplineSet
566 1378 m 1,0,-1
 566 1198 l 1,1,-1
 382 1198 l 1,2,-1
 382 1378 l 1,3,-1
 566 1378 l 1,0,-1
541 926 m 1,4,-1
 541 586 l 1,5,6
 468 543 468 543 408.5 497.5 c 128,-1,7
 349 452 349 452 309 411 c 128,-1,8
 269 370 269 370 239 327 c 128,-1,9
 209 284 209 284 192 248.5 c 128,-1,10
 175 213 175 213 165 176 c 128,-1,11
 155 139 155 139 152 113.5 c 128,-1,12
 149 88 149 88 149 62 c 0,13,14
 149 -19 149 -19 170 -80 c 128,-1,15
 191 -141 191 -141 227.5 -176 c 128,-1,16
 264 -211 264 -211 308 -228.5 c 128,-1,17
 352 -246 352 -246 402 -246 c 0,18,19
 520 -246 520 -246 596 -166 c 128,-1,20
 672 -86 672 -86 673 58 c 2,21,-1
 674 200 l 1,22,-1
 808 200 l 1,23,-1
 808 54 l 2,24,25
 808 -46 808 -46 773 -127.5 c 128,-1,26
 738 -209 738 -209 680.5 -260.5 c 128,-1,27
 623 -312 623 -312 551 -340 c 128,-1,28
 479 -368 479 -368 402 -368 c 0,29,30
 342 -368 342 -368 286 -351.5 c 128,-1,31
 230 -335 230 -335 180 -300.5 c 128,-1,32
 130 -266 130 -266 93 -216.5 c 128,-1,33
 56 -167 56 -167 34 -96 c 128,-1,34
 12 -25 12 -25 12 60 c 0,35,36
 12 240 12 240 110.5 379.5 c 128,-1,37
 209 519 209 519 407 642 c 1,38,-1
 407 926 l 1,39,-1
 541 926 l 1,4,-1
EndSplineSet
EndChar

StartChar: AE
Encoding: 198 198 132
Width: 1380
Flags: W
LayerCount: 2
Fore
SplineSet
365 549 m 1,0,-1
 719 549 l 1,1,-1
 719 1563 l 1,2,-1
 365 549 l 1,0,-1
12 0 m 1,3,-1
 648 1721 l 1,4,-1
 1320 1721 l 1,5,-1
 1320 1599 l 1,6,-1
 872 1599 l 1,7,-1
 872 947 l 1,8,-1
 1192 947 l 1,9,-1
 1192 832 l 1,10,-1
 872 832 l 1,11,-1
 872 122 l 1,12,-1
 1320 122 l 1,13,-1
 1320 0 l 1,14,-1
 720 0 l 1,15,-1
 720 448 l 1,16,-1
 329 448 l 1,17,-1
 164 0 l 1,18,-1
 12 0 l 1,3,-1
EndSplineSet
EndChar

StartChar: Eth
Encoding: 208 208 142
Width: 1128
Flags: W
LayerCount: 2
Fore
SplineSet
335 122 m 1,0,-1
 570 122 l 2,1,2
 857 122 857 122 857 474 c 2,3,-1
 857 1242 l 2,4,5
 857 1599 857 1599 570 1599 c 2,6,-1
 335 1599 l 1,7,-1
 335 924 l 1,8,-1
 535 924 l 1,9,-1
 535 830 l 1,10,-1
 335 830 l 1,11,-1
 335 122 l 1,0,-1
183 0 m 1,12,-1
 183 830 l 1,13,-1
 43 830 l 1,14,-1
 43 924 l 1,15,-1
 183 924 l 1,16,-1
 183 1721 l 1,17,-1
 570 1721 l 2,18,19
 668 1721 668 1721 744 1694.5 c 128,-1,20
 820 1668 820 1668 869.5 1622.5 c 128,-1,21
 919 1577 919 1577 950.5 1511 c 128,-1,22
 982 1445 982 1445 995.5 1371 c 128,-1,23
 1009 1297 1009 1297 1009 1208 c 2,24,-1
 1009 508 l 2,25,26
 1009 0 1009 0 570 0 c 2,27,-1
 183 0 l 1,12,-1
EndSplineSet
EndChar

StartChar: multiply
Encoding: 215 215 149
Width: 674
Flags: W
LayerCount: 2
Fore
SplineSet
51 410 m 1,0,-1
 243 602 l 1,1,-1
 51 794 l 1,2,-1
 127 869 l 1,3,-1
 319 677 l 1,4,-1
 511 869 l 1,5,-1
 587 794 l 1,6,-1
 395 602 l 1,7,8
 562 434 562 434 587 410 c 1,9,-1
 511 334 l 1,10,-1
 319 526 l 1,11,-1
 127 334 l 1,12,-1
 51 410 l 1,0,-1
EndSplineSet
EndChar

StartChar: Oslash
Encoding: 216 216 150
Width: 1106
Flags: W
LayerCount: 2
Fore
SplineSet
992 499 m 2,0,1
 992 -27 992 -27 553 -27 c 0,2,3
 416 -27 416 -27 320 25 c 1,4,-1
 263 -152 l 1,5,-1
 199 -132 l 1,6,-1
 262 65 l 1,7,8
 114 193 114 193 114 499 c 2,9,-1
 114 1220 l 2,10,11
 114 1311 114 1311 127.5 1387 c 128,-1,12
 141 1463 141 1463 173 1530.5 c 128,-1,13
 205 1598 205 1598 254 1644.5 c 128,-1,14
 303 1691 303 1691 379 1718 c 128,-1,15
 455 1745 455 1745 553 1745 c 0,16,17
 690 1745 690 1745 785 1692 c 1,18,-1
 842 1870 l 1,19,-1
 907 1850 l 1,20,-1
 843 1652 l 1,21,22
 992 1522 992 1522 992 1220 c 2,23,-1
 992 499 l 2,0,1
553 95 m 0,24,25
 840 95 840 95 840 465 c 2,26,-1
 840 1254 l 2,27,28
 840 1405 840 1405 793 1495 c 1,29,-1
 363 159 l 1,30,31
 433 95 433 95 553 95 c 0,24,25
266 1254 m 2,32,-1
 266 465 l 2,33,34
 266 314 266 314 313 224 c 1,35,-1
 742 1560 l 1,36,37
 674 1623 674 1623 553 1623 c 0,38,39
 266 1623 266 1623 266 1254 c 2,32,-1
EndSplineSet
EndChar

StartChar: Thorn
Encoding: 222 222 156
Width: 1058
Flags: W
LayerCount: 2
Fore
SplineSet
298 628 m 1,0,-1
 584 627 l 2,1,2
 712 626 712 626 767 715 c 128,-1,3
 822 804 822 804 822 996 c 0,4,5
 822 1174 822 1174 763 1257 c 128,-1,6
 704 1340 704 1340 584 1340 c 2,7,-1
 298 1340 l 1,8,-1
 298 628 l 1,0,-1
146 0 m 1,9,-1
 146 1721 l 1,10,-1
 298 1721 l 1,11,-1
 298 1462 l 1,12,-1
 567 1462 l 2,13,14
 657 1462 657 1462 727 1437.5 c 128,-1,15
 797 1413 797 1413 843 1371 c 128,-1,16
 889 1329 889 1329 919 1269 c 128,-1,17
 949 1209 949 1209 961.5 1142.5 c 128,-1,18
 974 1076 974 1076 974 999 c 0,19,20
 974 920 974 920 963.5 853 c 128,-1,21
 953 786 953 786 924.5 720 c 128,-1,22
 896 654 896 654 851.5 608.5 c 128,-1,23
 807 563 807 563 734 534.5 c 128,-1,24
 661 506 661 506 566 506 c 2,25,-1
 298 506 l 1,26,-1
 298 0 l 1,27,-1
 146 0 l 1,9,-1
EndSplineSet
EndChar

StartChar: germandbls
Encoding: 223 223 157
Width: 1053
Flags: W
LayerCount: 2
Fore
SplineSet
137 0 m 1,0,-1
 137 1338 l 2,1,2
 137 1436 137 1436 168.5 1515.5 c 128,-1,3
 200 1595 200 1595 252.5 1644.5 c 128,-1,4
 305 1694 305 1694 370.5 1720 c 128,-1,5
 436 1746 436 1746 506 1746 c 0,6,7
 575 1746 575 1746 638.5 1719 c 128,-1,8
 702 1692 702 1692 753.5 1641.5 c 128,-1,9
 805 1591 805 1591 835.5 1510 c 128,-1,10
 866 1429 866 1429 866 1328 c 0,11,12
 866 1258 866 1258 843 1187.5 c 128,-1,13
 820 1117 820 1117 769.5 1056 c 128,-1,14
 719 995 719 995 650 967 c 1,15,16
 724 950 724 950 781.5 907.5 c 128,-1,17
 839 865 839 865 872 812 c 128,-1,18
 905 759 905 759 926 692.5 c 128,-1,19
 947 626 947 626 954 569 c 128,-1,20
 961 512 961 512 961 453 c 0,21,22
 961 -27 961 -27 384 -27 c 1,23,-1
 384 89 l 1,24,25
 491 89 491 89 569.5 110 c 128,-1,26
 648 131 648 131 693 164 c 128,-1,27
 738 197 738 197 765 247 c 128,-1,28
 792 297 792 297 800.5 344.5 c 128,-1,29
 809 392 809 392 809 453 c 0,30,31
 809 528 809 528 801 588 c 128,-1,32
 793 648 793 648 771 706 c 128,-1,33
 749 764 749 764 713.5 803 c 128,-1,34
 678 842 678 842 619 865.5 c 128,-1,35
 560 889 560 889 481 889 c 2,36,-1
 376 889 l 1,37,-1
 376 1006 l 1,38,-1
 483 1006 l 2,39,40
 544 1006 544 1006 588.5 1032 c 128,-1,41
 633 1058 633 1058 657 1104.5 c 128,-1,42
 681 1151 681 1151 692 1205.5 c 128,-1,43
 703 1260 703 1260 703 1325 c 0,44,45
 703 1473 703 1473 642.5 1555.5 c 128,-1,46
 582 1638 582 1638 499 1638 c 0,47,48
 414 1638 414 1638 351.5 1558 c 128,-1,49
 289 1478 289 1478 289 1335 c 2,50,-1
 289 0 l 1,51,-1
 137 0 l 1,0,-1
EndSplineSet
EndChar

StartChar: ae
Encoding: 230 230 164
Width: 1255
Flags: W
LayerCount: 2
Fore
SplineSet
707 708 m 2,0,-1
 707 704 l 1,1,2
 787 720 787 720 844.5 744 c 128,-1,3
 902 768 902 768 933.5 793.5 c 128,-1,4
 965 819 965 819 983 852 c 128,-1,5
 1001 885 1001 885 1005.5 911 c 128,-1,6
 1010 937 1010 937 1010 970 c 0,7,8
 1010 1035 1010 1035 979 1079.5 c 128,-1,9
 948 1124 948 1124 893 1124 c 0,10,11
 863 1124 863 1124 838 1117 c 128,-1,12
 813 1110 813 1110 795 1100 c 128,-1,13
 777 1090 777 1090 763 1069 c 128,-1,14
 749 1048 749 1048 739.5 1030.5 c 128,-1,15
 730 1013 730 1013 723.5 979.5 c 128,-1,16
 717 946 717 946 714 923 c 128,-1,17
 711 900 711 900 709.5 856.5 c 128,-1,18
 708 813 708 813 707.5 786 c 128,-1,19
 707 759 707 759 707 708 c 2,0,-1
553 489 m 2,20,-1
 553 586 l 1,21,22
 358 516 358 516 291.5 452.5 c 128,-1,23
 225 389 225 389 225 267 c 0,24,25
 225 184 225 184 255 140.5 c 128,-1,26
 285 97 285 97 328 97 c 0,27,28
 386 97 386 97 432 142.5 c 128,-1,29
 478 188 478 188 503 254 c 128,-1,30
 528 320 528 320 540.5 382 c 128,-1,31
 553 444 553 444 553 489 c 2,20,-1
253 889 m 1,32,-1
 97 889 l 1,33,34
 109 1046 109 1046 189.5 1135.5 c 128,-1,35
 270 1225 270 1225 401 1225 c 0,36,37
 566 1225 566 1225 633 1072 c 1,38,39
 715 1225 715 1225 886 1225 c 0,40,41
 996 1225 996 1225 1070 1152 c 128,-1,42
 1144 1079 1144 1079 1144 958 c 0,43,44
 1144 900 1144 900 1120 850.5 c 128,-1,45
 1096 801 1096 801 1057 767.5 c 128,-1,46
 1018 734 1018 734 971.5 707 c 128,-1,47
 925 680 925 680 878.5 664 c 128,-1,48
 832 648 832 648 793 637.5 c 128,-1,49
 754 627 754 627 730 624 c 2,50,-1
 706 620 l 1,51,-1
 706 445 l 2,52,53
 706 302 706 302 728 217.5 c 128,-1,54
 750 133 750 133 783.5 103.5 c 128,-1,55
 817 74 817 74 868 74 c 0,56,57
 900 74 900 74 924.5 85 c 128,-1,58
 949 96 949 96 970.5 124.5 c 128,-1,59
 992 153 992 153 1004 208.5 c 128,-1,60
 1016 264 1016 264 1018 346 c 1,61,-1
 1018 367 l 1,62,-1
 1158 367 l 1,63,-1
 1156 345 l 2,64,65
 1150 278 1150 278 1140 227.5 c 128,-1,66
 1130 177 1130 177 1109 127 c 128,-1,67
 1088 77 1088 77 1058 45 c 128,-1,68
 1028 13 1028 13 979 -7 c 128,-1,69
 930 -27 930 -27 865 -27 c 0,70,71
 759 -27 759 -27 690 35 c 128,-1,72
 621 97 621 97 598 209 c 1,73,74
 579 142 579 142 542.5 92.5 c 128,-1,75
 506 43 506 43 463 19 c 128,-1,76
 420 -5 420 -5 382 -16 c 128,-1,77
 344 -27 344 -27 311 -27 c 0,78,79
 218 -27 218 -27 146 46.5 c 128,-1,80
 74 120 74 120 74 239 c 0,81,82
 74 271 74 271 75 290 c 128,-1,83
 76 309 76 309 80.5 339.5 c 128,-1,84
 85 370 85 370 93.5 389.5 c 128,-1,85
 102 409 102 409 118.5 437 c 128,-1,86
 135 465 135 465 159 485.5 c 128,-1,87
 183 506 183 506 219 532 c 128,-1,88
 255 558 255 558 302 580 c 128,-1,89
 349 602 349 602 412.5 626.5 c 128,-1,90
 476 651 476 651 553 675 c 1,91,-1
 553 751 l 1,92,93
 552 851 552 851 543.5 922 c 128,-1,94
 535 993 535 993 522 1031.5 c 128,-1,95
 509 1070 509 1070 488 1091.5 c 128,-1,96
 467 1113 467 1113 449.5 1118.5 c 128,-1,97
 432 1124 432 1124 406 1124 c 128,-1,98
 380 1124 380 1124 359 1117 c 128,-1,99
 338 1110 338 1110 314.5 1089.5 c 128,-1,100
 291 1069 291 1069 275 1023 c 128,-1,101
 259 977 259 977 254 908 c 0,102,103
 254 905 254 905 253.5 898.5 c 128,-1,104
 253 892 253 892 253 889 c 1,32,-1
EndSplineSet
EndChar

StartChar: eth
Encoding: 240 240 174
Width: 877
Flags: W
LayerCount: 2
Fore
SplineSet
234 545 m 1,0,-1
 234 531 l 2,1,2
 234 367 234 367 255 269.5 c 128,-1,3
 276 172 276 172 314 133.5 c 128,-1,4
 352 95 352 95 412 95 c 0,5,6
 453 95 453 95 480.5 103.5 c 128,-1,7
 508 112 508 112 534 139.5 c 128,-1,8
 560 167 560 167 575.5 216 c 128,-1,9
 591 265 591 265 600 348.5 c 128,-1,10
 609 432 609 432 609 551 c 0,11,12
 609 702 609 702 594 931 c 1,13,14
 571 952 571 952 513.5 964.5 c 128,-1,15
 456 977 456 977 402 977 c 0,16,17
 346 977 346 977 310.5 939 c 128,-1,18
 275 901 275 901 255 804 c 128,-1,19
 235 707 235 707 234 545 c 1,0,-1
84 532 m 2,20,-1
 84 537 l 2,21,22
 84 661 84 661 102 760.5 c 128,-1,23
 120 860 120 860 157 937 c 128,-1,24
 194 1014 194 1014 256 1056.5 c 128,-1,25
 318 1099 318 1099 402 1099 c 0,26,27
 517 1099 517 1099 585 1054 c 1,28,29
 559 1238 559 1238 517 1358 c 1,30,-1
 352 1321 l 1,31,-1
 352 1416 l 1,32,-1
 480 1445 l 1,33,34
 430 1538 430 1538 356.5 1575.5 c 128,-1,35
 283 1613 283 1613 166 1623 c 1,36,-1
 152 1745 l 1,37,38
 319 1733 319 1733 431.5 1670 c 128,-1,39
 544 1607 544 1607 614 1475 c 1,40,-1
 793 1516 l 1,41,-1
 793 1421 l 1,42,-1
 653 1389 l 1,43,44
 757 1118 757 1118 758 535 c 1,45,-1
 758 510 l 2,46,47
 758 246 758 246 676 109.5 c 128,-1,48
 594 -27 594 -27 412 -27 c 0,49,50
 325 -27 325 -27 260.5 15 c 128,-1,51
 196 57 196 57 158 134 c 128,-1,52
 120 211 120 211 102 310 c 128,-1,53
 84 409 84 409 84 532 c 2,20,-1
EndSplineSet
EndChar

StartChar: divide
Encoding: 247 247 181
Width: 674
Flags: W
LayerCount: 2
Fore
SplineSet
227 233 m 1,0,-1
 227 412 l 1,1,-1
 411 412 l 1,2,-1
 411 233 l 1,3,-1
 227 233 l 1,0,-1
227 879 m 1,4,-1
 227 1058 l 1,5,-1
 411 1058 l 1,6,-1
 411 879 l 1,7,-1
 227 879 l 1,4,-1
35 576 m 1,8,-1
 35 691 l 1,9,-1
 603 691 l 1,10,-1
 603 576 l 1,11,-1
 35 576 l 1,8,-1
EndSplineSet
EndChar

StartChar: oslash
Encoding: 248 248 182
Width: 850
Flags: W
LayerCount: 2
Fore
SplineSet
740 568 m 2,0,1
 740 501 740 501 739.5 467 c 128,-1,2
 739 433 739 433 736.5 372.5 c 128,-1,3
 734 312 734 312 728.5 279 c 128,-1,4
 723 246 723 246 712 197 c 128,-1,5
 701 148 701 148 685.5 121 c 128,-1,6
 670 94 670 94 646 61.5 c 128,-1,7
 622 29 622 29 591 12.5 c 128,-1,8
 560 -4 560 -4 517.5 -15.5 c 128,-1,9
 475 -27 475 -27 423 -27 c 0,10,11
 337 -27 337 -27 274 3 c 1,12,-1
 191 -256 l 1,13,-1
 143 -240 l 1,14,-1
 230 31 l 1,15,16
 200 55 200 55 178 88.5 c 128,-1,17
 156 122 156 122 143 168 c 128,-1,18
 130 214 130 214 122 253 c 128,-1,19
 114 292 114 292 110.5 355.5 c 128,-1,20
 107 419 107 419 106.5 457 c 128,-1,21
 106 495 106 495 106 568 c 2,22,-1
 106 630 l 2,23,24
 106 710 106 710 107 752.5 c 128,-1,25
 108 795 108 795 113.5 868.5 c 128,-1,26
 119 942 119 942 130.5 983 c 128,-1,27
 142 1024 142 1024 165 1077 c 128,-1,28
 188 1130 188 1130 221.5 1157.5 c 128,-1,29
 255 1185 255 1185 306 1205 c 128,-1,30
 357 1225 357 1225 423 1225 c 0,31,32
 529 1225 529 1225 598 1178 c 1,33,-1
 695 1481 l 1,34,-1
 744 1465 l 1,35,-1
 640 1140 l 1,36,37
 676 1100 676 1100 697.5 1044 c 128,-1,38
 719 988 719 988 727.5 909.5 c 128,-1,39
 736 831 736 831 738 778.5 c 128,-1,40
 740 726 740 726 740 630 c 2,41,-1
 740 568 l 2,0,1
423 74 m 0,42,43
 524 74 524 74 557 180 c 128,-1,44
 590 286 590 286 590 568 c 2,45,-1
 590 630 l 2,46,47
 590 844 590 844 576 941 c 1,48,-1
 314 127 l 1,49,50
 350 74 350 74 423 74 c 0,42,43
256 630 m 2,51,-1
 256 568 l 2,52,53
 256 299 256 299 284 198 c 1,54,-1
 552 1036 l 1,55,56
 517 1124 517 1124 423 1124 c 0,57,58
 386 1124 386 1124 359.5 1112.5 c 128,-1,59
 333 1101 333 1101 314 1073.5 c 128,-1,60
 295 1046 295 1046 284 1010.5 c 128,-1,61
 273 975 273 975 266.5 914.5 c 128,-1,62
 260 854 260 854 258 790 c 128,-1,63
 256 726 256 726 256 630 c 2,51,-1
EndSplineSet
EndChar

StartChar: thorn
Encoding: 254 254 188
Width: 874
Flags: W
LayerCount: 2
Fore
SplineSet
615 545 m 2,0,-1
 615 640 l 2,1,2
 615 750 615 750 610 832 c 128,-1,3
 605 914 605 914 593.5 964.5 c 128,-1,4
 582 1015 582 1015 570.5 1046.5 c 128,-1,5
 559 1078 559 1078 540.5 1092 c 128,-1,6
 522 1106 522 1106 507.5 1110 c 128,-1,7
 493 1114 493 1114 471 1114 c 0,8,9
 377 1114 377 1114 270 995 c 1,10,-1
 270 205 l 1,11,12
 315 151 315 151 368 117.5 c 128,-1,13
 421 84 421 84 466 84 c 0,14,15
 486 84 486 84 498.5 86 c 128,-1,16
 511 88 511 88 528.5 97 c 128,-1,17
 546 106 546 106 557 124 c 128,-1,18
 568 142 568 142 580 175.5 c 128,-1,19
 592 209 592 209 599 257 c 128,-1,20
 606 305 606 305 610.5 378 c 128,-1,21
 615 451 615 451 615 545 c 2,0,-1
120 -385 m 1,22,-1
 120 1721 l 1,23,-1
 270 1721 l 1,24,-1
 270 1085 l 1,25,26
 317 1154 317 1154 377.5 1189.5 c 128,-1,27
 438 1225 438 1225 501 1225 c 0,28,29
 544 1225 544 1225 576 1216.5 c 128,-1,30
 608 1208 608 1208 646 1173.5 c 128,-1,31
 684 1139 684 1139 708 1079 c 128,-1,32
 732 1019 732 1019 748.5 907.5 c 128,-1,33
 765 796 765 796 765 641 c 2,34,-1
 765 546 l 2,35,36
 765 438 765 438 756.5 351 c 128,-1,37
 748 264 748 264 734.5 205.5 c 128,-1,38
 721 147 721 147 700 103.5 c 128,-1,39
 679 60 679 60 658 35.5 c 128,-1,40
 637 11 637 11 610 -3.5 c 128,-1,41
 583 -18 583 -18 561 -22.5 c 128,-1,42
 539 -27 539 -27 512 -27 c 0,43,44
 360 -27 360 -27 270 113 c 1,45,-1
 270 -385 l 1,46,-1
 120 -385 l 1,22,-1
EndSplineSet
EndChar

StartChar: Dcroat
Encoding: 272 272 206
Width: 1128
Flags: W
LayerCount: 2
Fore
SplineSet
335 122 m 1,0,-1
 570 122 l 2,1,2
 857 122 857 122 857 474 c 2,3,-1
 857 1242 l 2,4,5
 857 1599 857 1599 570 1599 c 2,6,-1
 335 1599 l 1,7,-1
 335 924 l 1,8,-1
 535 924 l 1,9,-1
 535 830 l 1,10,-1
 335 830 l 1,11,-1
 335 122 l 1,0,-1
183 0 m 1,12,-1
 183 830 l 1,13,-1
 43 830 l 1,14,-1
 43 924 l 1,15,-1
 183 924 l 1,16,-1
 183 1721 l 1,17,-1
 570 1721 l 2,18,19
 668 1721 668 1721 744 1694.5 c 128,-1,20
 820 1668 820 1668 869.5 1622.5 c 128,-1,21
 919 1577 919 1577 950.5 1511 c 128,-1,22
 982 1445 982 1445 995.5 1371 c 128,-1,23
 1009 1297 1009 1297 1009 1208 c 2,24,-1
 1009 508 l 2,25,26
 1009 0 1009 0 570 0 c 2,27,-1
 183 0 l 1,12,-1
EndSplineSet
EndChar

StartChar: dcroat
Encoding: 273 273 207
Width: 892
Flags: W
LayerCount: 2
Fore
SplineSet
418 1399 m 1,0,-1
 418 1484 l 1,1,-1
 596 1484 l 1,2,-1
 596 1721 l 1,3,-1
 746 1721 l 1,4,-1
 746 1484 l 1,5,-1
 860 1484 l 1,6,-1
 860 1399 l 1,7,-1
 746 1399 l 1,8,-1
 746 0 l 1,9,-1
 596 0 l 1,10,-1
 596 113 l 1,11,12
 506 -27 506 -27 354 -27 c 0,13,14
 327 -27 327 -27 305 -22.5 c 128,-1,15
 283 -18 283 -18 256 -3.5 c 128,-1,16
 229 11 229 11 208 35.5 c 128,-1,17
 187 60 187 60 166 103.5 c 128,-1,18
 145 147 145 147 131.5 205.5 c 128,-1,19
 118 264 118 264 109.5 351 c 128,-1,20
 101 438 101 438 101 546 c 2,21,-1
 101 641 l 2,22,23
 101 796 101 796 117.5 907.5 c 128,-1,24
 134 1019 134 1019 158 1079 c 128,-1,25
 182 1139 182 1139 220 1173.5 c 128,-1,26
 258 1208 258 1208 290 1216.5 c 128,-1,27
 322 1225 322 1225 365 1225 c 0,28,29
 428 1225 428 1225 488.5 1189.5 c 128,-1,30
 549 1154 549 1154 596 1085 c 1,31,-1
 596 1399 l 1,32,-1
 418 1399 l 1,0,-1
596 205 m 1,33,-1
 596 995 l 1,34,35
 489 1114 489 1114 395 1114 c 0,36,37
 373 1114 373 1114 358.5 1110 c 128,-1,38
 344 1106 344 1106 325.5 1092 c 128,-1,39
 307 1078 307 1078 295.5 1046.5 c 128,-1,40
 284 1015 284 1015 272.5 964.5 c 128,-1,41
 261 914 261 914 256 832 c 128,-1,42
 251 750 251 750 251 640 c 2,43,-1
 251 545 l 2,44,45
 251 451 251 451 255.5 378 c 128,-1,46
 260 305 260 305 267 257 c 128,-1,47
 274 209 274 209 286 175.5 c 128,-1,48
 298 142 298 142 309 124 c 128,-1,49
 320 106 320 106 337.5 97 c 128,-1,50
 355 88 355 88 367.5 86 c 128,-1,51
 380 84 380 84 400 84 c 0,52,53
 445 84 445 84 498 117.5 c 128,-1,54
 551 151 551 151 596 205 c 1,33,-1
EndSplineSet
EndChar

StartChar: gcommaaccent
Encoding: 291 291 223
Width: 929
Flags: W
LayerCount: 2
Fore
SplineSet
501 1727 m 1,0,-1
 528 1672 l 1,1,2
 496 1660 496 1660 473 1634 c 128,-1,3
 450 1608 450 1608 440 1576 c 128,-1,4
 430 1544 430 1544 426 1518.5 c 128,-1,5
 422 1493 422 1493 422 1471 c 1,6,-1
 550 1471 l 1,7,-1
 550 1292 l 1,8,-1
 365 1292 l 1,9,10
 365 1300 365 1300 365 1315 c 0,11,12
 365 1369 365 1369 365.5 1395.5 c 128,-1,13
 366 1422 366 1422 367 1468.5 c 128,-1,14
 368 1515 368 1515 372 1538.5 c 128,-1,15
 376 1562 376 1562 382 1596.5 c 128,-1,16
 388 1631 388 1631 398 1649 c 128,-1,17
 408 1667 408 1667 422 1686.5 c 128,-1,18
 436 1706 436 1706 456 1715 c 128,-1,19
 476 1724 476 1724 501 1727 c 1,0,-1
428 468 m 128,-1,21
 478 468 478 468 515 491 c 128,-1,22
 552 514 552 514 572 547 c 128,-1,23
 592 580 592 580 604 625 c 128,-1,24
 616 670 616 670 619.5 705 c 128,-1,25
 623 740 623 740 623 776 c 0,26,27
 623 811 623 811 620 846.5 c 128,-1,28
 617 882 617 882 604.5 930.5 c 128,-1,29
 592 979 592 979 572.5 1015 c 128,-1,30
 553 1051 553 1051 515.5 1077 c 128,-1,31
 478 1103 478 1103 428 1103 c 0,32,33
 386 1103 386 1103 352.5 1085.5 c 128,-1,34
 319 1068 319 1068 298.5 1038 c 128,-1,35
 278 1008 278 1008 264 974.5 c 128,-1,36
 250 941 250 941 243.5 901.5 c 128,-1,37
 237 862 237 862 234.5 833 c 128,-1,38
 232 804 232 804 232 776 c 0,39,40
 232 739 232 739 235 704.5 c 128,-1,41
 238 670 238 670 250.5 624.5 c 128,-1,42
 263 579 263 579 283 546.5 c 128,-1,43
 303 514 303 514 340.5 491 c 128,-1,20
 378 468 378 468 428 468 c 128,-1,21
524 3 m 1,44,-1
 310 49 l 1,45,46
 260 12 260 12 209.5 -63 c 128,-1,47
 159 -138 159 -138 159 -191 c 0,48,49
 159 -214 159 -214 169.5 -231 c 128,-1,50
 180 -248 180 -248 202.5 -258 c 128,-1,51
 225 -268 225 -268 244.5 -274 c 128,-1,52
 264 -280 264 -280 299 -282.5 c 128,-1,53
 334 -285 334 -285 352 -285.5 c 128,-1,54
 370 -286 370 -286 405 -286 c 0,55,56
 414 -286 414 -286 418 -286 c 0,57,58
 683 -286 683 -286 683 -157 c 0,59,60
 683 -86 683 -86 646 -49.5 c 128,-1,61
 609 -13 609 -13 524 3 c 1,44,-1
214 210 m 0,62,63
 209 187 209 187 241 176 c 128,-1,64
 273 165 273 165 405 138 c 0,65,66
 446 130 446 130 469 125 c 0,67,68
 551 108 551 108 610 88.5 c 128,-1,69
 669 69 669 69 720.5 39.5 c 128,-1,70
 772 10 772 10 798 -32.5 c 128,-1,71
 824 -75 824 -75 824 -130 c 0,72,73
 824 -180 824 -180 807.5 -220.5 c 128,-1,74
 791 -261 791 -261 765 -288 c 128,-1,75
 739 -315 739 -315 701.5 -335 c 128,-1,76
 664 -355 664 -355 628 -366 c 128,-1,77
 592 -377 592 -377 549.5 -383.5 c 128,-1,78
 507 -390 507 -390 477 -391.5 c 128,-1,79
 447 -393 447 -393 416 -393 c 0,80,81
 17 -393 17 -393 17 -236 c 0,82,83
 17 -135 17 -135 82 -57 c 128,-1,84
 147 21 147 21 241 69 c 1,85,86
 226 72 226 72 192.5 81.5 c 128,-1,87
 159 91 159 91 117.5 111 c 128,-1,88
 76 131 76 131 76 150 c 0,89,90
 76 163 76 163 79.5 178.5 c 128,-1,91
 83 194 83 194 90.5 211.5 c 128,-1,92
 98 229 98 229 106 245.5 c 128,-1,93
 114 262 114 262 126 281.5 c 128,-1,94
 138 301 138 301 147 315.5 c 128,-1,95
 156 330 156 330 169 349 c 128,-1,96
 182 368 182 368 189 377 c 128,-1,97
 196 386 196 386 207 401 c 128,-1,98
 218 416 218 416 219 418 c 1,99,100
 148 482 148 482 113.5 583 c 128,-1,101
 79 684 79 684 79 793 c 0,102,103
 79 851 79 851 90 909 c 128,-1,104
 101 967 101 967 127.5 1024.5 c 128,-1,105
 154 1082 154 1082 192.5 1126 c 128,-1,106
 231 1170 231 1170 290.5 1197 c 128,-1,107
 350 1224 350 1224 423 1224 c 0,108,109
 519 1224 519 1224 582.5 1177.5 c 128,-1,110
 646 1131 646 1131 706 1038 c 1,111,112
 725 1071 725 1071 739.5 1093 c 128,-1,113
 754 1115 754 1115 778 1145 c 128,-1,114
 802 1175 802 1175 830 1194.5 c 128,-1,115
 858 1214 858 1214 888 1221 c 1,116,-1
 888 1076 l 1,117,118
 850 1069 850 1069 809 1042.5 c 128,-1,119
 768 1016 768 1016 737 981 c 1,120,121
 775 875 775 875 775 800 c 0,122,123
 775 728 775 728 763 664 c 128,-1,124
 751 600 751 600 724.5 543.5 c 128,-1,125
 698 487 698 487 658 446 c 128,-1,126
 618 405 618 405 559 381.5 c 128,-1,127
 500 358 500 358 427 358 c 0,128,129
 341 358 341 358 283 382 c 1,130,131
 228 278 228 278 214 210 c 0,62,63
EndSplineSet
EndChar

StartChar: Hbar
Encoding: 294 294 226
Width: 1118
Flags: W
LayerCount: 2
Fore
SplineSet
292 942 m 1,0,-1
 822 942 l 1,1,-1
 822 1331 l 1,2,-1
 292 1331 l 1,3,-1
 292 942 l 1,0,-1
140 0 m 1,4,-1
 140 1331 l 1,5,-1
 100 1331 l 1,6,-1
 100 1425 l 1,7,-1
 140 1425 l 1,8,-1
 140 1721 l 1,9,-1
 292 1721 l 1,10,-1
 292 1425 l 1,11,-1
 822 1425 l 1,12,-1
 822 1721 l 1,13,-1
 974 1721 l 1,14,-1
 974 1425 l 1,15,-1
 1014 1425 l 1,16,-1
 1014 1331 l 1,17,-1
 974 1331 l 1,18,-1
 974 0 l 1,19,-1
 822 0 l 1,20,-1
 822 836 l 1,21,-1
 292 836 l 1,22,-1
 292 0 l 1,23,-1
 140 0 l 1,4,-1
EndSplineSet
EndChar

StartChar: hbar
Encoding: 295 295 227
Width: 912
Flags: W
LayerCount: 2
Fore
SplineSet
154 0 m 1,0,-1
 154 1403 l 1,1,-1
 31 1403 l 1,2,-1
 31 1498 l 1,3,-1
 154 1498 l 1,4,-1
 154 1721 l 1,5,-1
 304 1721 l 1,6,-1
 304 1498 l 1,7,-1
 472 1498 l 1,8,-1
 472 1403 l 1,9,-1
 304 1403 l 1,10,-1
 304 1085 l 1,11,12
 350 1156 350 1156 414.5 1190.5 c 128,-1,13
 479 1225 479 1225 548 1225 c 0,14,15
 641 1225 641 1225 711.5 1151 c 128,-1,16
 782 1077 782 1077 782 942 c 2,17,-1
 782 0 l 1,18,-1
 630 0 l 1,19,-1
 630 934 l 2,20,21
 630 1012 630 1012 593.5 1050 c 128,-1,22
 557 1088 557 1088 509 1088 c 128,-1,23
 461 1088 461 1088 406 1061.5 c 128,-1,24
 351 1035 351 1035 305 992 c 1,25,-1
 305 0 l 1,26,-1
 154 0 l 1,0,-1
EndSplineSet
EndChar

StartChar: dotlessi
Encoding: 305 305 237
Width: 405
Flags: W
LayerCount: 2
Fore
SplineSet
132 0 m 1,0,-1
 132 1198 l 1,1,-1
 282 1198 l 1,2,-1
 282 0 l 1,3,-1
 132 0 l 1,0,-1
EndSplineSet
EndChar

StartChar: kgreenlandic
Encoding: 312 312 244
Width: 880
Flags: W
LayerCount: 2
Fore
SplineSet
120 0 m 1,0,-1
 120 1198 l 1,1,-1
 270 1198 l 1,2,-1
 270 600 l 1,3,-1
 644 1198 l 1,4,-1
 815 1198 l 1,5,-1
 520 717 l 1,6,-1
 816 0 l 1,7,-1
 654 0 l 1,8,-1
 411 619 l 1,9,-1
 270 420 l 1,10,-1
 270 0 l 1,11,-1
 120 0 l 1,0,-1
EndSplineSet
EndChar

StartChar: Lslash
Encoding: 321 321 253
Width: 827
Flags: W
LayerCount: 2
Fore
SplineSet
183 0 m 1,0,-1
 183 859 l 1,1,-1
 43 806 l 1,2,-1
 43 921 l 1,3,-1
 183 974 l 1,4,-1
 183 1721 l 1,5,-1
 335 1721 l 1,6,-1
 335 1031 l 1,7,-1
 586 1127 l 1,8,-1
 586 1012 l 1,9,-1
 335 916 l 1,10,-1
 335 122 l 1,11,-1
 816 122 l 1,12,-1
 816 0 l 1,13,-1
 183 0 l 1,0,-1
EndSplineSet
EndChar

StartChar: lslash
Encoding: 322 322 254
Width: 530
Flags: W
LayerCount: 2
Fore
SplineSet
183 0 m 1,0,-1
 183 873 l 1,1,-1
 43 806 l 1,2,-1
 43 921 l 1,3,-1
 183 988 l 1,4,-1
 183 1721 l 1,5,-1
 333 1721 l 1,6,-1
 333 1061 l 1,7,-1
 469 1127 l 1,8,-1
 469 1012 l 1,9,-1
 333 946 l 1,10,-1
 333 0 l 1,11,-1
 183 0 l 1,0,-1
EndSplineSet
EndChar

StartChar: OE
Encoding: 338 338 267
Width: 1499
Flags: W
LayerCount: 2
Fore
SplineSet
554 121 m 1,0,-1
 841 121 l 1,1,-1
 841 1599 l 1,2,-1
 554 1599 l 2,3,4
 473 1599 473 1599 415.5 1573 c 128,-1,5
 358 1547 358 1547 326.5 1498 c 128,-1,6
 295 1449 295 1449 281 1389.5 c 128,-1,7
 267 1330 267 1330 267 1254 c 2,8,-1
 267 465 l 2,9,10
 267 124 267 124 554 121 c 1,0,-1
115 499 m 2,11,-1
 115 1220 l 2,12,13
 115 1721 115 1721 554 1721 c 2,14,-1
 1441 1721 l 1,15,-1
 1441 1599 l 1,16,-1
 993 1599 l 1,17,-1
 993 947 l 1,18,-1
 1313 947 l 1,19,-1
 1313 832 l 1,20,-1
 993 832 l 1,21,-1
 993 122 l 1,22,-1
 1441 122 l 1,23,-1
 1441 0 l 1,24,-1
 554 0 l 2,25,26
 115 0 115 0 115 499 c 2,11,-1
EndSplineSet
EndChar

StartChar: oe
Encoding: 339 339 268
Width: 1332
Flags: W
LayerCount: 2
Fore
SplineSet
744 702 m 1,0,-1
 1076 702 l 1,1,2
 1076 720 1076 720 1076 758 c 0,3,4
 1076 792 1076 792 1075.5 810 c 128,-1,5
 1075 828 1075 828 1074.5 861 c 128,-1,6
 1074 894 1074 894 1072 912.5 c 128,-1,7
 1070 931 1070 931 1066.5 960 c 128,-1,8
 1063 989 1063 989 1057.5 1005.5 c 128,-1,9
 1052 1022 1052 1022 1044.5 1043.5 c 128,-1,10
 1037 1065 1037 1065 1026 1077.5 c 128,-1,11
 1015 1090 1015 1090 1001.5 1102 c 128,-1,12
 988 1114 988 1114 969.5 1119 c 128,-1,13
 951 1124 951 1124 930 1124 c 0,14,15
 900 1124 900 1124 875.5 1117.5 c 128,-1,16
 851 1111 851 1111 833 1101.5 c 128,-1,17
 815 1092 815 1092 801 1072.5 c 128,-1,18
 787 1053 787 1053 777.5 1035.5 c 128,-1,19
 768 1018 768 1018 761.5 986.5 c 128,-1,20
 755 955 755 955 751.5 930 c 128,-1,21
 748 905 748 905 746.5 861.5 c 128,-1,22
 745 818 745 818 744.5 787 c 128,-1,23
 744 756 744 756 744 702 c 1,0,-1
258 630 m 2,24,-1
 258 568 l 2,25,26
 258 286 258 286 291 180 c 128,-1,27
 324 74 324 74 425 74 c 128,-1,28
 526 74 526 74 559 180 c 128,-1,29
 592 286 592 286 592 568 c 2,30,-1
 592 630 l 2,31,32
 592 725 592 725 590 790 c 128,-1,33
 588 855 588 855 581.5 914.5 c 128,-1,34
 575 974 575 974 563.5 1010 c 128,-1,35
 552 1046 552 1046 533.5 1073.5 c 128,-1,36
 515 1101 515 1101 488.5 1112.5 c 128,-1,37
 462 1124 462 1124 425 1124 c 128,-1,38
 388 1124 388 1124 361.5 1112.5 c 128,-1,39
 335 1101 335 1101 316 1073.5 c 128,-1,40
 297 1046 297 1046 286 1010.5 c 128,-1,41
 275 975 275 975 268.5 914.5 c 128,-1,42
 262 854 262 854 260 790 c 128,-1,43
 258 726 258 726 258 630 c 2,24,-1
108 568 m 2,44,-1
 108 630 l 2,45,46
 108 710 108 710 109 752.5 c 128,-1,47
 110 795 110 795 115.5 868.5 c 128,-1,48
 121 942 121 942 132.5 983 c 128,-1,49
 144 1024 144 1024 167 1077 c 128,-1,50
 190 1130 190 1130 223.5 1157.5 c 128,-1,51
 257 1185 257 1185 308 1205 c 128,-1,52
 359 1225 359 1225 425 1225 c 0,53,54
 593 1225 593 1225 668 1104 c 1,55,56
 710 1172 710 1172 773 1198.5 c 128,-1,57
 836 1225 836 1225 923 1225 c 0,58,59
 1084 1225 1084 1225 1154.5 1111 c 128,-1,60
 1225 997 1225 997 1225 751 c 0,61,62
 1225 676 1225 676 1223 628 c 1,63,-1
 743 628 l 1,64,-1
 743 445 l 2,65,66
 743 327 743 327 754.5 251.5 c 128,-1,67
 766 176 766 176 791 138 c 128,-1,68
 816 100 816 100 846 87 c 128,-1,69
 876 74 876 74 922 74 c 0,70,71
 988 74 988 74 1033.5 142.5 c 128,-1,72
 1079 211 1079 211 1081 367 c 1,73,-1
 1220 367 l 1,74,75
 1214 300 1214 300 1204 247 c 128,-1,76
 1194 194 1194 194 1172.5 140.5 c 128,-1,77
 1151 87 1151 87 1119.5 52 c 128,-1,78
 1088 17 1088 17 1038.5 -5 c 128,-1,79
 989 -27 989 -27 924 -27 c 0,80,81
 831 -27 831 -27 769 -0.5 c 128,-1,82
 707 26 707 26 668 87 c 1,83,84
 593 -27 593 -27 425 -27 c 0,85,86
 373 -27 373 -27 330.5 -15.5 c 128,-1,87
 288 -4 288 -4 257 12.5 c 128,-1,88
 226 29 226 29 202 61.5 c 128,-1,89
 178 94 178 94 162.5 121 c 128,-1,90
 147 148 147 148 136 197 c 128,-1,91
 125 246 125 246 119.5 279 c 128,-1,92
 114 312 114 312 111.5 372.5 c 128,-1,93
 109 433 109 433 108.5 467 c 128,-1,94
 108 501 108 501 108 568 c 2,44,-1
EndSplineSet
EndChar

StartChar: florin
Encoding: 402 402 307
Width: 500
Flags: W
LayerCount: 2
Fore
SplineSet
-41 -381 m 1,0,-1
 -41 -272 l 1,1,2
 -17 -278 -17 -278 33 -278 c 0,3,4
 66 -278 66 -278 89 -268 c 128,-1,5
 112 -258 112 -258 123.5 -246 c 128,-1,6
 135 -234 135 -234 141 -210 c 128,-1,7
 147 -186 147 -186 147.5 -171 c 128,-1,8
 148 -156 148 -156 148 -128 c 0,9,10
 148 -123 148 -123 148 -120 c 2,11,-1
 148 1367 l 2,12,13
 148 1408 148 1408 150.5 1439.5 c 128,-1,14
 153 1471 153 1471 165.5 1513.5 c 128,-1,15
 178 1556 178 1556 200 1584 c 128,-1,16
 222 1612 222 1612 264 1632 c 128,-1,17
 306 1652 306 1652 365 1652 c 0,18,19
 434 1652 434 1652 487 1639 c 1,20,-1
 487 1530 l 1,21,22
 463 1536 463 1536 413 1536 c 0,23,24
 380 1536 380 1536 357 1526 c 128,-1,25
 334 1516 334 1516 322.5 1504 c 128,-1,26
 311 1492 311 1492 305 1468 c 128,-1,27
 299 1444 299 1444 298.5 1429 c 128,-1,28
 298 1414 298 1414 298 1386 c 0,29,30
 298 1381 298 1381 298 1378 c 2,31,-1
 298 -110 l 2,32,33
 298 -151 298 -151 295.5 -182 c 128,-1,34
 293 -213 293 -213 280.5 -256 c 128,-1,35
 268 -299 268 -299 246 -326.5 c 128,-1,36
 224 -354 224 -354 182 -374 c 128,-1,37
 140 -394 140 -394 81 -394 c 0,38,39
 12 -394 12 -394 -41 -381 c 1,0,-1
EndSplineSet
EndChar

StartChar: uni0237
Encoding: 567 567 350
Width: 410
Flags: W
LayerCount: 2
Fore
SplineSet
-72 -312 m 1,0,-1
 -72 -204 l 1,1,2
 -26 -206 -26 -206 -16 -206 c 0,3,4
 17 -206 17 -206 41.5 -197 c 128,-1,5
 66 -188 66 -188 80 -170.5 c 128,-1,6
 94 -153 94 -153 103 -136 c 128,-1,7
 112 -119 112 -119 115 -93.5 c 128,-1,8
 118 -68 118 -68 119 -54 c 128,-1,9
 120 -40 120 -40 120 -18 c 2,10,-1
 120 1198 l 1,11,-1
 270 1198 l 1,12,-1
 270 -46 l 2,13,14
 270 -320 270 -320 9 -320 c 0,15,16
 -31 -320 -31 -320 -72 -312 c 1,0,-1
EndSplineSet
EndChar

StartChar: circumflex
Encoding: 710 710 351
Width: 713
Flags: W
LayerCount: 2
Fore
SplineSet
94 1408 m 1,0,-1
 250 1715 l 1,1,-1
 463 1715 l 1,2,-1
 616 1408 l 1,3,-1
 506 1408 l 1,4,-1
 356 1707 l 1,5,-1
 207 1408 l 1,6,-1
 94 1408 l 1,0,-1
EndSplineSet
EndChar

StartChar: caron
Encoding: 711 711 352
Width: 618
Flags: W
LayerCount: 2
Fore
SplineSet
283 1324 m 1,0,-1
 74 1671 l 1,1,-1
 216 1671 l 1,2,-1
 311 1434 l 1,3,-1
 406 1671 l 1,4,-1
 548 1671 l 1,5,-1
 339 1324 l 1,6,-1
 283 1324 l 1,0,-1
EndSplineSet
EndChar

StartChar: breve
Encoding: 728 728 353
Width: 739
Flags: W
LayerCount: 2
Fore
SplineSet
92 1581 m 1,0,-1
 203 1581 l 1,1,2
 217 1487 217 1487 259.5 1454.5 c 128,-1,3
 302 1422 302 1422 368 1422 c 128,-1,4
 434 1422 434 1422 476.5 1454.5 c 128,-1,5
 519 1487 519 1487 533 1581 c 1,6,-1
 644 1581 l 1,7,8
 641 1504 641 1504 613.5 1448.5 c 128,-1,9
 586 1393 586 1393 543 1365 c 128,-1,10
 500 1337 500 1337 457 1325 c 128,-1,11
 414 1313 414 1313 368 1313 c 128,-1,12
 322 1313 322 1313 279 1325 c 128,-1,13
 236 1337 236 1337 193 1365 c 128,-1,14
 150 1393 150 1393 122.5 1448.5 c 128,-1,15
 95 1504 95 1504 92 1581 c 1,0,-1
EndSplineSet
EndChar

StartChar: dotaccent
Encoding: 729 729 354
Width: 410
Flags: W
LayerCount: 2
Fore
SplineSet
113 1380 m 1,0,-1
 113 1559 l 1,1,-1
 297 1559 l 1,2,-1
 297 1380 l 1,3,-1
 113 1380 l 1,0,-1
EndSplineSet
EndChar

StartChar: ring
Encoding: 730 730 355
Width: 637
Flags: W
LayerCount: 2
Fore
SplineSet
317 1722 m 128,-1,1
 424 1722 424 1722 480 1657 c 128,-1,2
 536 1592 536 1592 536 1504 c 128,-1,3
 536 1416 536 1416 480 1351 c 128,-1,4
 424 1286 424 1286 317 1286 c 128,-1,5
 210 1286 210 1286 154 1351 c 128,-1,6
 98 1416 98 1416 98 1504 c 128,-1,7
 98 1592 98 1592 154 1657 c 128,-1,0
 210 1722 210 1722 317 1722 c 128,-1,1
176 1504 m 128,-1,9
 176 1445 176 1445 210 1401 c 128,-1,10
 244 1357 244 1357 317 1357 c 128,-1,11
 390 1357 390 1357 424 1401 c 128,-1,12
 458 1445 458 1445 458 1504 c 128,-1,13
 458 1563 458 1563 424 1607 c 128,-1,14
 390 1651 390 1651 317 1651 c 128,-1,15
 244 1651 244 1651 210 1607 c 128,-1,8
 176 1563 176 1563 176 1504 c 128,-1,9
EndSplineSet
EndChar

StartChar: ogonek
Encoding: 731 731 356
Width: 475
Flags: W
LayerCount: 2
Fore
SplineSet
378 -288 m 1,0,-1
 378 -358 l 1,1,2
 317 -358 317 -358 278 -355.5 c 128,-1,3
 239 -353 239 -353 201.5 -345 c 128,-1,4
 164 -337 164 -337 143.5 -322 c 128,-1,5
 123 -307 123 -307 110.5 -281.5 c 128,-1,6
 98 -256 98 -256 98 -219 c 0,7,8
 98 -150 98 -150 152.5 -86.5 c 128,-1,9
 207 -23 207 -23 253 0 c 1,10,-1
 322 0 l 1,11,12
 261 -55 261 -55 226 -105.5 c 128,-1,13
 191 -156 191 -156 191 -210 c 0,14,15
 191 -222 191 -222 192.5 -231.5 c 128,-1,16
 194 -241 194 -241 199 -248.5 c 128,-1,17
 204 -256 204 -256 208 -261.5 c 128,-1,18
 212 -267 212 -267 221.5 -271 c 128,-1,19
 231 -275 231 -275 237.5 -278 c 128,-1,20
 244 -281 244 -281 259 -283 c 128,-1,21
 274 -285 274 -285 283 -286 c 128,-1,22
 292 -287 292 -287 311.5 -287.5 c 128,-1,23
 331 -288 331 -288 342.5 -288 c 128,-1,24
 354 -288 354 -288 378 -288 c 1,0,-1
EndSplineSet
EndChar

StartChar: tilde
Encoding: 732 732 357
Width: 754
Flags: W
LayerCount: 2
Fore
SplineSet
217 1376 m 1,0,-1
 102 1376 l 1,1,2
 103 1395 103 1395 105.5 1413 c 128,-1,3
 108 1431 108 1431 120 1460.5 c 128,-1,4
 132 1490 132 1490 150.5 1510.5 c 128,-1,5
 169 1531 169 1531 205 1547 c 128,-1,6
 241 1563 241 1563 289 1563 c 0,7,8
 317 1563 317 1563 383.5 1525 c 128,-1,9
 450 1487 450 1487 474 1487 c 0,10,11
 503 1487 503 1487 519 1501.5 c 128,-1,12
 535 1516 535 1516 540 1554 c 1,13,-1
 656 1554 l 1,14,-1
 655 1540 l 2,15,16
 654 1527 654 1527 650.5 1511.5 c 128,-1,17
 647 1496 647 1496 640.5 1475 c 128,-1,18
 634 1454 634 1454 620.5 1435.5 c 128,-1,19
 607 1417 607 1417 588.5 1400.5 c 128,-1,20
 570 1384 570 1384 540 1374 c 128,-1,21
 510 1364 510 1364 472 1364 c 128,-1,22
 434 1364 434 1364 368.5 1403 c 128,-1,23
 303 1442 303 1442 279 1442 c 0,24,25
 251 1442 251 1442 236.5 1428 c 128,-1,26
 222 1414 222 1414 217 1376 c 1,0,-1
EndSplineSet
EndChar

StartChar: hungarumlaut
Encoding: 733 733 358
Width: 655
Flags: W
LayerCount: 2
Fore
SplineSet
331 1408 m 1,0,-1
 437 1721 l 1,1,-1
 597 1721 l 1,2,-1
 390 1408 l 1,3,-1
 331 1408 l 1,0,-1
100 1408 m 1,4,-1
 206 1721 l 1,5,-1
 366 1721 l 1,6,-1
 159 1408 l 1,7,-1
 100 1408 l 1,4,-1
EndSplineSet
EndChar

StartChar: endash
Encoding: 8211 8211 381
Width: 793
Flags: W
LayerCount: 2
Fore
SplineSet
117 448 m 1,0,-1
 117 563 l 1,1,-1
 691 563 l 1,2,-1
 691 448 l 1,3,-1
 117 448 l 1,0,-1
EndSplineSet
EndChar

StartChar: emdash
Encoding: 8212 8212 382
Width: 1194
Flags: W
LayerCount: 2
Fore
SplineSet
117 448 m 1,0,-1
 117 563 l 1,1,-1
 1091 563 l 1,2,-1
 1091 448 l 1,3,-1
 117 448 l 1,0,-1
EndSplineSet
EndChar

StartChar: quoteleft
Encoding: 8216 8216 383
Width: 403
Flags: W
LayerCount: 2
Fore
SplineSet
296 1311 m 1,0,-1
 111 1311 l 1,1,2
 111 1554 111 1554 136 1644.5 c 128,-1,3
 161 1735 161 1735 247 1746 c 1,4,-1
 274 1691 l 1,5,6
 239 1680 239 1680 215.5 1652.5 c 128,-1,7
 192 1625 192 1625 183 1590.5 c 128,-1,8
 174 1556 174 1556 171 1534 c 128,-1,9
 168 1512 168 1512 168 1490 c 1,10,-1
 296 1490 l 1,11,-1
 296 1311 l 1,0,-1
EndSplineSet
EndChar

StartChar: quoteright
Encoding: 8217 8217 384
Width: 393
Flags: W
LayerCount: 2
Fore
SplineSet
149 1286 m 1,0,-1
 122 1341 l 1,1,2
 157 1352 157 1352 180.5 1379.5 c 128,-1,3
 204 1407 204 1407 213 1441.5 c 128,-1,4
 222 1476 222 1476 225 1498 c 128,-1,5
 228 1520 228 1520 228 1542 c 1,6,-1
 100 1542 l 1,7,-1
 100 1721 l 1,8,-1
 285 1721 l 1,9,10
 285 1478 285 1478 260 1387.5 c 128,-1,11
 235 1297 235 1297 149 1286 c 1,0,-1
EndSplineSet
EndChar

StartChar: quotesinglbase
Encoding: 8218 8218 385
Width: 403
Flags: W
LayerCount: 2
Fore
SplineSet
173 -321 m 1,0,-1
 123 -14 l 1,1,-1
 291 -14 l 1,2,3
 279 -88 279 -88 266.5 -165 c 128,-1,4
 254 -242 254 -242 241 -321 c 1,5,-1
 173 -321 l 1,0,-1
EndSplineSet
EndChar

StartChar: quotedblleft
Encoding: 8220 8220 386
Width: 698
Flags: W
LayerCount: 2
Fore
SplineSet
590 1311 m 1,0,-1
 405 1311 l 1,1,2
 405 1554 405 1554 430 1644.5 c 128,-1,3
 455 1735 455 1735 541 1746 c 1,4,-1
 568 1691 l 1,5,6
 533 1680 533 1680 509.5 1652.5 c 128,-1,7
 486 1625 486 1625 477 1590.5 c 128,-1,8
 468 1556 468 1556 465 1534 c 128,-1,9
 462 1512 462 1512 462 1490 c 1,10,-1
 590 1490 l 1,11,-1
 590 1311 l 1,0,-1
296 1311 m 1,12,-1
 111 1311 l 1,13,14
 111 1554 111 1554 136 1644.5 c 128,-1,15
 161 1735 161 1735 247 1746 c 1,16,-1
 274 1691 l 1,17,18
 239 1680 239 1680 215.5 1652.5 c 128,-1,19
 192 1625 192 1625 183 1590.5 c 128,-1,20
 174 1556 174 1556 171 1534 c 128,-1,21
 168 1512 168 1512 168 1490 c 1,22,-1
 296 1490 l 1,23,-1
 296 1311 l 1,12,-1
EndSplineSet
EndChar

StartChar: quotedblright
Encoding: 8221 8221 387
Width: 686
Flags: W
LayerCount: 2
Fore
SplineSet
443 1286 m 1,0,-1
 416 1341 l 1,1,2
 451 1352 451 1352 474.5 1379.5 c 128,-1,3
 498 1407 498 1407 507 1441.5 c 128,-1,4
 516 1476 516 1476 519 1498 c 128,-1,5
 522 1520 522 1520 522 1542 c 1,6,-1
 394 1542 l 1,7,-1
 394 1721 l 1,8,-1
 579 1721 l 1,9,10
 579 1478 579 1478 554 1387.5 c 128,-1,11
 529 1297 529 1297 443 1286 c 1,0,-1
149 1286 m 1,12,-1
 122 1341 l 1,13,14
 157 1352 157 1352 180.5 1379.5 c 128,-1,15
 204 1407 204 1407 213 1441.5 c 128,-1,16
 222 1476 222 1476 225 1498 c 128,-1,17
 228 1520 228 1520 228 1542 c 1,18,-1
 100 1542 l 1,19,-1
 100 1721 l 1,20,-1
 285 1721 l 1,21,22
 285 1478 285 1478 260 1387.5 c 128,-1,23
 235 1297 235 1297 149 1286 c 1,12,-1
EndSplineSet
EndChar

StartChar: quotedblbase
Encoding: 8222 8222 388
Width: 725
Flags: W
LayerCount: 2
Fore
SplineSet
497 -320 m 1,0,-1
 446 -13 l 1,1,-1
 614 -13 l 1,2,3
 602 -87 602 -87 589.5 -164 c 128,-1,4
 577 -241 577 -241 564 -320 c 1,5,-1
 497 -320 l 1,0,-1
174 -320 m 1,6,-1
 123 -13 l 1,7,-1
 291 -13 l 1,8,9
 279 -87 279 -87 266.5 -164 c 128,-1,10
 254 -241 254 -241 241 -320 c 1,11,-1
 174 -320 l 1,6,-1
EndSplineSet
EndChar

StartChar: dagger
Encoding: 8224 8224 389
Width: 590
Flags: W
LayerCount: 2
Fore
SplineSet
244 0 m 1,0,-1
 244 1034 l 1,1,-1
 18 1034 l 1,2,-1
 18 1117 l 1,3,-1
 244 1117 l 1,4,-1
 244 1459 l 1,5,-1
 362 1459 l 1,6,-1
 362 1117 l 1,7,-1
 586 1117 l 1,8,-1
 586 1034 l 1,9,-1
 362 1034 l 1,10,-1
 362 0 l 1,11,-1
 244 0 l 1,0,-1
EndSplineSet
EndChar

StartChar: daggerdbl
Encoding: 8225 8225 390
Width: 590
Flags: W
LayerCount: 2
Fore
SplineSet
244 0 m 1,0,-1
 244 448 l 1,1,-1
 18 448 l 1,2,-1
 18 537 l 1,3,-1
 244 537 l 1,4,-1
 244 1114 l 1,5,-1
 18 1114 l 1,6,-1
 18 1197 l 1,7,-1
 244 1197 l 1,8,-1
 244 1459 l 1,9,-1
 362 1459 l 1,10,-1
 362 1197 l 1,11,-1
 586 1197 l 1,12,-1
 586 1114 l 1,13,-1
 362 1114 l 1,14,-1
 362 537 l 1,15,-1
 586 537 l 1,16,-1
 586 448 l 1,17,-1
 362 448 l 1,18,-1
 362 0 l 1,19,-1
 244 0 l 1,0,-1
EndSplineSet
EndChar

StartChar: bullet
Encoding: 8226 8226 391
Width: 565
Flags: W
LayerCount: 2
Fore
SplineSet
104 767 m 0,0,1
 104 848 104 848 154 898.5 c 128,-1,2
 204 949 204 949 286 949 c 0,3,4
 371 949 371 949 420 901 c 128,-1,5
 469 853 469 853 469 767 c 0,6,7
 469 683 469 683 420 635.5 c 128,-1,8
 371 588 371 588 286 588 c 0,9,10
 203 588 203 588 153.5 635.5 c 128,-1,11
 104 683 104 683 104 767 c 0,0,1
EndSplineSet
EndChar

StartChar: guilsinglleft
Encoding: 8249 8249 392
Width: 561
Flags: W
LayerCount: 2
Fore
SplineSet
466 124 m 1,0,-1
 78 576 l 1,1,-1
 78 704 l 1,2,-1
 466 1156 l 1,3,-1
 466 956 l 1,4,-1
 190 641 l 1,5,-1
 466 324 l 1,6,-1
 466 124 l 1,0,-1
EndSplineSet
EndChar

StartChar: guilsinglright
Encoding: 8250 8250 393
Width: 561
Flags: W
LayerCount: 2
Fore
SplineSet
78 124 m 1,0,-1
 78 324 l 1,1,-1
 354 641 l 1,2,-1
 78 956 l 1,3,-1
 78 1156 l 1,4,-1
 466 704 l 1,5,-1
 466 576 l 1,6,-1
 78 124 l 1,0,-1
EndSplineSet
EndChar

StartChar: fraction
Encoding: 8260 8260 394
Width: 651
Flags: W
LayerCount: 2
Fore
SplineSet
-29 0 m 1,0,-1
 523 1721 l 1,1,-1
 668 1721 l 1,2,-1
 115 0 l 1,3,-1
 -29 0 l 1,0,-1
EndSplineSet
EndChar

StartChar: Euro
Encoding: 8364 8364 395
Width: 1096
Flags: W
LayerCount: 2
Fore
SplineSet
163 499 m 2,0,-1
 163 695 l 1,1,-1
 41 695 l 1,2,-1
 41 784 l 1,3,-1
 163 784 l 1,4,-1
 163 916 l 1,5,-1
 41 916 l 1,6,-1
 41 1005 l 1,7,-1
 163 1005 l 1,8,-1
 163 1220 l 2,9,10
 163 1745 163 1745 600 1745 c 0,11,12
 1004 1745 1004 1745 1004 1220 c 2,13,-1
 1004 1150 l 1,14,-1
 859 1150 l 1,15,-1
 859 1254 l 2,16,17
 859 1337 859 1337 846.5 1401 c 128,-1,18
 834 1465 834 1465 805 1516.5 c 128,-1,19
 776 1568 776 1568 724.5 1595.5 c 128,-1,20
 673 1623 673 1623 600 1623 c 0,21,22
 519 1623 519 1623 461.5 1595.5 c 128,-1,23
 404 1568 404 1568 373 1516.5 c 128,-1,24
 342 1465 342 1465 328.5 1401 c 128,-1,25
 315 1337 315 1337 315 1254 c 2,26,-1
 315 1005 l 1,27,-1
 583 1005 l 1,28,-1
 583 916 l 1,29,-1
 315 916 l 1,30,-1
 315 784 l 1,31,-1
 583 784 l 1,32,-1
 583 695 l 1,33,-1
 315 695 l 1,34,-1
 315 465 l 2,35,36
 315 382 315 382 328.5 318 c 128,-1,37
 342 254 342 254 373 202 c 128,-1,38
 404 150 404 150 461.5 122.5 c 128,-1,39
 519 95 519 95 600 95 c 0,40,41
 673 95 673 95 724.5 122.5 c 128,-1,42
 776 150 776 150 805 202 c 128,-1,43
 834 254 834 254 846.5 318 c 128,-1,44
 859 382 859 382 859 465 c 2,45,-1
 859 583 l 1,46,-1
 1004 583 l 1,47,-1
 1004 499 l 2,48,49
 1004 408 1004 408 993 333 c 128,-1,50
 982 258 982 258 953.5 189.5 c 128,-1,51
 925 121 925 121 880 74.5 c 128,-1,52
 835 28 835 28 764 0.5 c 128,-1,53
 693 -27 693 -27 600 -27 c 0,54,55
 500 -27 500 -27 423.5 0.5 c 128,-1,56
 347 28 347 28 298 74.5 c 128,-1,57
 249 121 249 121 218.5 189.5 c 128,-1,58
 188 258 188 258 175.5 333 c 128,-1,59
 163 408 163 408 163 499 c 2,0,-1
EndSplineSet
EndChar

StartChar: trademark
Encoding: 8482 8482 396
Width: 1399
Flags: W
LayerCount: 2
Fore
SplineSet
646 686 m 1,0,-1
 646 1441 l 1,1,-1
 809 1441 l 1,2,-1
 957 902 l 1,3,-1
 1120 1441 l 1,4,-1
 1270 1441 l 1,5,-1
 1270 686 l 1,6,-1
 1181 686 l 1,7,-1
 1181 1410 l 1,8,-1
 980 686 l 1,9,-1
 933 686 l 1,10,-1
 733 1400 l 1,11,-1
 733 686 l 1,12,-1
 646 686 l 1,0,-1
220 686 m 1,13,-1
 220 1364 l 1,14,-1
 57 1364 l 1,15,-1
 57 1441 l 1,16,-1
 483 1441 l 1,17,-1
 483 1364 l 1,18,-1
 319 1364 l 1,19,-1
 319 686 l 1,20,-1
 220 686 l 1,13,-1
EndSplineSet
EndChar

StartChar: product
Encoding: 8719 8719 397
Width: 1188
Flags: W
LayerCount: 2
Fore
SplineSet
152 0 m 1,0,-1
 152 1715 l 1,1,-1
 1040 1715 l 1,2,-1
 1040 0 l 1,3,-1
 856 0 l 1,4,-1
 856 1600 l 1,5,-1
 336 1600 l 1,6,-1
 336 0 l 1,7,-1
 152 0 l 1,0,-1
EndSplineSet
EndChar

StartChar: integral
Encoding: 8747 8747 398
Width: 500
Flags: W
LayerCount: 2
Fore
SplineSet
-41 -381 m 1,0,-1
 -41 -272 l 1,1,2
 -17 -278 -17 -278 33 -278 c 0,3,4
 66 -278 66 -278 89 -268 c 128,-1,5
 112 -258 112 -258 123.5 -246 c 128,-1,6
 135 -234 135 -234 141 -210 c 128,-1,7
 147 -186 147 -186 147.5 -171 c 128,-1,8
 148 -156 148 -156 148 -128 c 0,9,10
 148 -123 148 -123 148 -120 c 2,11,-1
 148 1114 l 1,12,-1
 10 1114 l 1,13,-1
 10 1198 l 1,14,-1
 148 1198 l 1,15,-1
 148 1367 l 2,16,17
 148 1408 148 1408 150.5 1439.5 c 128,-1,18
 153 1471 153 1471 165.5 1513.5 c 128,-1,19
 178 1556 178 1556 200 1584 c 128,-1,20
 222 1612 222 1612 264 1632 c 128,-1,21
 306 1652 306 1652 365 1652 c 0,22,23
 434 1652 434 1652 487 1639 c 1,24,-1
 487 1530 l 1,25,26
 463 1536 463 1536 413 1536 c 0,27,28
 380 1536 380 1536 357 1526 c 128,-1,29
 334 1516 334 1516 322.5 1504 c 128,-1,30
 311 1492 311 1492 305 1468 c 128,-1,31
 299 1444 299 1444 298.5 1429 c 128,-1,32
 298 1414 298 1414 298 1386 c 0,33,34
 298 1381 298 1381 298 1378 c 2,35,-1
 298 1198 l 1,36,-1
 519 1198 l 1,37,-1
 519 1114 l 1,38,-1
 298 1114 l 1,39,-1
 298 -110 l 2,40,41
 298 -151 298 -151 295.5 -182 c 128,-1,42
 293 -213 293 -213 280.5 -256 c 128,-1,43
 268 -299 268 -299 246 -326.5 c 128,-1,44
 224 -354 224 -354 182 -374 c 128,-1,45
 140 -394 140 -394 81 -394 c 0,46,47
 12 -394 12 -394 -41 -381 c 1,0,-1
EndSplineSet
EndChar

StartChar: uniFB00
Encoding: 64256 64256 399
Width: 1029
Flags: W
LayerCount: 2
Fore
SplineSet
177 0 m 1,0,-1
 177 1114 l 1,1,-1
 10 1114 l 1,2,-1
 10 1198 l 1,3,-1
 177 1198 l 1,4,-1
 177 1327 l 2,5,6
 177 1333 177 1333 177 1345 c 0,7,8
 177 1377 177 1377 177 1396 c 128,-1,9
 177 1415 177 1415 181 1451 c 128,-1,10
 185 1487 185 1487 192.5 1510.5 c 128,-1,11
 200 1534 200 1534 216 1563.5 c 128,-1,12
 232 1593 232 1593 254.5 1610.5 c 128,-1,13
 277 1628 277 1628 313 1640 c 128,-1,14
 349 1652 349 1652 394 1652 c 0,15,16
 463 1652 463 1652 516 1639 c 1,17,-1
 516 1530 l 1,18,19
 492 1536 492 1536 442 1536 c 0,20,21
 409 1536 409 1536 386 1526 c 128,-1,22
 363 1516 363 1516 351.5 1504 c 128,-1,23
 340 1492 340 1492 334 1468 c 128,-1,24
 328 1444 328 1444 327.5 1429 c 128,-1,25
 327 1414 327 1414 327 1386 c 0,26,27
 327 1381 327 1381 327 1378 c 2,28,-1
 327 1198 l 1,29,-1
 674 1198 l 1,30,-1
 674 1327 l 2,31,32
 674 1333 674 1333 674 1345 c 0,33,34
 674 1377 674 1377 674 1396 c 128,-1,35
 674 1415 674 1415 678 1451 c 128,-1,36
 682 1487 682 1487 689.5 1510.5 c 128,-1,37
 697 1534 697 1534 713 1563.5 c 128,-1,38
 729 1593 729 1593 751.5 1610.5 c 128,-1,39
 774 1628 774 1628 810 1640 c 128,-1,40
 846 1652 846 1652 891 1652 c 0,41,42
 960 1652 960 1652 1013 1639 c 1,43,-1
 1013 1530 l 1,44,45
 989 1536 989 1536 939 1536 c 0,46,47
 906 1536 906 1536 883 1526 c 128,-1,48
 860 1516 860 1516 848.5 1504 c 128,-1,49
 837 1492 837 1492 831 1468 c 128,-1,50
 825 1444 825 1444 824.5 1429 c 128,-1,51
 824 1414 824 1414 824 1386 c 0,52,53
 824 1381 824 1381 824 1378 c 2,54,-1
 824 1198 l 1,55,-1
 1016 1198 l 1,56,-1
 1016 1114 l 1,57,-1
 824 1114 l 1,58,-1
 824 0 l 1,59,-1
 674 0 l 1,60,-1
 674 1114 l 1,61,-1
 327 1114 l 1,62,-1
 327 0 l 1,63,-1
 177 0 l 1,0,-1
EndSplineSet
EndChar

StartChar: uniFB01
Encoding: 64257 64257 400
Width: 942
Flags: W
LayerCount: 2
Fore
SplineSet
669 1472 m 1,0,-1
 669 1651 l 1,1,-1
 819 1651 l 1,2,-1
 819 1472 l 1,3,-1
 669 1472 l 1,0,-1
177 0 m 1,4,-1
 177 1114 l 1,5,-1
 10 1114 l 1,6,-1
 10 1198 l 1,7,-1
 177 1198 l 1,8,-1
 177 1327 l 2,9,10
 177 1333 177 1333 177 1345 c 0,11,12
 177 1377 177 1377 177 1396 c 128,-1,13
 177 1415 177 1415 181 1451 c 128,-1,14
 185 1487 185 1487 192.5 1510.5 c 128,-1,15
 200 1534 200 1534 216 1563.5 c 128,-1,16
 232 1593 232 1593 254.5 1610.5 c 128,-1,17
 277 1628 277 1628 313 1640 c 128,-1,18
 349 1652 349 1652 394 1652 c 0,19,20
 463 1652 463 1652 516 1639 c 1,21,-1
 516 1530 l 1,22,23
 492 1536 492 1536 442 1536 c 0,24,25
 409 1536 409 1536 386 1526 c 128,-1,26
 363 1516 363 1516 351.5 1504 c 128,-1,27
 340 1492 340 1492 334 1468 c 128,-1,28
 328 1444 328 1444 327.5 1429 c 128,-1,29
 327 1414 327 1414 327 1386 c 0,30,31
 327 1381 327 1381 327 1378 c 2,32,-1
 327 1198 l 1,33,-1
 819 1198 l 1,34,-1
 819 0 l 1,35,-1
 669 0 l 1,36,-1
 669 1114 l 1,37,-1
 327 1114 l 1,38,-1
 327 0 l 1,39,-1
 177 0 l 1,4,-1
EndSplineSet
EndChar

StartChar: uniFB02
Encoding: 64258 64258 401
Width: 983
Flags: W
LayerCount: 2
Fore
SplineSet
177 0 m 1,0,-1
 177 1114 l 1,1,-1
 10 1114 l 1,2,-1
 10 1198 l 1,3,-1
 177 1198 l 1,4,-1
 177 1367 l 2,5,6
 177 1455 177 1455 199 1512.5 c 128,-1,7
 221 1570 221 1570 268.5 1600.5 c 128,-1,8
 316 1631 316 1631 376 1642 c 128,-1,9
 436 1653 436 1653 526 1653 c 0,10,11
 612 1653 612 1653 689.5 1640.5 c 128,-1,12
 767 1628 767 1628 802 1616 c 2,13,-1
 837 1603 l 1,14,-1
 837 0 l 1,15,-1
 687 0 l 1,16,-1
 687 1532 l 1,17,18
 558 1542 558 1542 515 1542 c 0,19,20
 410 1542 410 1542 368.5 1509.5 c 128,-1,21
 327 1477 327 1477 327 1378 c 2,22,-1
 327 1198 l 1,23,-1
 519 1198 l 1,24,-1
 519 1114 l 1,25,-1
 327 1114 l 1,26,-1
 327 0 l 1,27,-1
 177 0 l 1,0,-1
EndSplineSet
EndChar

StartChar: uni030F
Encoding: 783 783 402
Width: 666
Flags: W
LayerCount: 2
Fore
SplineSet
275 1408 m 1,0,-1
 68 1721 l 1,1,-1
 228 1721 l 1,2,-1
 334 1408 l 1,3,-1
 275 1408 l 1,0,-1
506 1408 m 1,4,-1
 299 1721 l 1,5,-1
 459 1721 l 1,6,-1
 565 1408 l 1,7,-1
 506 1408 l 1,4,-1
EndSplineSet
EndChar

StartChar: uniFB03
Encoding: 64259 64259 403
Width: 1439
Flags: W
LayerCount: 2
Fore
SplineSet
1166 1472 m 1,0,-1
 1166 1651 l 1,1,-1
 1316 1651 l 1,2,-1
 1316 1472 l 1,3,-1
 1166 1472 l 1,0,-1
177 0 m 1,4,-1
 177 1114 l 1,5,-1
 10 1114 l 1,6,-1
 10 1198 l 1,7,-1
 177 1198 l 1,8,-1
 177 1327 l 2,9,10
 177 1333 177 1333 177 1345 c 0,11,12
 177 1377 177 1377 177 1396 c 128,-1,13
 177 1415 177 1415 181 1451 c 128,-1,14
 185 1487 185 1487 192.5 1510.5 c 128,-1,15
 200 1534 200 1534 216 1563.5 c 128,-1,16
 232 1593 232 1593 254.5 1610.5 c 128,-1,17
 277 1628 277 1628 313 1640 c 128,-1,18
 349 1652 349 1652 394 1652 c 0,19,20
 463 1652 463 1652 516 1639 c 1,21,-1
 516 1530 l 1,22,23
 492 1536 492 1536 442 1536 c 0,24,25
 409 1536 409 1536 386 1526 c 128,-1,26
 363 1516 363 1516 351.5 1504 c 128,-1,27
 340 1492 340 1492 334 1468 c 128,-1,28
 328 1444 328 1444 327.5 1429 c 128,-1,29
 327 1414 327 1414 327 1386 c 0,30,31
 327 1381 327 1381 327 1378 c 2,32,-1
 327 1198 l 1,33,-1
 674 1198 l 1,34,-1
 674 1327 l 2,35,36
 674 1333 674 1333 674 1345 c 0,37,38
 674 1377 674 1377 674 1396 c 128,-1,39
 674 1415 674 1415 678 1451 c 128,-1,40
 682 1487 682 1487 689.5 1510.5 c 128,-1,41
 697 1534 697 1534 713 1563.5 c 128,-1,42
 729 1593 729 1593 751.5 1610.5 c 128,-1,43
 774 1628 774 1628 810 1640 c 128,-1,44
 846 1652 846 1652 891 1652 c 0,45,46
 960 1652 960 1652 1013 1639 c 1,47,-1
 1013 1530 l 1,48,49
 989 1536 989 1536 939 1536 c 0,50,51
 906 1536 906 1536 883 1526 c 128,-1,52
 860 1516 860 1516 848.5 1504 c 128,-1,53
 837 1492 837 1492 831 1468 c 128,-1,54
 825 1444 825 1444 824.5 1429 c 128,-1,55
 824 1414 824 1414 824 1386 c 0,56,57
 824 1381 824 1381 824 1378 c 2,58,-1
 824 1198 l 1,59,-1
 1316 1198 l 1,60,-1
 1316 0 l 1,61,-1
 1166 0 l 1,62,-1
 1166 1114 l 1,63,-1
 824 1114 l 1,64,-1
 824 0 l 1,65,-1
 674 0 l 1,66,-1
 674 1114 l 1,67,-1
 327 1114 l 1,68,-1
 327 0 l 1,69,-1
 177 0 l 1,4,-1
EndSplineSet
EndChar

StartChar: minus
Encoding: 8722 8722 404
Width: 702
Flags: W
LayerCount: 2
Fore
SplineSet
106 461 m 1,0,-1
 106 576 l 1,1,-1
 610 576 l 1,2,-1
 610 461 l 1,3,-1
 106 461 l 1,0,-1
EndSplineSet
EndChar

StartChar: uni00B9
Encoding: 185 185 405
Width: 522
Flags: W
LayerCount: 2
Fore
SplineSet
243 588 m 1,0,-1
 243 1497 l 1,1,2
 201 1468 201 1468 144 1442 c 128,-1,3
 87 1416 87 1416 51 1408 c 1,4,-1
 51 1533 l 1,5,6
 111 1555 111 1555 181 1603.5 c 128,-1,7
 251 1652 251 1652 292 1721 c 1,8,-1
 379 1721 l 1,9,-1
 379 588 l 1,10,-1
 243 588 l 1,0,-1
EndSplineSet
EndChar

StartChar: uni00B3
Encoding: 179 179 406
Width: 770
Flags: W
LayerCount: 2
Fore
SplineSet
104 955 m 1,0,-1
 234 955 l 1,1,2
 234 898 234 898 239.5 856 c 128,-1,3
 245 814 245 814 260 774 c 128,-1,4
 275 734 275 734 306 713.5 c 128,-1,5
 337 693 337 693 383 693 c 0,6,7
 459 693 459 693 492 748.5 c 128,-1,8
 525 804 525 804 525 914 c 0,9,10
 525 980 525 980 478.5 1056 c 128,-1,11
 432 1132 432 1132 364 1146 c 1,12,-1
 364 1230 l 1,13,14
 442 1252 442 1252 483.5 1307.5 c 128,-1,15
 525 1363 525 1363 525 1425 c 0,16,17
 525 1638 525 1638 393 1638 c 0,18,19
 353 1638 353 1638 323.5 1623 c 128,-1,20
 294 1608 294 1608 277 1584.5 c 128,-1,21
 260 1561 260 1561 250 1525 c 128,-1,22
 240 1489 240 1489 237 1454 c 128,-1,23
 234 1419 234 1419 234 1374 c 1,24,-1
 104 1374 l 1,25,26
 104 1551 104 1551 175 1647.5 c 128,-1,27
 246 1744 246 1744 392 1744 c 0,28,29
 520 1744 520 1744 587.5 1656 c 128,-1,30
 655 1568 655 1568 655 1436 c 0,31,32
 655 1362 655 1362 610 1291 c 128,-1,33
 565 1220 565 1220 497 1188 c 1,34,35
 563 1149 563 1149 609 1066 c 128,-1,36
 655 983 655 983 655 913 c 0,37,38
 655 764 655 764 586 675.5 c 128,-1,39
 517 587 517 587 382 587 c 0,40,41
 241 587 241 587 172.5 683.5 c 128,-1,42
 104 780 104 780 104 955 c 1,0,-1
EndSplineSet
EndChar

StartChar: uni00B2
Encoding: 178 178 407
Width: 764
Flags: W
LayerCount: 2
Fore
SplineSet
100 586 m 1,0,-1
 100 686 l 1,1,-1
 405 1145 l 1,2,3
 522 1333 522 1333 522 1423 c 0,4,5
 522 1635 522 1635 398 1635 c 0,6,7
 350 1635 350 1635 317.5 1614 c 128,-1,8
 285 1593 285 1593 270 1553 c 128,-1,9
 255 1513 255 1513 249.5 1471 c 128,-1,10
 244 1429 244 1429 244 1371 c 1,11,-1
 102 1371 l 1,12,13
 102 1549 102 1549 174 1646 c 128,-1,14
 246 1743 246 1743 397 1743 c 0,15,16
 530 1743 530 1743 597 1658 c 128,-1,17
 664 1573 664 1573 664 1424 c 0,18,19
 664 1308 664 1308 534 1106 c 2,20,-1
 269 697 l 1,21,-1
 650 697 l 1,22,-1
 650 586 l 1,23,-1
 100 586 l 1,0,-1
EndSplineSet
EndChar

StartChar: glyph409
Encoding: 65539 -1 409
Width: 1362
Flags: W
LayerCount: 2
Fore
SplineSet
221 277 m 1,0,-1
 389 819 l 1,1,-1
 -70 1157 l 1,2,-1
 502 1168 l 1,3,-1
 680 1710 l 1,4,-1
 868 1168 l 1,5,-1
 1440 1168 l 1,6,-1
 979 819 l 1,7,-1
 1149 277 l 1,8,-1
 680 604 l 1,9,-1
 221 277 l 1,0,-1
EndSplineSet
EndChar

StartChar: glyph410
Encoding: 65540 -1 410
Width: 1082
Flags: W
LayerCount: 2
Fore
SplineSet
179 283 m 2,0,-1
 179 1114 l 1,1,-1
 16 1114 l 1,2,-1
 16 1198 l 1,3,-1
 179 1198 l 1,4,-1
 179 1623 l 1,5,-1
 329 1623 l 1,6,-1
 329 1198 l 1,7,-1
 667 1198 l 1,8,-1
 667 1623 l 1,9,-1
 817 1623 l 1,10,-1
 817 1198 l 1,11,-1
 1009 1198 l 1,12,-1
 1009 1114 l 1,13,-1
 817 1114 l 1,14,-1
 817 290 l 2,15,16
 817 247 817 247 818 222.5 c 128,-1,17
 819 198 819 198 824.5 169.5 c 128,-1,18
 830 141 830 141 840.5 127 c 128,-1,19
 851 113 851 113 870.5 103.5 c 128,-1,20
 890 94 890 94 919 94 c 0,21,22
 968 94 968 94 1007 102 c 1,23,-1
 1007 -1 l 1,24,25
 940 -18 940 -18 877 -18 c 0,26,27
 821 -18 821 -18 781 -0.5 c 128,-1,28
 741 17 741 17 719.5 43 c 128,-1,29
 698 69 698 69 685.5 112 c 128,-1,30
 673 155 673 155 670 192.5 c 128,-1,31
 667 230 667 230 667 283 c 2,32,-1
 667 1114 l 1,33,-1
 329 1114 l 1,34,-1
 329 290 l 2,35,36
 329 247 329 247 330 222.5 c 128,-1,37
 331 198 331 198 336.5 169.5 c 128,-1,38
 342 141 342 141 352.5 127 c 128,-1,39
 363 113 363 113 382.5 103.5 c 128,-1,40
 402 94 402 94 431 94 c 0,41,42
 480 94 480 94 519 102 c 1,43,-1
 519 -1 l 1,44,45
 452 -18 452 -18 389 -18 c 0,46,47
 333 -18 333 -18 293 -0.5 c 128,-1,48
 253 17 253 17 231.5 43 c 128,-1,49
 210 69 210 69 197.5 112 c 128,-1,50
 185 155 185 155 182 192.5 c 128,-1,51
 179 230 179 230 179 283 c 2,0,-1
EndSplineSet
EndChar

StartChar: uni0311
Encoding: 785 785 411
Width: 737
Flags: W
LayerCount: 2
Fore
SplineSet
201 1313 m 1,0,-1
 90 1313 l 1,1,2
 93 1390 93 1390 120.5 1445.5 c 128,-1,3
 148 1501 148 1501 191 1529 c 128,-1,4
 234 1557 234 1557 277 1569 c 128,-1,5
 320 1581 320 1581 366 1581 c 128,-1,6
 412 1581 412 1581 455 1569 c 128,-1,7
 498 1557 498 1557 541 1529 c 128,-1,8
 584 1501 584 1501 611.5 1445.5 c 128,-1,9
 639 1390 639 1390 642 1313 c 1,10,-1
 531 1313 l 1,11,12
 517 1407 517 1407 474.5 1439.5 c 128,-1,13
 432 1472 432 1472 366 1472 c 128,-1,14
 300 1472 300 1472 257.5 1439.5 c 128,-1,15
 215 1407 215 1407 201 1313 c 1,0,-1
EndSplineSet
EndChar

StartChar: uni0326
Encoding: 806 806 412
Width: 502
Flags: W
LayerCount: 2
Fore
SplineSet
205 -522 m 1,0,-1
 178 -467 l 1,1,2
 210 -455 210 -455 233 -429 c 128,-1,3
 256 -403 256 -403 266 -371 c 128,-1,4
 276 -339 276 -339 280 -313.5 c 128,-1,5
 284 -288 284 -288 284 -266 c 1,6,-1
 156 -266 l 1,7,-1
 156 -87 l 1,8,-1
 341 -87 l 1,9,10
 341 -95 341 -95 341 -111 c 0,11,12
 341 -153 341 -153 341 -174 c 128,-1,13
 341 -195 341 -195 340 -232.5 c 128,-1,14
 339 -270 339 -270 337.5 -289.5 c 128,-1,15
 336 -309 336 -309 333 -339.5 c 128,-1,16
 330 -370 330 -370 325.5 -387 c 128,-1,17
 321 -404 321 -404 314.5 -426.5 c 128,-1,18
 308 -449 308 -449 298.5 -462 c 128,-1,19
 289 -475 289 -475 277 -488.5 c 128,-1,20
 265 -502 265 -502 250 -509.5 c 128,-1,21
 235 -517 235 -517 216 -520 c 0,22,23
 208 -522 208 -522 205 -522 c 1,0,-1
EndSplineSet
EndChar

StartChar: uni2074
Encoding: 8308 8308 413
Width: 737
Flags: W
LayerCount: 2
Fore
SplineSet
184 968 m 1,0,-1
 414 968 l 1,1,-1
 413 1606 l 1,2,-1
 184 968 l 1,0,-1
39 866 m 1,3,-1
 39 961 l 1,4,-1
 340 1722 l 1,5,-1
 550 1722 l 1,6,-1
 550 968 l 1,7,-1
 684 968 l 1,8,-1
 684 866 l 1,9,-1
 550 866 l 1,10,-1
 550 589 l 1,11,-1
 414 589 l 1,12,-1
 414 866 l 1,13,-1
 39 866 l 1,3,-1
EndSplineSet
EndChar

StartChar: uniFB04
Encoding: 64260 64260 414
Width: 1480
Flags: W
LayerCount: 2
Fore
SplineSet
177 0 m 1,0,-1
 177 1114 l 1,1,-1
 10 1114 l 1,2,-1
 10 1198 l 1,3,-1
 177 1198 l 1,4,-1
 177 1327 l 2,5,6
 177 1333 177 1333 177 1345 c 0,7,8
 177 1377 177 1377 177 1396 c 128,-1,9
 177 1415 177 1415 181 1451 c 128,-1,10
 185 1487 185 1487 192.5 1510.5 c 128,-1,11
 200 1534 200 1534 216 1563.5 c 128,-1,12
 232 1593 232 1593 254.5 1610.5 c 128,-1,13
 277 1628 277 1628 313 1640 c 128,-1,14
 349 1652 349 1652 394 1652 c 0,15,16
 463 1652 463 1652 516 1639 c 1,17,-1
 516 1530 l 1,18,19
 492 1536 492 1536 442 1536 c 0,20,21
 409 1536 409 1536 386 1526 c 128,-1,22
 363 1516 363 1516 351.5 1504 c 128,-1,23
 340 1492 340 1492 334 1468 c 128,-1,24
 328 1444 328 1444 327.5 1429 c 128,-1,25
 327 1414 327 1414 327 1386 c 0,26,27
 327 1381 327 1381 327 1378 c 2,28,-1
 327 1198 l 1,29,-1
 674 1198 l 1,30,-1
 674 1367 l 2,31,32
 674 1455 674 1455 696 1512.5 c 128,-1,33
 718 1570 718 1570 765.5 1600.5 c 128,-1,34
 813 1631 813 1631 873 1642 c 128,-1,35
 933 1653 933 1653 1023 1653 c 0,36,37
 1109 1653 1109 1653 1186.5 1640.5 c 128,-1,38
 1264 1628 1264 1628 1299 1616 c 2,39,-1
 1334 1603 l 1,40,-1
 1334 0 l 1,41,-1
 1184 0 l 1,42,-1
 1184 1532 l 1,43,44
 1055 1542 1055 1542 1012 1542 c 0,45,46
 907 1542 907 1542 865.5 1509.5 c 128,-1,47
 824 1477 824 1477 824 1378 c 2,48,-1
 824 1198 l 1,49,-1
 1073 1198 l 1,50,-1
 1073 1114 l 1,51,-1
 824 1114 l 1,52,-1
 824 0 l 1,53,-1
 674 0 l 1,54,-1
 674 1114 l 1,55,-1
 327 1114 l 1,56,-1
 327 0 l 1,57,-1
 177 0 l 1,0,-1
EndSplineSet
EndChar

